<svg width="240" height="81" viewBox="0 0 240 81" fill="none" xmlns="http://www.w3.org/2000/svg">
<path d="M220.714 0H19.1075C18.3724 0 17.647 0 16.9135 0C16.2993 0 15.6916 0.0161204 15.0726 0.0257927C13.727 0.0418126 12.3846 0.160372 11.057 0.380442C9.73331 0.60657 8.45129 1.03101 7.25419 1.63945C6.0535 2.25241 4.95635 3.04984 4.0027 4.0027C3.0464 4.95266 2.24951 6.05057 1.64267 7.25418C1.03386 8.45341 0.611482 9.73847 0.390114 11.065C0.166854 12.3912 0.0466657 13.7327 0.0306288 15.0774C0.0112843 15.6916 0.00967225 16.309 0 16.9264V63.2452C0.00967225 63.8675 0.0112843 64.4704 0.0306288 65.0926C0.0466593 66.4373 0.166847 67.7788 0.390114 69.105C0.610612 70.4333 1.03302 71.7201 1.64267 72.9207C2.24995 74.1196 3.0475 75.2122 4.00431 76.156C4.95403 77.1123 6.05132 77.9097 7.25419 78.5177C8.45347 79.1274 9.73756 79.5534 11.0634 79.7815C12.3912 79.9999 13.7335 80.1184 15.079 80.1362C15.6981 80.1491 16.3074 80.1571 16.92 80.1571C17.6535 80.1571 18.3789 80.1571 19.114 80.1571H220.714C221.433 80.1571 222.165 80.1571 222.887 80.1571C223.497 80.1571 224.124 80.1571 224.735 80.1362C226.078 80.1191 227.417 80.0006 228.742 79.7815C230.072 79.5517 231.361 79.1258 232.566 78.5177C233.765 77.9082 234.859 77.1109 235.806 76.156C236.76 75.2083 237.559 74.1165 238.174 72.9207C238.779 71.719 239.198 70.4324 239.416 69.105C239.638 67.7785 239.762 66.4374 239.786 65.0926C239.786 64.4704 239.786 63.8675 239.786 63.2452C239.802 62.5166 239.802 61.7944 239.802 61.0528V19.1107C239.802 18.3773 239.802 17.6486 239.786 16.9232C239.786 16.309 239.786 15.6916 239.786 15.0774C239.762 13.7326 239.638 12.3915 239.416 11.065C239.197 9.73833 238.778 8.4524 238.174 7.25096C236.937 4.8401 234.975 2.87765 232.564 1.63945C231.362 1.03385 230.076 0.610622 228.749 0.383666C227.424 0.162682 226.084 0.044115 224.741 0.0290167C224.124 0.0193445 223.497 0 222.887 0C222.165 0 221.436 0 220.714 0Z" fill="black"/>
<path d="M16.9232 78.4081C16.3122 78.4081 15.7174 78.4081 15.1112 78.3871C13.8562 78.3722 12.604 78.2644 11.3648 78.0647C10.2095 77.8659 9.09025 77.4959 8.04404 76.9669C7.00745 76.4422 6.062 75.7542 5.24393 74.9293C4.41396 74.1143 3.72294 73.1689 3.19825 72.1308C2.668 71.0859 2.30103 69.966 2.11012 68.81C1.90394 67.5677 1.79239 66.3115 1.77643 65.0523C1.76514 64.6251 1.74902 63.213 1.74902 63.213V16.9232C1.74902 16.9232 1.76676 15.5369 1.77804 15.1306C1.79506 13.8735 1.90769 12.6195 2.11496 11.3794C2.30646 10.2202 2.67395 9.0971 3.2047 8.04893C3.72565 7.01117 4.41102 6.0645 5.23426 5.24559C6.05795 4.4199 7.00607 3.72852 8.04404 3.19668C9.08747 2.66956 10.2042 2.30221 11.3568 2.10694C12.5999 1.9036 13.8565 1.79368 15.1161 1.77809L16.9248 1.75391H222.876L224.706 1.7797C225.953 1.7933 227.198 1.90108 228.429 2.10211C229.594 2.2997 230.722 2.6697 231.778 3.19991C233.856 4.27168 235.548 5.96731 236.614 8.04893C237.136 9.08987 237.498 10.2041 237.686 11.3536C237.894 12.6041 238.01 13.868 238.034 15.1355C238.034 15.7029 238.034 16.3122 238.034 16.92C238.05 17.6712 238.05 18.3869 238.05 19.1075V61.0528C238.05 61.7815 238.05 62.4908 238.034 63.2081C238.034 63.853 238.034 64.4575 238.034 65.0717C238.01 66.3143 237.896 67.5535 237.691 68.7793C237.504 69.9439 237.14 71.0727 236.609 72.1259C236.081 73.1532 235.395 74.0906 234.575 74.9035C233.756 75.7327 232.809 76.4245 231.77 76.9524C230.717 77.4854 229.59 77.8566 228.426 78.0534C227.188 78.2543 225.936 78.362 224.681 78.3758C224.095 78.3887 223.48 78.3968 222.884 78.3968H220.711L16.9232 78.4081Z" fill="black"/>
<path d="M49.636 40.6834C49.6583 39.0104 50.1035 37.3702 50.9302 35.9156C51.7569 34.4609 52.9382 33.239 54.3641 32.3637C53.4573 31.0716 52.2618 30.0087 50.8724 29.2593C49.4831 28.5099 47.9382 28.0947 46.3603 28.0467C42.9944 27.6936 39.7332 30.0601 38.018 30.0601C36.2706 30.0601 33.63 28.0821 30.7864 28.1401C28.9479 28.1988 27.1559 28.7325 25.5849 29.6893C24.014 30.6462 22.7175 31.9935 21.8218 33.6001C17.9529 40.3111 20.8369 50.1719 24.5494 55.5964C26.4065 58.2531 28.5795 61.2192 31.4183 61.1144C34.1975 60.9984 35.2356 59.3412 38.5919 59.3412C41.9159 59.3412 42.8896 61.1144 45.7881 61.0467C48.7703 60.9984 50.65 58.3788 52.4426 55.698C53.7797 53.8056 54.8091 51.7137 55.4925 49.4997C53.7585 48.7677 52.2783 47.5412 51.2368 45.9734C50.1953 44.4055 49.6385 42.5657 49.636 40.6834Z" fill="white"/>
<path d="M44.1634 24.4728C45.7897 22.5201 46.5907 20.0103 46.3961 17.4766C43.9112 17.7373 41.6158 18.9247 39.9673 20.8022C39.1607 21.7192 38.5428 22.7861 38.1489 23.9421C37.755 25.098 37.5929 26.3203 37.6717 27.5389C38.9152 27.5521 40.1455 27.283 41.2699 26.7519C42.3944 26.2208 43.3837 25.4416 44.1634 24.4728Z" fill="white"/>
<path d="M84.775 54.3891H75.2898L73.012 61.1162H68.9932L77.9771 36.2295H82.1523L91.1378 61.1162H87.0512L84.775 54.3891ZM76.2715 51.286H83.7917L80.084 40.3692H79.9808L76.2715 51.286Z" fill="white"/>
<path d="M110.542 52.0449C110.542 57.6871 107.524 61.3061 102.965 61.3061C101.814 61.3642 100.669 61.0973 99.6615 60.5361C98.6542 59.9749 97.8249 59.1418 97.2682 58.132H97.1828V67.1191H93.459V42.9724H97.0635V45.9901H97.1328C97.7159 44.9831 98.5611 44.153 99.5785 43.5881C100.596 43.0232 101.747 42.7447 102.91 42.7821C107.506 42.7821 110.542 46.4221 110.542 52.0449ZM106.713 52.0449C106.713 48.3711 104.814 45.9563 101.919 45.9563C99.0737 45.9563 97.1586 48.4227 97.1586 52.0449C97.1586 55.701 99.0721 58.1497 101.919 58.1497C104.814 58.1497 106.713 55.751 106.713 52.0449Z" fill="white"/>
<path d="M130.515 52.0449C130.515 57.6871 127.498 61.3061 122.939 61.3061C121.786 61.366 120.639 61.1001 119.63 60.5388C118.62 59.9774 117.79 59.1434 117.232 58.132H117.147V67.1191H113.428V42.9724H117.032V45.9901H117.102C117.685 44.9831 118.53 44.153 119.547 43.5881C120.565 43.0232 121.716 42.7447 122.879 42.7821C127.477 42.7821 130.515 46.4221 130.515 52.0449ZM126.687 52.0449C126.687 48.3711 124.788 45.9563 121.893 45.9563C119.047 45.9563 117.132 48.4227 117.132 52.0449C117.132 55.701 119.046 58.1497 121.893 58.1497C124.794 58.1497 126.687 55.7526 126.687 52.0449Z" fill="white"/>
<path d="M143.71 54.1825C143.985 56.6506 146.382 58.2707 149.66 58.2707C152.798 58.2707 155.057 56.6506 155.057 54.4243C155.057 52.4899 153.695 51.3357 150.469 50.5442L147.245 49.7672C142.675 48.6629 140.553 46.527 140.553 43.0578C140.553 38.7634 144.295 35.8149 149.608 35.8149C154.866 35.8149 158.474 38.765 158.594 43.0578H154.834C154.609 40.5737 152.556 39.0745 149.556 39.0745C146.556 39.0745 144.503 40.5914 144.503 42.7983C144.503 44.557 145.813 45.5936 149.016 46.3851L151.757 47.0589C156.862 48.2663 158.984 50.3169 158.984 53.9569C158.984 58.6124 155.276 61.5334 149.376 61.5334C143.856 61.5334 140.131 58.6866 139.891 54.1841L143.71 54.1825Z" fill="white"/>
<path d="M167.027 38.6777V42.9706H170.477V45.9206H167.027V55.9266C167.027 57.4806 167.719 58.2044 169.234 58.2044C169.644 58.1975 170.053 58.169 170.459 58.1189V61.0513C169.778 61.1788 169.085 61.2366 168.391 61.2237C164.717 61.2237 163.286 59.8438 163.286 56.3247V45.9206H160.648V42.9706H163.287V38.6777H167.027Z" fill="white"/>
<path d="M172.477 52.0481C172.477 46.3399 175.839 42.7515 181.082 42.7515C186.324 42.7515 189.688 46.3383 189.688 52.0481C189.688 57.758 186.359 61.3447 181.082 61.3447C175.804 61.3447 172.477 57.7692 172.477 52.0481ZM185.894 52.0481C185.894 48.1325 184.099 45.8208 181.082 45.8208C178.064 45.8208 176.271 48.1454 176.271 52.0481C176.271 55.9799 178.064 58.2738 181.082 58.2738C184.099 58.2738 185.894 55.9799 185.894 52.0481Z" fill="white"/>
<path d="M192.761 42.9724H196.307V46.0611H196.393C196.633 45.0954 197.199 44.2422 197.995 43.6449C198.791 43.0477 199.769 42.743 200.763 42.7822C201.192 42.7805 201.621 42.827 202.04 42.9208V46.4125C201.498 46.2467 200.933 46.1705 200.366 46.1868C199.826 46.1658 199.288 46.2616 198.789 46.4678C198.289 46.6739 197.84 46.9854 197.472 47.3811C197.105 47.7768 196.826 48.2472 196.657 48.7603C196.488 49.2733 196.431 49.817 196.491 50.3539V61.1159H192.767L192.761 42.9724Z" fill="white"/>
<path d="M219.21 55.7867C218.708 59.0801 215.502 61.3402 211.398 61.3402C206.12 61.3402 202.843 57.8034 202.843 52.1306C202.843 46.4578 206.136 42.7485 211.24 42.7485C216.26 42.7485 219.416 46.1967 219.416 51.6986V52.9753H206.602V53.201C206.544 53.8684 206.628 54.5406 206.849 55.1731C207.07 55.8055 207.423 56.3837 207.885 56.8692C208.346 57.3548 208.906 57.7366 209.526 57.9894C210.147 58.2422 210.814 58.3601 211.483 58.3354C212.364 58.4182 213.247 58.2146 214.002 57.7548C214.758 57.295 215.344 56.6036 215.675 55.7835L219.21 55.7867ZM206.62 50.3719H215.691C215.725 49.7711 215.634 49.1698 215.425 48.6057C215.216 48.0416 214.892 47.5269 214.474 47.094C214.056 46.661 213.553 46.3191 212.997 46.0898C212.441 45.8605 211.843 45.7487 211.242 45.7614C210.634 45.7576 210.033 45.8741 209.471 46.1043C208.909 46.3345 208.399 46.6738 207.969 47.1026C207.539 47.5313 207.199 48.041 206.967 48.6021C206.735 49.1633 206.617 49.7648 206.62 50.3719Z" fill="white"/>
<path d="M75.805 17.4988C76.5857 17.443 77.3691 17.5611 78.0987 17.8447C78.8283 18.1282 79.4859 18.5701 80.0241 19.1385C80.5622 19.7069 80.9676 20.3876 81.2109 21.1316C81.4542 21.8756 81.5294 22.6643 81.431 23.4408C81.431 27.2613 79.366 29.4569 75.805 29.4569H71.4863V17.4988H75.805ZM73.3434 27.7627H75.6003C76.1577 27.7956 76.7156 27.704 77.2332 27.4944C77.7508 27.2847 78.2152 26.9624 78.5927 26.5509C78.9702 26.1393 79.2512 25.6488 79.4153 25.115C79.5795 24.5812 79.6227 24.0175 79.5417 23.465C79.6175 22.9142 79.5704 22.3534 79.404 21.823C79.2375 21.2925 78.9557 20.8054 78.5789 20.3966C78.202 19.9879 77.7393 19.6675 77.2241 19.4586C76.7089 19.2497 76.1538 19.1574 75.5986 19.1882H73.3418L73.3434 27.7627Z" fill="white"/>
<path d="M83.5301 24.9382C83.4735 24.3452 83.5414 23.747 83.7296 23.1818C83.9177 22.6166 84.2218 22.097 84.6225 21.6562C85.0232 21.2154 85.5116 20.8633 86.0564 20.6223C86.6011 20.3813 87.1902 20.2568 87.7859 20.2568C88.3815 20.2568 88.9706 20.3813 89.5154 20.6223C90.0601 20.8633 90.5485 21.2154 90.9492 21.6562C91.3499 22.097 91.6541 22.6166 91.8422 23.1818C92.0303 23.747 92.0983 24.3452 92.0417 24.9382C92.0983 25.5312 92.0303 26.1294 91.8422 26.6946C91.6541 27.2598 91.3499 27.7794 90.9492 28.2202C90.5485 28.661 90.0601 29.0131 89.5154 29.2541C88.9706 29.4951 88.3815 29.6196 87.7859 29.6196C87.1902 29.6196 86.6011 29.4951 86.0564 29.2541C85.5116 29.0131 85.0232 28.661 84.6225 28.2202C84.2218 27.7794 83.9177 27.2598 83.7296 26.6946C83.5414 26.1294 83.4735 25.5312 83.5301 24.9382ZM90.2104 24.9382C90.2104 22.9828 89.3318 21.8382 87.7923 21.8382C86.2528 21.8382 85.3743 22.9828 85.3743 24.9382C85.3743 26.8936 86.2448 28.0446 87.7923 28.0446C89.3399 28.0446 90.2104 26.9017 90.2104 24.9382Z" fill="white"/>
<path d="M103.355 29.4552H101.507L99.6421 22.8087H99.5019L97.6448 29.4552H95.8136L93.3262 20.4277H95.1317L96.7437 27.3144H96.8775L98.733 20.4277H100.442L102.297 27.3144H102.437L104.049 20.4277H105.823L103.355 29.4552Z" fill="white"/>
<path d="M107.927 20.4309H109.642V21.864H109.774C109.999 21.3482 110.38 20.9156 110.863 20.6266C111.346 20.3376 111.907 20.2066 112.468 20.2519C112.907 20.2192 113.348 20.2856 113.757 20.4462C114.167 20.6068 114.536 20.8575 114.836 21.1798C115.135 21.5021 115.359 21.8877 115.49 22.308C115.62 22.7284 115.655 23.1727 115.59 23.6082V29.4551H113.804V24.0596C113.804 22.6087 113.174 21.8882 111.857 21.8882C111.559 21.8749 111.262 21.9261 110.986 22.0383C110.709 22.1505 110.461 22.321 110.257 22.5382C110.052 22.7554 109.897 23.0142 109.803 23.2968C109.708 23.5794 109.675 23.8792 109.706 24.1757V29.4551H107.933L107.927 20.4309Z" fill="white"/>
<path d="M118.428 16.9087H120.201V29.4552H118.428V16.9087Z" fill="white"/>
<path d="M122.683 24.9382C122.626 24.3452 122.694 23.747 122.883 23.1818C123.071 22.6166 123.375 22.097 123.776 21.6562C124.176 21.2154 124.665 20.8633 125.209 20.6223C125.754 20.3813 126.343 20.2568 126.939 20.2568C127.535 20.2568 128.124 20.3813 128.668 20.6223C129.213 20.8633 129.702 21.2154 130.102 21.6562C130.503 22.097 130.807 22.6166 130.995 23.1818C131.183 23.747 131.251 24.3452 131.195 24.9382C131.254 25.5326 131.188 26.1327 131.001 26.7C130.814 27.2672 130.51 27.789 130.109 28.2318C129.708 28.6745 129.219 29.0284 128.673 29.2705C128.127 29.5127 127.536 29.6378 126.939 29.6378C126.342 29.6378 125.751 29.5127 125.205 29.2705C124.659 29.0284 124.17 28.6745 123.769 28.2318C123.368 27.789 123.064 27.2672 122.877 26.7C122.69 26.1327 122.624 25.5326 122.683 24.9382ZM129.362 24.9382C129.362 22.9828 128.483 21.8382 126.944 21.8382C125.404 21.8382 124.526 22.9828 124.526 24.9382C124.526 26.8936 125.396 28.0446 126.944 28.0446C128.491 28.0446 129.362 26.9017 129.362 24.9382Z" fill="white"/>
<path d="M133.069 26.9033C133.069 25.2783 134.278 24.3417 136.426 24.2096L138.873 24.0677V23.2891C138.873 22.3364 138.242 21.7979 137.025 21.7979C136.031 21.7979 135.342 22.1623 135.144 22.8006H133.419C133.601 21.2499 135.059 20.2568 137.106 20.2568C139.363 20.2568 140.644 21.3853 140.644 23.2891V29.4551H138.931V28.1865H138.79C138.505 28.6413 138.103 29.0122 137.627 29.2611C137.151 29.5101 136.617 29.6282 136.081 29.6034C135.702 29.6433 135.318 29.6033 134.956 29.4859C134.593 29.3686 134.259 29.1764 133.975 28.922C133.692 28.6676 133.464 28.3564 133.308 28.0087C133.152 27.661 133.071 27.2844 133.069 26.9033ZM138.873 26.1311V25.3767L136.669 25.5169C135.426 25.6008 134.862 26.0231 134.862 26.8178C134.862 27.6126 135.566 28.1075 136.535 28.1075C136.819 28.1362 137.106 28.1075 137.379 28.0229C137.652 27.9384 137.905 27.7997 138.123 27.6153C138.341 27.4309 138.52 27.2044 138.649 26.9494C138.778 26.6944 138.854 26.4161 138.873 26.1311Z" fill="white"/>
<path d="M142.985 24.9399C142.985 22.0882 144.451 20.2827 146.732 20.2827C147.296 20.2566 147.856 20.3916 148.346 20.6719C148.836 20.9523 149.236 21.3663 149.5 21.8657H149.633V16.9087H151.407V29.4552H149.706V28.0302H149.566C149.282 28.5262 148.868 28.9352 148.368 29.2129C147.869 29.4905 147.303 29.6261 146.732 29.6051C144.436 29.6035 142.985 27.798 142.985 24.9399ZM144.825 24.9399C144.825 26.8534 145.727 28.0028 147.243 28.0028C148.758 28.0028 149.672 26.834 149.672 24.9399C149.672 23.0457 148.734 21.877 147.243 21.877C145.752 21.877 144.825 23.0361 144.825 24.9399Z" fill="white"/>
<path d="M158.78 24.9382C158.723 24.3452 158.791 23.747 158.98 23.1818C159.168 22.6166 159.472 22.097 159.873 21.6562C160.273 21.2154 160.762 20.8633 161.306 20.6223C161.851 20.3813 162.44 20.2568 163.036 20.2568C163.632 20.2568 164.221 20.3813 164.765 20.6223C165.31 20.8633 165.799 21.2154 166.199 21.6562C166.6 22.097 166.904 22.6166 167.092 23.1818C167.28 23.747 167.348 24.3452 167.292 24.9382C167.348 25.5312 167.28 26.1294 167.092 26.6946C166.904 27.2598 166.6 27.7794 166.199 28.2202C165.799 28.661 165.31 29.0131 164.765 29.2541C164.221 29.4951 163.632 29.6196 163.036 29.6196C162.44 29.6196 161.851 29.4951 161.306 29.2541C160.762 29.0131 160.273 28.661 159.873 28.2202C159.472 27.7794 159.168 27.2598 158.98 26.6946C158.791 26.1294 158.723 25.5312 158.78 24.9382ZM165.459 24.9382C165.459 22.9828 164.58 21.8382 163.041 21.8382C161.501 21.8382 160.623 22.9828 160.623 24.9382C160.623 26.8936 161.493 28.0446 163.041 28.0446C164.588 28.0446 165.46 26.9033 165.46 24.9382H165.459Z" fill="white"/>
<path d="M169.681 20.4309H171.396V21.864H171.53C171.755 21.3482 172.135 20.9156 172.618 20.6266C173.101 20.3376 173.662 20.2066 174.223 20.2519C174.663 20.2189 175.103 20.2851 175.513 20.4456C175.924 20.6061 176.292 20.8568 176.592 21.1791C176.892 21.5014 177.116 21.8871 177.247 22.3076C177.377 22.7281 177.412 23.1726 177.348 23.6082V29.4551H175.574V24.0596C175.574 22.6087 174.944 21.8882 173.627 21.8882C173.328 21.8727 173.029 21.9223 172.751 22.0335C172.473 22.1448 172.223 22.315 172.017 22.5325C171.811 22.7499 171.655 23.0095 171.559 23.2932C171.463 23.5768 171.43 23.8779 171.462 24.1757V29.4551H169.689L169.681 20.4309Z" fill="white"/>
<path d="M187.408 18.1855V20.473H189.363V21.9738H187.408V26.6101C187.408 27.5547 187.798 27.969 188.685 27.969C188.911 27.9686 189.138 27.9551 189.363 27.9287V29.4118C189.044 29.4687 188.72 29.4989 188.396 29.5021C186.415 29.5021 185.626 28.8057 185.626 27.0663V21.9722H184.193V20.473H185.626V18.1855H187.408Z" fill="white"/>
<path d="M191.788 16.9087H193.561V21.8818H193.702C193.939 21.363 194.331 20.93 194.823 20.6415C195.315 20.3531 195.885 20.2233 196.453 20.2698C196.89 20.246 197.327 20.3189 197.732 20.4833C198.138 20.6477 198.502 20.8995 198.799 21.2209C199.096 21.5422 199.318 21.9251 199.45 22.3423C199.582 22.7594 199.62 23.2005 199.561 23.6341V29.4552H197.778V24.0694C197.778 22.6282 197.108 21.898 195.844 21.898C195.538 21.8728 195.23 21.9148 194.942 22.0211C194.654 22.1274 194.392 22.2953 194.176 22.5132C193.959 22.7311 193.793 22.9936 193.688 23.2825C193.584 23.5713 193.544 23.8795 193.571 24.1854V29.4552H191.788V16.9087Z" fill="white"/>
<path d="M209.946 27.0145C209.704 27.8394 209.18 28.553 208.465 29.0304C207.75 29.5078 206.89 29.7186 206.035 29.626C205.441 29.6416 204.85 29.5277 204.304 29.2922C203.758 29.0567 203.27 28.7052 202.873 28.2621C202.476 27.819 202.181 27.295 202.007 26.7263C201.833 26.1576 201.785 25.5579 201.866 24.9688C201.787 24.3778 201.836 23.7767 202.009 23.2061C202.182 22.6355 202.476 22.1089 202.871 21.6618C203.265 21.2147 203.751 20.8575 204.296 20.6146C204.84 20.3716 205.431 20.2485 206.027 20.2536C208.539 20.2536 210.057 21.9688 210.057 24.8027V25.4234H203.682V25.5233C203.655 25.854 203.697 26.1867 203.806 26.5001C203.915 26.8135 204.088 27.1007 204.314 27.3434C204.54 27.5862 204.815 27.779 205.12 27.9098C205.425 28.0405 205.753 28.1062 206.085 28.1026C206.511 28.1543 206.942 28.0785 207.324 27.8848C207.706 27.691 208.023 27.3881 208.232 27.0145H209.946ZM203.682 24.1128H208.24C208.263 23.81 208.222 23.5058 208.119 23.2198C208.017 22.9339 207.856 22.6725 207.647 22.4523C207.438 22.2322 207.185 22.0583 206.905 21.9417C206.624 21.8251 206.323 21.7684 206.019 21.7753C205.711 21.7714 205.405 21.8292 205.12 21.9453C204.835 22.0614 204.575 22.2334 204.358 22.4513C204.14 22.6691 203.968 22.9283 203.852 23.2137C203.735 23.4991 203.678 23.8048 203.682 24.1128Z" fill="white"/>
</svg>
