<svg width="744" height="491" viewBox="0 0 744 491" fill="none" xmlns="http://www.w3.org/2000/svg">
<rect opacity="0.3" y="171" width="828" height="316" fill="#5282F0"/>
<g filter="url(#filter0_d)">
<rect x="459" y="11" width="177" height="190" rx="10" fill="#F8F8F8"/>
</g>
<circle cx="547" cy="77" r="51" fill="white"/>
<circle cx="546.758" cy="76.7577" r="37.5789" fill="#04A777"/>
<g clip-path="url(#clip0)">
<path d="M545.176 76.6846H528.215V62.8096H545.176V76.6846Z" fill="white"/>
<path d="M565.215 86.1159H547.64V62.8096H565.213V86.1159H565.215Z" fill="white"/>
<path d="M545.176 99.8092H528.215V79.7676H545.176V99.8092Z" fill="white"/>
<path d="M565.215 99.8064H547.64V89.0781H565.213V99.8064H565.215Z" fill="white"/>
</g>
<path d="M507.25 159.608H511.234C513.079 159.608 514.509 160.104 515.522 161.096C516.535 162.088 517.042 163.485 517.042 165.288C517.042 167.101 516.535 168.509 515.522 169.512C514.509 170.504 513.079 171 511.234 171H507.25V159.608ZM511.138 169.624C513.943 169.624 515.346 168.179 515.346 165.288C515.346 162.419 513.943 160.984 511.138 160.984H508.898V169.624H511.138ZM526.529 162.936V171H524.929V169.624C524.694 170.104 524.342 170.472 523.873 170.728C523.414 170.984 522.875 171.112 522.257 171.112C521.542 171.112 520.913 170.941 520.369 170.6C519.835 170.259 519.419 169.779 519.121 169.16C518.822 168.531 518.673 167.8 518.673 166.968C518.673 166.136 518.822 165.4 519.121 164.76C519.43 164.12 519.857 163.624 520.401 163.272C520.945 162.92 521.563 162.744 522.257 162.744C522.875 162.744 523.414 162.877 523.873 163.144C524.331 163.4 524.683 163.768 524.929 164.248V162.936H526.529ZM522.641 169.832C523.366 169.832 523.926 169.581 524.321 169.08C524.726 168.568 524.929 167.853 524.929 166.936C524.929 166.008 524.726 165.293 524.321 164.792C523.926 164.291 523.361 164.04 522.625 164.04C521.899 164.04 521.329 164.301 520.913 164.824C520.507 165.336 520.305 166.051 520.305 166.968C520.305 167.875 520.507 168.579 520.913 169.08C521.329 169.581 521.905 169.832 522.641 169.832ZM531.719 171.112C530.311 171.112 529.201 170.771 528.391 170.088L528.871 168.92C529.713 169.56 530.679 169.88 531.767 169.88C532.321 169.88 532.743 169.789 533.031 169.608C533.319 169.416 533.463 169.149 533.463 168.808C533.463 168.52 533.361 168.296 533.159 168.136C532.967 167.965 532.636 167.821 532.167 167.704L530.823 167.384C530.119 167.235 529.58 166.973 529.207 166.6C528.844 166.216 528.663 165.741 528.663 165.176C528.663 164.451 528.951 163.864 529.527 163.416C530.113 162.968 530.887 162.744 531.847 162.744C532.423 162.744 532.967 162.835 533.479 163.016C534.001 163.197 534.444 163.453 534.807 163.784L534.311 164.92C533.532 164.301 532.711 163.992 531.847 163.992C531.324 163.992 530.919 164.093 530.631 164.296C530.343 164.488 530.199 164.76 530.199 165.112C530.199 165.389 530.289 165.613 530.471 165.784C530.652 165.955 530.94 166.088 531.335 166.184L532.711 166.52C533.479 166.691 534.044 166.963 534.407 167.336C534.78 167.699 534.967 168.173 534.967 168.76C534.967 169.485 534.673 170.061 534.087 170.488C533.511 170.904 532.721 171.112 531.719 171.112ZM541.16 162.744C543.09 162.744 544.056 163.821 544.056 165.976V171H542.44V166.072C542.44 165.368 542.301 164.856 542.024 164.536C541.757 164.216 541.325 164.056 540.728 164.056C540.045 164.056 539.496 164.269 539.08 164.696C538.674 165.123 538.472 165.693 538.472 166.408V171H536.872V159.224H538.472V164.184C538.738 163.715 539.106 163.357 539.576 163.112C540.045 162.867 540.573 162.744 541.16 162.744ZM550.628 162.744C551.332 162.744 551.956 162.915 552.5 163.256C553.044 163.597 553.465 164.083 553.764 164.712C554.063 165.341 554.212 166.072 554.212 166.904C554.212 167.736 554.057 168.472 553.748 169.112C553.449 169.741 553.028 170.232 552.484 170.584C551.94 170.936 551.321 171.112 550.628 171.112C550.009 171.112 549.465 170.984 548.996 170.728C548.537 170.461 548.191 170.083 547.956 169.592V171H546.356V159.224H547.956V164.264C548.191 163.784 548.537 163.411 548.996 163.144C549.465 162.877 550.009 162.744 550.628 162.744ZM550.26 169.832C550.985 169.832 551.551 169.576 551.956 169.064C552.361 168.541 552.564 167.821 552.564 166.904C552.564 165.997 552.361 165.293 551.956 164.792C551.551 164.291 550.985 164.04 550.26 164.04C549.524 164.04 548.953 164.291 548.548 164.792C548.153 165.293 547.956 166.008 547.956 166.936C547.956 167.864 548.153 168.579 548.548 169.08C548.953 169.581 549.524 169.832 550.26 169.832ZM559.578 171.112C558.789 171.112 558.095 170.941 557.498 170.6C556.901 170.259 556.437 169.773 556.106 169.144C555.786 168.515 555.626 167.779 555.626 166.936C555.626 166.093 555.786 165.357 556.106 164.728C556.437 164.088 556.901 163.597 557.498 163.256C558.095 162.915 558.789 162.744 559.578 162.744C560.357 162.744 561.045 162.915 561.642 163.256C562.239 163.597 562.698 164.088 563.018 164.728C563.349 165.357 563.514 166.093 563.514 166.936C563.514 167.779 563.349 168.515 563.018 169.144C562.698 169.773 562.239 170.259 561.642 170.6C561.045 170.941 560.357 171.112 559.578 171.112ZM559.562 169.832C560.309 169.832 560.879 169.587 561.274 169.096C561.669 168.605 561.866 167.885 561.866 166.936C561.866 166.008 561.663 165.293 561.258 164.792C560.863 164.291 560.303 164.04 559.578 164.04C558.842 164.04 558.271 164.291 557.866 164.792C557.461 165.293 557.258 166.008 557.258 166.936C557.258 167.885 557.455 168.605 557.85 169.096C558.255 169.587 558.826 169.832 559.562 169.832ZM572.779 162.936V171H571.179V169.624C570.944 170.104 570.592 170.472 570.123 170.728C569.664 170.984 569.125 171.112 568.507 171.112C567.792 171.112 567.163 170.941 566.619 170.6C566.085 170.259 565.669 169.779 565.371 169.16C565.072 168.531 564.923 167.8 564.923 166.968C564.923 166.136 565.072 165.4 565.371 164.76C565.68 164.12 566.107 163.624 566.651 163.272C567.195 162.92 567.813 162.744 568.507 162.744C569.125 162.744 569.664 162.877 570.123 163.144C570.581 163.4 570.933 163.768 571.179 164.248V162.936H572.779ZM568.891 169.832C569.616 169.832 570.176 169.581 570.571 169.08C570.976 168.568 571.179 167.853 571.179 166.936C571.179 166.008 570.976 165.293 570.571 164.792C570.176 164.291 569.611 164.04 568.875 164.04C568.149 164.04 567.579 164.301 567.163 164.824C566.757 165.336 566.555 166.051 566.555 166.968C566.555 167.875 566.757 168.579 567.163 169.08C567.579 169.581 568.155 169.832 568.891 169.832ZM579.169 162.744C579.414 162.744 579.67 162.781 579.937 162.856L579.905 164.328C579.617 164.221 579.302 164.168 578.961 164.168C578.225 164.168 577.67 164.392 577.297 164.84C576.934 165.277 576.753 165.832 576.753 166.504V171H575.153V165.208C575.153 164.365 575.11 163.608 575.025 162.936H576.529L576.673 164.392C576.886 163.859 577.217 163.453 577.665 163.176C578.113 162.888 578.614 162.744 579.169 162.744ZM588.388 159.224V171H586.788V169.624C586.553 170.104 586.201 170.472 585.732 170.728C585.273 170.984 584.735 171.112 584.116 171.112C583.423 171.112 582.804 170.936 582.26 170.584C581.716 170.232 581.289 169.741 580.98 169.112C580.681 168.472 580.532 167.736 580.532 166.904C580.532 166.072 580.681 165.341 580.98 164.712C581.279 164.083 581.695 163.597 582.228 163.256C582.772 162.915 583.401 162.744 584.116 162.744C584.724 162.744 585.257 162.872 585.716 163.128C586.185 163.384 586.537 163.747 586.772 164.216V159.224H588.388ZM584.484 169.832C585.22 169.832 585.785 169.581 586.18 169.08C586.585 168.568 586.788 167.853 586.788 166.936C586.788 166.019 586.585 165.309 586.18 164.808C585.785 164.296 585.225 164.04 584.5 164.04C583.764 164.04 583.188 164.291 582.772 164.792C582.367 165.293 582.164 165.997 582.164 166.904C582.164 167.821 582.367 168.541 582.772 169.064C583.188 169.576 583.759 169.832 584.484 169.832Z" fill="#1C1D24"/>
<g filter="url(#filter1_d)">
<rect x="257" y="69" width="177" height="190" rx="10" fill="#F8F8F8"/>
</g>
<circle cx="345" cy="135" r="51" fill="white"/>
<circle cx="344.998" cy="135.001" r="37.5789" fill="#FF424D"/>
<path fill-rule="evenodd" clip-rule="evenodd" d="M345 135.007L339.748 135.012C338.279 135.187 337.279 137.213 338.349 138.102C339.316 138.799 339.947 139.931 339.947 141.212C339.946 143.327 338.231 145.04 336.117 145.04C334.001 145.038 332.288 143.325 332.289 141.21C332.289 139.928 332.922 138.796 333.889 138.101C334.936 137.231 333.954 135.271 332.581 135.02L327.238 135.026V117.237H345.002V122.557C344.986 123.954 342.996 125.043 342.139 124.013C341.495 123.117 340.448 122.532 339.263 122.531C337.306 122.531 335.719 124.116 335.718 126.074C335.718 128.03 337.303 129.617 339.26 129.617C340.446 129.618 341.493 129.034 342.137 128.139C342.999 127.104 345.003 128.157 345.002 129.616V129.679V134.995L350.254 134.989C351.723 134.815 352.723 132.789 351.654 131.9C350.686 131.203 350.055 130.071 350.055 128.789C350.057 126.675 351.771 124.962 353.886 124.962C356.001 124.963 357.714 126.677 357.714 128.792C357.713 130.074 357.081 131.206 356.113 131.901C355.067 132.77 356.048 134.73 357.421 134.982L362.764 134.976V152.764H345V147.445C345.016 146.048 347.006 144.959 347.864 145.989C348.507 146.885 349.554 147.47 350.74 147.47C352.697 147.471 354.283 145.886 354.284 143.928C354.285 141.972 352.699 140.384 350.742 140.384C349.556 140.384 348.509 140.968 347.865 141.862C347.003 142.898 344.999 141.845 345 140.385V140.323V135.007Z" fill="white"/>
<path d="M311.649 229.128C310.55 229.128 309.59 228.893 308.769 228.424C307.958 227.944 307.334 227.267 306.897 226.392C306.459 225.517 306.241 224.483 306.241 223.288C306.241 222.104 306.459 221.075 306.897 220.2C307.334 219.325 307.958 218.653 308.769 218.184C309.59 217.715 310.55 217.48 311.649 217.48C312.427 217.48 313.147 217.603 313.809 217.848C314.481 218.083 315.046 218.429 315.505 218.888L314.929 220.104C314.395 219.667 313.867 219.352 313.345 219.16C312.833 218.957 312.273 218.856 311.665 218.856C310.481 218.856 309.563 219.24 308.913 220.008C308.273 220.776 307.953 221.869 307.953 223.288C307.953 224.717 308.273 225.821 308.913 226.6C309.563 227.368 310.481 227.752 311.665 227.752C312.273 227.752 312.833 227.656 313.345 227.464C313.867 227.261 314.395 226.941 314.929 226.504L315.505 227.72C315.046 228.179 314.481 228.531 313.809 228.776C313.147 229.011 312.427 229.128 311.649 229.128ZM324.654 220.936V229H323.054V227.624C322.819 228.104 322.467 228.472 321.998 228.728C321.539 228.984 321 229.112 320.382 229.112C319.667 229.112 319.038 228.941 318.494 228.6C317.96 228.259 317.544 227.779 317.246 227.16C316.947 226.531 316.798 225.8 316.798 224.968C316.798 224.136 316.947 223.4 317.246 222.76C317.555 222.12 317.982 221.624 318.526 221.272C319.07 220.92 319.688 220.744 320.382 220.744C321 220.744 321.539 220.877 321.998 221.144C322.456 221.4 322.808 221.768 323.054 222.248V220.936H324.654ZM320.766 227.832C321.491 227.832 322.051 227.581 322.446 227.08C322.851 226.568 323.054 225.853 323.054 224.936C323.054 224.008 322.851 223.293 322.446 222.792C322.051 222.291 321.486 222.04 320.75 222.04C320.024 222.04 319.454 222.301 319.038 222.824C318.632 223.336 318.43 224.051 318.43 224.968C318.43 225.875 318.632 226.579 319.038 227.08C319.454 227.581 320.03 227.832 320.766 227.832ZM329.124 222.184V226.232C329.124 226.787 329.241 227.181 329.476 227.416C329.721 227.64 330.057 227.752 330.484 227.752C330.761 227.752 331.044 227.709 331.332 227.624V228.936C330.98 229.053 330.58 229.112 330.132 229.112C329.3 229.112 328.654 228.877 328.196 228.408C327.737 227.939 327.508 227.256 327.508 226.36V222.184H325.94V220.936H327.508V218.92L329.124 218.36V220.936H331.348V222.184H329.124ZM339.72 225H333.96C334.014 226.888 334.872 227.832 336.536 227.832C337.464 227.832 338.312 227.528 339.08 226.92L339.576 228.072C339.214 228.392 338.75 228.648 338.184 228.84C337.63 229.021 337.07 229.112 336.504 229.112C335.214 229.112 334.2 228.744 333.464 228.008C332.728 227.261 332.36 226.243 332.36 224.952C332.36 224.131 332.52 223.4 332.84 222.76C333.171 222.12 333.63 221.624 334.216 221.272C334.803 220.92 335.47 220.744 336.216 220.744C337.304 220.744 338.158 221.096 338.776 221.8C339.406 222.504 339.72 223.48 339.72 224.728V225ZM336.248 221.944C335.64 221.944 335.144 222.125 334.76 222.488C334.376 222.851 334.131 223.368 334.024 224.04H338.296C338.232 223.357 338.024 222.84 337.672 222.488C337.32 222.125 336.846 221.944 336.248 221.944ZM349.015 220.936V228.856C349.015 230.083 348.689 231.005 348.039 231.624C347.399 232.253 346.444 232.568 345.175 232.568C343.948 232.568 342.876 232.301 341.959 231.768L342.231 230.504C342.732 230.771 343.212 230.968 343.671 231.096C344.14 231.224 344.636 231.288 345.159 231.288C346.663 231.288 347.415 230.52 347.415 228.984V227.24C347.169 227.709 346.812 228.083 346.343 228.36C345.873 228.627 345.329 228.76 344.711 228.76C344.007 228.76 343.377 228.595 342.823 228.264C342.279 227.933 341.852 227.464 341.543 226.856C341.244 226.248 341.095 225.549 341.095 224.76C341.095 223.971 341.244 223.272 341.543 222.664C341.852 222.056 342.279 221.587 342.823 221.256C343.377 220.915 344.007 220.744 344.711 220.744C345.329 220.744 345.873 220.877 346.343 221.144C346.812 221.4 347.169 221.768 347.415 222.248V220.936H349.015ZM345.079 227.464C345.804 227.464 346.375 227.224 346.791 226.744C347.207 226.264 347.415 225.603 347.415 224.76C347.415 223.917 347.207 223.256 346.791 222.776C346.385 222.285 345.815 222.04 345.079 222.04C344.353 222.04 343.777 222.285 343.351 222.776C342.935 223.256 342.727 223.917 342.727 224.76C342.727 225.592 342.935 226.253 343.351 226.744C343.777 227.224 344.353 227.464 345.079 227.464ZM354.859 229.112C354.07 229.112 353.376 228.941 352.779 228.6C352.182 228.259 351.718 227.773 351.387 227.144C351.067 226.515 350.907 225.779 350.907 224.936C350.907 224.093 351.067 223.357 351.387 222.728C351.718 222.088 352.182 221.597 352.779 221.256C353.376 220.915 354.07 220.744 354.859 220.744C355.638 220.744 356.326 220.915 356.923 221.256C357.52 221.597 357.979 222.088 358.299 222.728C358.63 223.357 358.795 224.093 358.795 224.936C358.795 225.779 358.63 226.515 358.299 227.144C357.979 227.773 357.52 228.259 356.923 228.6C356.326 228.941 355.638 229.112 354.859 229.112ZM354.843 227.832C355.59 227.832 356.16 227.587 356.555 227.096C356.95 226.605 357.147 225.885 357.147 224.936C357.147 224.008 356.944 223.293 356.539 222.792C356.144 222.291 355.584 222.04 354.859 222.04C354.123 222.04 353.552 222.291 353.147 222.792C352.742 223.293 352.539 224.008 352.539 224.936C352.539 225.885 352.736 226.605 353.131 227.096C353.536 227.587 354.107 227.832 354.843 227.832ZM364.7 220.744C364.945 220.744 365.201 220.781 365.468 220.856L365.436 222.328C365.148 222.221 364.833 222.168 364.492 222.168C363.756 222.168 363.201 222.392 362.828 222.84C362.465 223.277 362.284 223.832 362.284 224.504V229H360.684V223.208C360.684 222.365 360.641 221.608 360.556 220.936H362.06L362.204 222.392C362.417 221.859 362.748 221.453 363.196 221.176C363.644 220.888 364.145 220.744 364.7 220.744ZM366.7 220.936H368.3V229H366.7V220.936ZM368.428 217.416V219.112H366.556V217.416H368.428ZM377.548 225H371.788C371.842 226.888 372.7 227.832 374.364 227.832C375.292 227.832 376.14 227.528 376.908 226.92L377.404 228.072C377.042 228.392 376.578 228.648 376.012 228.84C375.458 229.021 374.898 229.112 374.332 229.112C373.042 229.112 372.028 228.744 371.292 228.008C370.556 227.261 370.188 226.243 370.188 224.952C370.188 224.131 370.348 223.4 370.668 222.76C370.999 222.12 371.458 221.624 372.044 221.272C372.631 220.92 373.298 220.744 374.044 220.744C375.132 220.744 375.986 221.096 376.604 221.8C377.234 222.504 377.548 223.48 377.548 224.728V225ZM374.076 221.944C373.468 221.944 372.972 222.125 372.588 222.488C372.204 222.851 371.959 223.368 371.852 224.04H376.124C376.06 223.357 375.852 222.84 375.5 222.488C375.148 222.125 374.674 221.944 374.076 221.944ZM382.219 229.112C380.811 229.112 379.701 228.771 378.891 228.088L379.371 226.92C380.213 227.56 381.179 227.88 382.267 227.88C382.821 227.88 383.243 227.789 383.531 227.608C383.819 227.416 383.963 227.149 383.963 226.808C383.963 226.52 383.861 226.296 383.659 226.136C383.467 225.965 383.136 225.821 382.667 225.704L381.323 225.384C380.619 225.235 380.08 224.973 379.707 224.6C379.344 224.216 379.163 223.741 379.163 223.176C379.163 222.451 379.451 221.864 380.027 221.416C380.613 220.968 381.387 220.744 382.347 220.744C382.923 220.744 383.467 220.835 383.979 221.016C384.501 221.197 384.944 221.453 385.307 221.784L384.811 222.92C384.032 222.301 383.211 221.992 382.347 221.992C381.824 221.992 381.419 222.093 381.131 222.296C380.843 222.488 380.699 222.76 380.699 223.112C380.699 223.389 380.789 223.613 380.971 223.784C381.152 223.955 381.44 224.088 381.835 224.184L383.211 224.52C383.979 224.691 384.544 224.963 384.907 225.336C385.28 225.699 385.467 226.173 385.467 226.76C385.467 227.485 385.173 228.061 384.587 228.488C384.011 228.904 383.221 229.112 382.219 229.112Z" fill="#1C1D24"/>
<g filter="url(#filter2_d)">
<rect x="275" y="284" width="177" height="190" rx="10" fill="#F8F8F8"/>
</g>
<circle cx="363" cy="350" r="51" fill="white"/>
<circle cx="362.998" cy="350.003" r="37.5789" fill="#5158BB"/>
<path fill-rule="evenodd" clip-rule="evenodd" d="M348.798 343.807L361.816 351.246V366.999L348.798 359.56V343.807ZM377.204 343.807L364.186 351.246V366.999L377.204 359.56V343.807ZM363.008 349.073L348.943 341.036L363.008 332.999L377.059 341.036L363.008 349.073Z" fill="white"/>
<path d="M307.228 442H305.708L310.748 430.608H312.012L317.068 442H315.564L311.148 431.712H311.644L307.228 442ZM307.868 439.136L308.396 437.92H314.348L314.876 439.136H307.868ZM318.497 442V430.224H319.953V442H318.497ZM322.388 442V430.224H323.844V442H322.388ZM330.657 442V430.608H331.873L336.417 440.96H335.777L340.289 430.608H341.489V442H340.145V432.624L340.641 432.688L336.593 442H335.569L331.457 432.688L332.001 432.624L332.017 442H330.657ZM343.723 445.632L343.419 444.512C343.91 444.395 344.321 444.256 344.651 444.096C344.993 443.947 345.275 443.749 345.499 443.504C345.723 443.269 345.921 442.955 346.091 442.56L346.619 441.36L346.955 440.88L349.819 433.952H351.275L347.515 442.688C347.227 443.349 346.897 443.877 346.523 444.272C346.15 444.677 345.729 444.981 345.259 445.184C344.801 445.387 344.289 445.536 343.723 445.632ZM346.635 442.448L343.003 433.952H344.523L347.355 440.88L346.635 442.448ZM357.001 442V430.608H361.625C362.809 430.608 363.732 430.896 364.393 431.472C365.054 432.037 365.385 432.821 365.385 433.824C365.385 434.805 365.049 435.589 364.377 436.176C363.716 436.752 362.798 437.04 361.625 437.04H358.473V442H357.001ZM358.473 435.84H361.481C362.302 435.84 362.916 435.664 363.321 435.312C363.737 434.96 363.945 434.464 363.945 433.824C363.945 433.173 363.737 432.677 363.321 432.336C362.916 431.984 362.302 431.808 361.481 431.808H358.473V435.84ZM367.154 442V436.208C367.154 435.835 367.143 435.461 367.122 435.088C367.111 434.704 367.079 434.325 367.026 433.952H368.402L368.578 435.952L368.402 435.888C368.54 435.184 368.855 434.656 369.346 434.304C369.847 433.941 370.407 433.76 371.026 433.76C371.175 433.76 371.308 433.771 371.426 433.792C371.554 433.803 371.671 433.824 371.778 433.856L371.762 435.184C371.495 435.088 371.196 435.04 370.866 435.04C370.322 435.04 369.884 435.157 369.554 435.392C369.223 435.627 368.983 435.925 368.834 436.288C368.684 436.651 368.61 437.04 368.61 437.456V442H367.154ZM376.296 442.112C375.517 442.112 374.834 441.941 374.248 441.6C373.672 441.259 373.224 440.779 372.904 440.16C372.584 439.531 372.424 438.789 372.424 437.936C372.424 437.093 372.584 436.357 372.904 435.728C373.224 435.088 373.672 434.597 374.248 434.256C374.834 433.915 375.517 433.744 376.296 433.744C377.085 433.744 377.768 433.915 378.344 434.256C378.92 434.597 379.368 435.088 379.688 435.728C380.008 436.357 380.168 437.093 380.168 437.936C380.168 438.789 380.008 439.531 379.688 440.16C379.368 440.779 378.92 441.259 378.344 441.6C377.768 441.941 377.085 442.112 376.296 442.112ZM376.296 440.928C377.064 440.928 377.656 440.677 378.072 440.176C378.488 439.664 378.696 438.917 378.696 437.936C378.696 436.965 378.482 436.224 378.056 435.712C377.64 435.2 377.053 434.944 376.296 434.944C375.549 434.944 374.962 435.2 374.536 435.712C374.109 436.224 373.896 436.965 373.896 437.936C373.896 438.917 374.104 439.664 374.52 440.176C374.936 440.677 375.528 440.928 376.296 440.928ZM389.37 442H387.93V439.872L388.122 440.064C387.941 440.715 387.594 441.221 387.082 441.584C386.57 441.936 385.951 442.112 385.226 442.112C384.533 442.112 383.914 441.941 383.37 441.6C382.837 441.248 382.415 440.757 382.106 440.128C381.807 439.488 381.658 438.747 381.658 437.904C381.658 437.061 381.807 436.331 382.106 435.712C382.405 435.083 382.821 434.597 383.354 434.256C383.898 433.915 384.522 433.744 385.226 433.744C385.951 433.744 386.57 433.925 387.082 434.288C387.594 434.651 387.941 435.152 388.122 435.792L387.914 435.984V430.224H389.37V442ZM385.546 440.928C386.303 440.928 386.89 440.672 387.306 440.16C387.722 439.637 387.93 438.896 387.93 437.936C387.93 436.987 387.722 436.251 387.306 435.728C386.901 435.205 386.314 434.944 385.546 434.944C384.789 434.944 384.197 435.205 383.77 435.728C383.343 436.24 383.13 436.965 383.13 437.904C383.13 438.864 383.343 439.611 383.77 440.144C384.197 440.667 384.789 440.928 385.546 440.928ZM394.658 442.112C393.687 442.112 392.957 441.845 392.466 441.312C391.986 440.768 391.746 439.968 391.746 438.912V433.952H393.202V438.896C393.202 439.589 393.341 440.101 393.618 440.432C393.906 440.752 394.343 440.912 394.93 440.912C395.613 440.912 396.162 440.693 396.578 440.256C396.994 439.808 397.202 439.216 397.202 438.48V433.952H398.674V442H397.25V440.272L397.442 440.192C397.229 440.821 396.871 441.301 396.37 441.632C395.869 441.952 395.298 442.112 394.658 442.112ZM404.531 442.112C403.72 442.112 403.022 441.941 402.435 441.6C401.859 441.259 401.411 440.779 401.091 440.16C400.771 439.541 400.611 438.811 400.611 437.968C400.611 437.136 400.771 436.4 401.091 435.76C401.422 435.12 401.886 434.624 402.483 434.272C403.08 433.92 403.784 433.744 404.595 433.744C405.15 433.744 405.683 433.84 406.195 434.032C406.707 434.213 407.128 434.469 407.459 434.8L406.995 435.856C406.611 435.557 406.227 435.333 405.843 435.184C405.47 435.024 405.08 434.944 404.675 434.944C403.896 434.944 403.272 435.205 402.803 435.728C402.344 436.251 402.115 436.997 402.115 437.968C402.115 438.917 402.344 439.648 402.803 440.16C403.262 440.672 403.891 440.928 404.691 440.928C405.075 440.928 405.459 440.853 405.843 440.704C406.227 440.555 406.611 440.325 406.995 440.016L407.459 441.072C407.118 441.392 406.686 441.648 406.163 441.84C405.64 442.021 405.096 442.112 404.531 442.112ZM407.956 435.072V433.952H413.236V435.072H407.956ZM413.204 440.736V441.952C413.022 442.005 412.836 442.043 412.644 442.064C412.462 442.096 412.265 442.112 412.052 442.112C411.262 442.112 410.638 441.888 410.18 441.44C409.732 440.992 409.508 440.331 409.508 439.456V431.904L410.964 431.392V439.296C410.964 439.712 411.022 440.037 411.14 440.272C411.268 440.496 411.433 440.656 411.636 440.752C411.849 440.837 412.089 440.88 412.356 440.88C412.505 440.88 412.644 440.869 412.772 440.848C412.9 440.827 413.044 440.789 413.204 440.736ZM417.547 442.112C416.171 442.112 415.077 441.765 414.267 441.072L414.731 440.016C415.157 440.347 415.6 440.592 416.059 440.752C416.528 440.901 417.04 440.976 417.595 440.976C418.171 440.976 418.608 440.88 418.907 440.688C419.216 440.485 419.371 440.197 419.371 439.824C419.371 439.525 419.264 439.291 419.051 439.12C418.848 438.939 418.507 438.789 418.027 438.672L416.683 438.352C415.989 438.203 415.456 437.936 415.083 437.552C414.72 437.168 414.539 436.704 414.539 436.16C414.539 435.691 414.667 435.275 414.923 434.912C415.189 434.549 415.557 434.267 416.027 434.064C416.496 433.851 417.051 433.744 417.691 433.744C418.256 433.744 418.789 433.835 419.291 434.016C419.803 434.197 420.235 434.459 420.587 434.8L420.123 435.84C419.739 435.52 419.344 435.285 418.939 435.136C418.533 434.976 418.112 434.896 417.674 434.896C417.131 434.896 416.704 435.003 416.395 435.216C416.096 435.429 415.947 435.717 415.947 436.08C415.947 436.389 416.043 436.635 416.235 436.816C416.427 436.997 416.731 437.141 417.147 437.248L418.507 437.584C419.275 437.744 419.84 438.011 420.203 438.384C420.565 438.747 420.747 439.216 420.747 439.792C420.747 440.496 420.459 441.061 419.883 441.488C419.307 441.904 418.528 442.112 417.547 442.112Z" fill="#1C1D24"/>
<g filter="url(#filter3_d)">
<rect x="477" y="226" width="177" height="190" rx="10" fill="#F8F8F8"/>
</g>
<circle cx="565" cy="292" r="51" fill="white"/>
<circle cx="564.998" cy="292.003" r="37.5789" fill="#F49F0A"/>
<path fill-rule="evenodd" clip-rule="evenodd" d="M567.105 280.054C567.12 281.579 567.124 281.923 566.482 282.564C563.533 285.651 552.147 285.719 549.13 282.633C548.718 282.222 548.512 281.81 548.512 281.33V279.135C548.512 277.146 552.696 275.569 557.84 275.5C562.984 275.5 567.099 277.146 567.099 279.135C567.099 279.483 567.102 279.787 567.105 280.054ZM549.13 287.297C549.747 287.914 550.776 288.463 552.148 288.874C557.017 290.383 564.219 289.56 566.482 287.297C566.894 286.885 567.1 286.474 567.1 285.994V284.005C563.122 287.16 552.491 287.16 548.513 284.005V285.925V286.062C548.513 286.474 548.718 286.885 549.13 287.297ZM568.538 285.174C569.635 284.968 570.87 284.899 572.173 284.899C577.317 284.899 581.432 286.545 581.501 288.466V290.592C581.501 291.072 581.295 291.484 580.884 291.895C578.963 293.884 573.065 294.707 568.538 293.953C568.538 293.843 568.54 293.736 568.541 293.631C568.549 293.017 568.557 292.481 568.264 291.895C568.555 291.254 568.549 290.811 568.541 290.186V290.186C568.54 290.076 568.538 289.961 568.538 289.838C568.538 289.637 568.54 289.454 568.541 289.285C568.549 288.36 568.554 287.869 568.264 287.231C568.47 286.82 568.538 286.408 568.538 285.928V285.174ZM568.469 295.457C568.469 295.868 568.332 296.28 568.194 296.623C568.4 296.966 568.469 297.377 568.469 297.789V297.857V298.612C569.566 298.818 570.801 298.886 572.104 298.886C574.642 298.886 579.031 298.338 580.814 296.554C581.226 296.143 581.432 295.731 581.432 295.251V293.194C581.02 293.536 580.471 293.879 579.854 294.154C576.905 295.731 572.241 296.074 568.469 295.457ZM568.194 301.356C568.332 301.013 568.469 300.601 568.469 300.19C572.241 300.739 576.905 300.396 579.854 299.024C580.471 298.75 581.02 298.407 581.432 298.064V300.053C581.432 300.533 581.226 300.944 580.814 301.356C578.894 303.345 573.201 304.237 568.469 303.413V302.659C568.469 302.179 568.4 301.767 568.194 301.356ZM566.686 307.669C567.783 306.915 568.469 306.023 568.469 304.857C573.202 305.612 578.826 304.857 581.432 302.731V304.72C581.432 307.738 572.584 309.384 566.686 307.669ZM567.031 302.731C564.768 304.514 560.721 305.132 557.772 305.132C554.137 305.132 550.502 304.309 548.513 302.731V304.72C548.513 306.709 552.696 308.355 557.772 308.355C562.71 308.355 567.031 306.778 567.031 304.72V302.731ZM566.481 301.356C564.835 303.071 560.72 303.688 557.771 303.688C553.793 303.688 550.432 302.728 549.197 301.424C548.786 301.013 548.58 300.601 548.58 300.121V299.984V298.064C552.627 301.356 563.395 301.15 567.099 298.064V298.132V300.053C567.099 300.533 566.893 300.944 566.481 301.356ZM549.128 296.624C552.145 299.779 563.599 299.642 566.48 296.624C566.892 296.213 567.097 295.801 567.097 295.321V293.401V293.332C563.257 296.556 552.557 296.556 548.579 293.332V295.321C548.51 295.801 548.716 296.282 549.128 296.624ZM566.481 291.962C563.395 295.117 552.078 294.98 549.129 291.962C548.486 291.32 548.491 290.926 548.506 289.509C548.509 289.263 548.512 288.985 548.512 288.67C552.627 291.962 563.326 291.757 567.099 288.67V288.739V290.659C567.099 291.139 566.893 291.551 566.481 291.962Z" fill="white"/>
<path d="M510.509 377V365.608H511.629L518.733 375.032L518.333 375.144V365.608H519.741V377H518.605L511.517 367.592L511.885 367.464V377H510.509ZM528.974 376.056C528.622 376.387 528.168 376.648 527.614 376.84C527.059 377.021 526.494 377.112 525.918 377.112C525.075 377.112 524.35 376.947 523.742 376.616C523.134 376.285 522.664 375.811 522.334 375.192C522.003 374.563 521.838 373.816 521.838 372.952C521.838 372.12 521.998 371.389 522.318 370.76C522.648 370.131 523.102 369.64 523.678 369.288C524.254 368.925 524.915 368.744 525.662 368.744C526.387 368.744 527.006 368.904 527.518 369.224C528.04 369.544 528.435 370.003 528.702 370.6C528.979 371.187 529.118 371.891 529.118 372.712V372.968H523.118V372.072H528.286L527.838 372.648C527.859 371.741 527.683 371.048 527.31 370.568C526.936 370.088 526.392 369.848 525.678 369.848C524.931 369.848 524.344 370.115 523.918 370.648C523.502 371.171 523.294 371.907 523.294 372.856C523.294 373.88 523.518 374.653 523.966 375.176C524.414 375.688 525.075 375.944 525.95 375.944C526.419 375.944 526.867 375.869 527.294 375.72C527.72 375.56 528.126 375.325 528.51 375.016L528.974 376.056ZM533.119 377L530.095 368.952H531.615L534.047 375.848H533.631L536.143 368.952H537.343L539.807 375.848H539.407L541.871 368.952H543.311L540.287 377H538.927L536.319 369.912H537.071L534.479 377H533.119ZM551.994 377V366.856H548.09V365.608H557.402V366.856H553.498V377H551.994ZM560.975 377.112C560.197 377.112 559.514 376.941 558.927 376.6C558.351 376.259 557.903 375.779 557.583 375.16C557.263 374.531 557.103 373.789 557.103 372.936C557.103 372.093 557.263 371.357 557.583 370.728C557.903 370.088 558.351 369.597 558.927 369.256C559.514 368.915 560.197 368.744 560.975 368.744C561.765 368.744 562.447 368.915 563.023 369.256C563.599 369.597 564.047 370.088 564.367 370.728C564.687 371.357 564.847 372.093 564.847 372.936C564.847 373.789 564.687 374.531 564.367 375.16C564.047 375.779 563.599 376.259 563.023 376.6C562.447 376.941 561.765 377.112 560.975 377.112ZM560.975 375.928C561.743 375.928 562.335 375.677 562.751 375.176C563.167 374.664 563.375 373.917 563.375 372.936C563.375 371.965 563.162 371.224 562.735 370.712C562.319 370.2 561.733 369.944 560.975 369.944C560.229 369.944 559.642 370.2 559.215 370.712C558.789 371.224 558.575 371.965 558.575 372.936C558.575 373.917 558.783 374.664 559.199 375.176C559.615 375.677 560.207 375.928 560.975 375.928ZM572.258 377L567.986 372.888L571.954 368.968H573.778L569.362 373.272L569.426 372.424L574.13 377H572.258ZM566.818 377V365.224H568.274V377H566.818ZM581.708 376.056C581.356 376.387 580.903 376.648 580.348 376.84C579.793 377.021 579.228 377.112 578.652 377.112C577.809 377.112 577.084 376.947 576.476 376.616C575.868 376.285 575.399 375.811 575.068 375.192C574.737 374.563 574.572 373.816 574.572 372.952C574.572 372.12 574.732 371.389 575.052 370.76C575.383 370.131 575.836 369.64 576.412 369.288C576.988 368.925 577.649 368.744 578.396 368.744C579.121 368.744 579.74 368.904 580.252 369.224C580.775 369.544 581.169 370.003 581.436 370.6C581.713 371.187 581.852 371.891 581.852 372.712V372.968H575.852V372.072H581.02L580.572 372.648C580.593 371.741 580.417 371.048 580.044 370.568C579.671 370.088 579.127 369.848 578.412 369.848C577.665 369.848 577.079 370.115 576.652 370.648C576.236 371.171 576.028 371.907 576.028 372.856C576.028 373.88 576.252 374.653 576.7 375.176C577.148 375.688 577.809 375.944 578.684 375.944C579.153 375.944 579.601 375.869 580.028 375.72C580.455 375.56 580.86 375.325 581.244 375.016L581.708 376.056ZM583.771 377V371.208C583.771 370.835 583.76 370.461 583.739 370.088C583.728 369.704 583.696 369.325 583.643 368.952H585.019L585.163 370.6L585.003 370.696C585.237 370.067 585.611 369.587 586.123 369.256C586.645 368.915 587.243 368.744 587.915 368.744C589.845 368.744 590.811 369.816 590.811 371.96V377H589.355V372.04C589.355 371.315 589.211 370.787 588.923 370.456C588.645 370.115 588.197 369.944 587.579 369.944C586.864 369.944 586.293 370.168 585.867 370.616C585.44 371.053 585.227 371.645 585.227 372.392V377H583.771ZM593.193 377V368.952H594.649V377H593.193ZM593.065 365.48H594.777V367.064H593.065V365.48ZM596.667 377V375.992L602.027 369.544L602.235 370.072H596.827V368.952H603.339V369.976L597.979 376.408L597.819 375.864H603.515V377H596.667ZM611.864 376.056C611.512 376.387 611.059 376.648 610.504 376.84C609.95 377.021 609.384 377.112 608.808 377.112C607.966 377.112 607.24 376.947 606.632 376.616C606.024 376.285 605.555 375.811 605.224 375.192C604.894 374.563 604.728 373.816 604.728 372.952C604.728 372.12 604.888 371.389 605.208 370.76C605.539 370.131 605.992 369.64 606.568 369.288C607.144 368.925 607.806 368.744 608.552 368.744C609.278 368.744 609.896 368.904 610.408 369.224C610.931 369.544 611.326 370.003 611.592 370.6C611.87 371.187 612.008 371.891 612.008 372.712V372.968H606.008V372.072H611.176L610.728 372.648C610.75 371.741 610.574 371.048 610.2 370.568C609.827 370.088 609.283 369.848 608.568 369.848C607.822 369.848 607.235 370.115 606.808 370.648C606.392 371.171 606.184 371.907 606.184 372.856C606.184 373.88 606.408 374.653 606.856 375.176C607.304 375.688 607.966 375.944 608.84 375.944C609.31 375.944 609.758 375.869 610.184 375.72C610.611 375.56 611.016 375.325 611.4 375.016L611.864 376.056ZM621.159 377H619.719V374.872L619.911 375.064C619.73 375.715 619.383 376.221 618.871 376.584C618.359 376.936 617.74 377.112 617.015 377.112C616.322 377.112 615.703 376.941 615.159 376.6C614.626 376.248 614.204 375.757 613.895 375.128C613.596 374.488 613.447 373.747 613.447 372.904C613.447 372.061 613.596 371.331 613.895 370.712C614.194 370.083 614.61 369.597 615.143 369.256C615.687 368.915 616.311 368.744 617.015 368.744C617.74 368.744 618.359 368.925 618.871 369.288C619.383 369.651 619.73 370.152 619.911 370.792L619.703 370.984V365.224H621.159V377ZM617.335 375.928C618.092 375.928 618.679 375.672 619.095 375.16C619.511 374.637 619.719 373.896 619.719 372.936C619.719 371.987 619.511 371.251 619.095 370.728C618.69 370.205 618.103 369.944 617.335 369.944C616.578 369.944 615.986 370.205 615.559 370.728C615.132 371.24 614.919 371.965 614.919 372.904C614.919 373.864 615.132 374.611 615.559 375.144C615.986 375.667 616.578 375.928 617.335 375.928ZM542.525 398H541.005L546.045 386.608H547.309L552.365 398H550.861L546.445 387.712H546.941L542.525 398ZM543.165 395.136L543.693 393.92H549.645L550.173 395.136H543.165ZM556.468 398.112C555.092 398.112 553.999 397.765 553.188 397.072L553.652 396.016C554.079 396.347 554.522 396.592 554.98 396.752C555.45 396.901 555.962 396.976 556.516 396.976C557.092 396.976 557.53 396.88 557.828 396.688C558.138 396.485 558.292 396.197 558.292 395.824C558.292 395.525 558.186 395.291 557.972 395.12C557.77 394.939 557.428 394.789 556.948 394.672L555.604 394.352C554.911 394.203 554.378 393.936 554.004 393.552C553.642 393.168 553.46 392.704 553.46 392.16C553.46 391.691 553.588 391.275 553.844 390.912C554.111 390.549 554.479 390.267 554.948 390.064C555.418 389.851 555.972 389.744 556.612 389.744C557.178 389.744 557.711 389.835 558.212 390.016C558.724 390.197 559.156 390.459 559.508 390.8L559.044 391.84C558.66 391.52 558.266 391.285 557.86 391.136C557.455 390.976 557.034 390.896 556.596 390.896C556.052 390.896 555.626 391.003 555.316 391.216C555.018 391.429 554.868 391.717 554.868 392.08C554.868 392.389 554.964 392.635 555.156 392.816C555.348 392.997 555.652 393.141 556.068 393.248L557.428 393.584C558.196 393.744 558.762 394.011 559.124 394.384C559.487 394.747 559.668 395.216 559.668 395.792C559.668 396.496 559.38 397.061 558.804 397.488C558.228 397.904 557.45 398.112 556.468 398.112ZM564.422 398.112C563.046 398.112 561.952 397.765 561.142 397.072L561.606 396.016C562.032 396.347 562.475 396.592 562.934 396.752C563.403 396.901 563.915 396.976 564.47 396.976C565.046 396.976 565.483 396.88 565.782 396.688C566.091 396.485 566.246 396.197 566.246 395.824C566.246 395.525 566.139 395.291 565.926 395.12C565.723 394.939 565.382 394.789 564.902 394.672L563.558 394.352C562.864 394.203 562.331 393.936 561.958 393.552C561.595 393.168 561.414 392.704 561.414 392.16C561.414 391.691 561.542 391.275 561.798 390.912C562.064 390.549 562.432 390.267 562.902 390.064C563.371 389.851 563.926 389.744 564.566 389.744C565.131 389.744 565.664 389.835 566.166 390.016C566.678 390.197 567.11 390.459 567.462 390.8L566.998 391.84C566.614 391.52 566.219 391.285 565.814 391.136C565.408 390.976 564.987 390.896 564.549 390.896C564.006 390.896 563.579 391.003 563.27 391.216C562.971 391.429 562.822 391.717 562.822 392.08C562.822 392.389 562.918 392.635 563.11 392.816C563.302 392.997 563.606 393.141 564.022 393.248L565.382 393.584C566.15 393.744 566.715 394.011 567.078 394.384C567.44 394.747 567.622 395.216 567.622 395.792C567.622 396.496 567.334 397.061 566.758 397.488C566.182 397.904 565.403 398.112 564.422 398.112ZM576.263 397.056C575.911 397.387 575.457 397.648 574.903 397.84C574.348 398.021 573.783 398.112 573.207 398.112C572.364 398.112 571.639 397.947 571.031 397.616C570.423 397.285 569.953 396.811 569.623 396.192C569.292 395.563 569.127 394.816 569.127 393.952C569.127 393.12 569.287 392.389 569.607 391.76C569.937 391.131 570.391 390.64 570.967 390.288C571.543 389.925 572.204 389.744 572.951 389.744C573.676 389.744 574.295 389.904 574.807 390.224C575.329 390.544 575.724 391.003 575.991 391.6C576.268 392.187 576.407 392.891 576.407 393.712V393.968H570.407V393.072H575.575L575.127 393.648C575.148 392.741 574.972 392.048 574.599 391.568C574.225 391.088 573.681 390.848 572.967 390.848C572.22 390.848 571.633 391.115 571.207 391.648C570.791 392.171 570.583 392.907 570.583 393.856C570.583 394.88 570.807 395.653 571.255 396.176C571.703 396.688 572.364 396.944 573.239 396.944C573.708 396.944 574.156 396.869 574.583 396.72C575.009 396.56 575.415 396.325 575.799 396.016L576.263 397.056ZM577.159 391.072V389.952H582.439V391.072H577.159ZM582.407 396.736V397.952C582.226 398.005 582.039 398.043 581.847 398.064C581.666 398.096 581.468 398.112 581.255 398.112C580.466 398.112 579.842 397.888 579.383 397.44C578.935 396.992 578.711 396.331 578.711 395.456V387.904L580.167 387.392V395.296C580.167 395.712 580.226 396.037 580.343 396.272C580.471 396.496 580.636 396.656 580.839 396.752C581.052 396.837 581.292 396.88 581.559 396.88C581.708 396.88 581.847 396.869 581.975 396.848C582.103 396.827 582.247 396.789 582.407 396.736ZM586.75 398.112C585.374 398.112 584.28 397.765 583.47 397.072L583.934 396.016C584.36 396.347 584.803 396.592 585.262 396.752C585.731 396.901 586.243 396.976 586.798 396.976C587.374 396.976 587.811 396.88 588.11 396.688C588.419 396.485 588.574 396.197 588.574 395.824C588.574 395.525 588.467 395.291 588.254 395.12C588.051 394.939 587.71 394.789 587.23 394.672L585.886 394.352C585.192 394.203 584.659 393.936 584.286 393.552C583.923 393.168 583.742 392.704 583.742 392.16C583.742 391.691 583.87 391.275 584.126 390.912C584.392 390.549 584.76 390.267 585.23 390.064C585.699 389.851 586.254 389.744 586.894 389.744C587.459 389.744 587.992 389.835 588.494 390.016C589.006 390.197 589.438 390.459 589.79 390.8L589.326 391.84C588.942 391.52 588.547 391.285 588.142 391.136C587.736 390.976 587.315 390.896 586.878 390.896C586.334 390.896 585.907 391.003 585.598 391.216C585.299 391.429 585.15 391.717 585.15 392.08C585.15 392.389 585.246 392.635 585.438 392.816C585.63 392.997 585.934 393.141 586.35 393.248L587.71 393.584C588.478 393.744 589.043 394.011 589.406 394.384C589.768 394.747 589.95 395.216 589.95 395.792C589.95 396.496 589.662 397.061 589.086 397.488C588.51 397.904 587.731 398.112 586.75 398.112Z" fill="#1C1D24"/>
<g filter="url(#filter4_d)">
<rect x="55" y="153" width="177" height="190" rx="10" fill="#F8F8F8"/>
</g>
<path d="M89.1251 309.128C88.0264 309.128 87.0664 308.893 86.2451 308.424C85.4344 307.944 84.8104 307.267 84.3731 306.392C83.9357 305.517 83.7171 304.483 83.7171 303.288C83.7171 302.104 83.9357 301.075 84.3731 300.2C84.8104 299.325 85.4344 298.653 86.2451 298.184C87.0664 297.715 88.0264 297.48 89.1251 297.48C89.9037 297.48 90.6237 297.603 91.2851 297.848C91.9571 298.083 92.5224 298.429 92.9811 298.888L92.4051 300.104C91.8717 299.667 91.3437 299.352 90.8211 299.16C90.3091 298.957 89.7491 298.856 89.1411 298.856C87.9571 298.856 87.0397 299.24 86.3891 300.008C85.7491 300.776 85.4291 301.869 85.4291 303.288C85.4291 304.717 85.7491 305.821 86.3891 306.6C87.0397 307.368 87.9571 307.752 89.1411 307.752C89.7491 307.752 90.3091 307.656 90.8211 307.464C91.3437 307.261 91.8717 306.941 92.4051 306.504L92.9811 307.72C92.5224 308.179 91.9571 308.531 91.2851 308.776C90.6237 309.011 89.9037 309.128 89.1251 309.128ZM98.9266 300.744C99.1719 300.744 99.4279 300.781 99.6946 300.856L99.6626 302.328C99.3746 302.221 99.0599 302.168 98.7186 302.168C97.9826 302.168 97.4279 302.392 97.0546 302.84C96.6919 303.277 96.5106 303.832 96.5106 304.504V309H94.9106V303.208C94.9106 302.365 94.8679 301.608 94.7826 300.936H96.2866L96.4306 302.392C96.6439 301.859 96.9746 301.453 97.4226 301.176C97.8706 300.888 98.3719 300.744 98.9266 300.744ZM108.739 300.936L104.979 309.656C104.563 310.605 104.04 311.299 103.411 311.736C102.792 312.184 102.024 312.483 101.107 312.632L100.755 311.384C101.512 311.213 102.083 310.989 102.467 310.712C102.861 310.445 103.176 310.04 103.411 309.496L103.699 308.824L100.307 300.936H102.019L104.547 307.176L107.123 300.936H108.739ZM114.261 300.744C114.954 300.744 115.573 300.92 116.117 301.272C116.661 301.624 117.082 302.12 117.381 302.76C117.69 303.4 117.845 304.136 117.845 304.968C117.845 305.8 117.695 306.531 117.397 307.16C117.098 307.779 116.677 308.259 116.133 308.6C115.589 308.941 114.965 309.112 114.261 309.112C113.642 309.112 113.098 308.984 112.629 308.728C112.17 308.461 111.823 308.083 111.589 307.592V312.456H109.989V303.208C109.989 302.365 109.946 301.608 109.861 300.936H111.365L111.525 302.424C111.738 301.891 112.085 301.48 112.565 301.192C113.045 300.893 113.61 300.744 114.261 300.744ZM113.893 307.832C114.618 307.832 115.183 307.581 115.589 307.08C115.994 306.579 116.197 305.875 116.197 304.968C116.197 304.051 115.994 303.336 115.589 302.824C115.183 302.301 114.618 302.04 113.893 302.04C113.146 302.04 112.575 302.291 112.181 302.792C111.786 303.293 111.589 304.008 111.589 304.936C111.589 305.864 111.786 306.579 112.181 307.08C112.586 307.581 113.157 307.832 113.893 307.832ZM121.803 302.184V306.232C121.803 306.787 121.921 307.181 122.155 307.416C122.401 307.64 122.737 307.752 123.163 307.752C123.441 307.752 123.723 307.709 124.011 307.624V308.936C123.659 309.053 123.259 309.112 122.811 309.112C121.979 309.112 121.334 308.877 120.875 308.408C120.417 307.939 120.187 307.256 120.187 306.36V302.184H118.619V300.936H120.187V298.92L121.803 298.36V300.936H124.027V302.184H121.803ZM128.992 309.112C128.203 309.112 127.509 308.941 126.912 308.6C126.315 308.259 125.851 307.773 125.52 307.144C125.2 306.515 125.04 305.779 125.04 304.936C125.04 304.093 125.2 303.357 125.52 302.728C125.851 302.088 126.315 301.597 126.912 301.256C127.509 300.915 128.203 300.744 128.992 300.744C129.771 300.744 130.459 300.915 131.056 301.256C131.653 301.597 132.112 302.088 132.432 302.728C132.763 303.357 132.928 304.093 132.928 304.936C132.928 305.779 132.763 306.515 132.432 307.144C132.112 307.773 131.653 308.259 131.056 308.6C130.459 308.941 129.771 309.112 128.992 309.112ZM128.976 307.832C129.723 307.832 130.293 307.587 130.688 307.096C131.083 306.605 131.28 305.885 131.28 304.936C131.28 304.008 131.077 303.293 130.672 302.792C130.277 302.291 129.717 302.04 128.992 302.04C128.256 302.04 127.685 302.291 127.28 302.792C126.875 303.293 126.672 304.008 126.672 304.936C126.672 305.885 126.869 306.605 127.264 307.096C127.669 307.587 128.24 307.832 128.976 307.832ZM144.234 309.128C143.136 309.128 142.176 308.893 141.354 308.424C140.544 307.944 139.92 307.267 139.482 306.392C139.045 305.517 138.826 304.483 138.826 303.288C138.826 302.104 139.045 301.075 139.482 300.2C139.92 299.325 140.544 298.653 141.354 298.184C142.176 297.715 143.136 297.48 144.234 297.48C145.013 297.48 145.733 297.603 146.394 297.848C147.066 298.083 147.632 298.429 148.09 298.888L147.514 300.104C146.981 299.667 146.453 299.352 145.93 299.16C145.418 298.957 144.858 298.856 144.25 298.856C143.066 298.856 142.149 299.24 141.498 300.008C140.858 300.776 140.538 301.869 140.538 303.288C140.538 304.717 140.858 305.821 141.498 306.6C142.149 307.368 143.066 307.752 144.25 307.752C144.858 307.752 145.418 307.656 145.93 307.464C146.453 307.261 146.981 306.941 147.514 306.504L148.09 307.72C147.632 308.179 147.066 308.531 146.394 308.776C145.733 309.011 145.013 309.128 144.234 309.128ZM156.872 300.936V309H155.304V307.656C155.048 308.125 154.696 308.488 154.248 308.744C153.8 308.989 153.293 309.112 152.728 309.112C150.786 309.112 149.816 308.035 149.816 305.88V300.936H151.416V305.864C151.416 306.525 151.549 307.016 151.816 307.336C152.093 307.645 152.509 307.8 153.064 307.8C153.725 307.8 154.253 307.587 154.648 307.16C155.053 306.733 155.256 306.168 155.256 305.464V300.936H156.872ZM163.255 300.744C163.5 300.744 163.756 300.781 164.023 300.856L163.991 302.328C163.703 302.221 163.388 302.168 163.047 302.168C162.311 302.168 161.756 302.392 161.383 302.84C161.02 303.277 160.839 303.832 160.839 304.504V309H159.239V303.208C159.239 302.365 159.196 301.608 159.111 300.936H160.615L160.759 302.392C160.972 301.859 161.303 301.453 161.751 301.176C162.199 300.888 162.7 300.744 163.255 300.744ZM169.27 300.744C169.516 300.744 169.772 300.781 170.038 300.856L170.006 302.328C169.718 302.221 169.404 302.168 169.062 302.168C168.326 302.168 167.772 302.392 167.398 302.84C167.036 303.277 166.854 303.832 166.854 304.504V309H165.254V303.208C165.254 302.365 165.212 301.608 165.126 300.936H166.63L166.774 302.392C166.988 301.859 167.318 301.453 167.766 301.176C168.214 300.888 168.716 300.744 169.27 300.744ZM177.994 305H172.234C172.287 306.888 173.146 307.832 174.81 307.832C175.738 307.832 176.586 307.528 177.354 306.92L177.85 308.072C177.487 308.392 177.023 308.648 176.458 308.84C175.903 309.021 175.343 309.112 174.778 309.112C173.487 309.112 172.474 308.744 171.738 308.008C171.002 307.261 170.634 306.243 170.634 304.952C170.634 304.131 170.794 303.4 171.114 302.76C171.444 302.12 171.903 301.624 172.49 301.272C173.076 300.92 173.743 300.744 174.49 300.744C175.578 300.744 176.431 301.096 177.05 301.8C177.679 302.504 177.994 303.48 177.994 304.728V305ZM174.522 301.944C173.914 301.944 173.418 302.125 173.034 302.488C172.65 302.851 172.404 303.368 172.298 304.04H176.57C176.506 303.357 176.298 302.84 175.946 302.488C175.594 302.125 175.119 301.944 174.522 301.944ZM184.136 300.744C186.067 300.744 187.032 301.821 187.032 303.976V309H185.416V304.072C185.416 303.368 185.277 302.856 185 302.536C184.733 302.216 184.301 302.056 183.704 302.056C183.021 302.056 182.472 302.269 182.056 302.696C181.651 303.123 181.448 303.693 181.448 304.408V309H179.848V303.208C179.848 302.365 179.805 301.608 179.72 300.936H181.224L181.368 302.328C181.624 301.816 181.992 301.427 182.472 301.16C182.963 300.883 183.517 300.744 184.136 300.744ZM192.836 309.112C192.026 309.112 191.316 308.941 190.708 308.6C190.111 308.259 189.652 307.779 189.332 307.16C189.012 306.531 188.852 305.8 188.852 304.968C188.852 304.136 189.018 303.4 189.348 302.76C189.69 302.12 190.164 301.624 190.772 301.272C191.38 300.92 192.09 300.744 192.9 300.744C193.466 300.744 194.01 300.84 194.532 301.032C195.055 301.213 195.476 301.464 195.796 301.784L195.3 302.952C194.543 302.355 193.78 302.056 193.012 302.056C192.234 302.056 191.626 302.312 191.188 302.824C190.751 303.325 190.532 304.035 190.532 304.952C190.532 305.869 190.751 306.579 191.188 307.08C191.626 307.571 192.234 307.816 193.012 307.816C193.802 307.816 194.564 307.517 195.3 306.92L195.796 308.088C195.455 308.408 195.018 308.659 194.484 308.84C193.962 309.021 193.412 309.112 192.836 309.112ZM204.645 300.936L200.885 309.656C200.469 310.605 199.946 311.299 199.317 311.736C198.698 312.184 197.93 312.483 197.013 312.632L196.661 311.384C197.418 311.213 197.989 310.989 198.373 310.712C198.767 310.445 199.082 310.04 199.317 309.496L199.605 308.824L196.213 300.936H197.925L200.453 307.176L203.029 300.936H204.645Z" fill="#1C1D24"/>
<circle cx="142.75" cy="216" r="48" fill="white"/>
<circle cx="142.749" cy="216.002" r="35.3684" fill="#8D45D3"/>
<path d="M147.642 221.754V218.158C147.642 216.131 149.31 214.464 151.337 214.464H156.175V211.815C156.175 210.344 154.966 209.134 153.494 209.134V207.598C153.494 205.669 151.925 204.1 149.996 204.1H146.008L143.392 200.471L138.325 204.1H130.544C128.68 204.1 127.144 205.571 127.078 207.402C127.078 207.532 127.078 207.631 127.078 207.631V228.358C127.078 230.091 128.484 231.53 130.249 231.53H153.004C154.737 231.53 156.175 230.124 156.175 228.358V225.449H151.337C149.31 225.449 147.642 223.814 147.642 221.754ZM149.996 206.061C150.846 206.061 151.533 206.748 151.533 207.598V209.134H149.604L147.413 206.061H149.996ZM147.185 209.134H134.663L142.934 203.184L147.185 209.134ZM130.544 206.061H135.611L131.328 209.134H130.544C129.694 209.134 129.007 208.448 129.007 207.598C129.007 206.748 129.694 206.061 130.544 206.061Z" fill="white"/>
<path d="M157.255 215.867H151.337C150.062 215.867 149.049 216.881 149.049 218.156V221.752C149.049 223.027 150.062 224.041 151.337 224.041H157.255C157.68 224.041 158.04 223.681 158.04 223.256V216.652C158.04 216.194 157.68 215.867 157.255 215.867ZM152.58 221.654C151.664 221.654 150.88 220.902 150.88 219.987C150.88 219.071 151.632 218.287 152.58 218.287C153.495 218.287 154.247 219.038 154.247 219.987C154.28 220.902 153.528 221.654 152.58 221.654Z" fill="white"/>
<defs>
<filter id="filter0_d" x="445" y="0" width="205" height="218" filterUnits="userSpaceOnUse" color-interpolation-filters="sRGB">
<feFlood flood-opacity="0" result="BackgroundImageFix"/>
<feColorMatrix in="SourceAlpha" type="matrix" values="0 0 0 0 0 0 0 0 0 0 0 0 0 0 0 0 0 0 127 0"/>
<feOffset dy="3"/>
<feGaussianBlur stdDeviation="7"/>
<feColorMatrix type="matrix" values="0 0 0 0 0 0 0 0 0 0 0 0 0 0 0 0 0 0 0.1 0"/>
<feBlend mode="normal" in2="BackgroundImageFix" result="effect1_dropShadow"/>
<feBlend mode="normal" in="SourceGraphic" in2="effect1_dropShadow" result="shape"/>
</filter>
<filter id="filter1_d" x="243" y="58" width="205" height="218" filterUnits="userSpaceOnUse" color-interpolation-filters="sRGB">
<feFlood flood-opacity="0" result="BackgroundImageFix"/>
<feColorMatrix in="SourceAlpha" type="matrix" values="0 0 0 0 0 0 0 0 0 0 0 0 0 0 0 0 0 0 127 0"/>
<feOffset dy="3"/>
<feGaussianBlur stdDeviation="7"/>
<feColorMatrix type="matrix" values="0 0 0 0 0 0 0 0 0 0 0 0 0 0 0 0 0 0 0.1 0"/>
<feBlend mode="normal" in2="BackgroundImageFix" result="effect1_dropShadow"/>
<feBlend mode="normal" in="SourceGraphic" in2="effect1_dropShadow" result="shape"/>
</filter>
<filter id="filter2_d" x="261" y="273" width="205" height="218" filterUnits="userSpaceOnUse" color-interpolation-filters="sRGB">
<feFlood flood-opacity="0" result="BackgroundImageFix"/>
<feColorMatrix in="SourceAlpha" type="matrix" values="0 0 0 0 0 0 0 0 0 0 0 0 0 0 0 0 0 0 127 0"/>
<feOffset dy="3"/>
<feGaussianBlur stdDeviation="7"/>
<feColorMatrix type="matrix" values="0 0 0 0 0 0 0 0 0 0 0 0 0 0 0 0 0 0 0.1 0"/>
<feBlend mode="normal" in2="BackgroundImageFix" result="effect1_dropShadow"/>
<feBlend mode="normal" in="SourceGraphic" in2="effect1_dropShadow" result="shape"/>
</filter>
<filter id="filter3_d" x="463" y="215" width="205" height="218" filterUnits="userSpaceOnUse" color-interpolation-filters="sRGB">
<feFlood flood-opacity="0" result="BackgroundImageFix"/>
<feColorMatrix in="SourceAlpha" type="matrix" values="0 0 0 0 0 0 0 0 0 0 0 0 0 0 0 0 0 0 127 0"/>
<feOffset dy="3"/>
<feGaussianBlur stdDeviation="7"/>
<feColorMatrix type="matrix" values="0 0 0 0 0 0 0 0 0 0 0 0 0 0 0 0 0 0 0.1 0"/>
<feBlend mode="normal" in2="BackgroundImageFix" result="effect1_dropShadow"/>
<feBlend mode="normal" in="SourceGraphic" in2="effect1_dropShadow" result="shape"/>
</filter>
<filter id="filter4_d" x="41" y="142" width="205" height="218" filterUnits="userSpaceOnUse" color-interpolation-filters="sRGB">
<feFlood flood-opacity="0" result="BackgroundImageFix"/>
<feColorMatrix in="SourceAlpha" type="matrix" values="0 0 0 0 0 0 0 0 0 0 0 0 0 0 0 0 0 0 127 0"/>
<feOffset dy="3"/>
<feGaussianBlur stdDeviation="7"/>
<feColorMatrix type="matrix" values="0 0 0 0 0 0 0 0 0 0 0 0 0 0 0 0 0 0 0.1 0"/>
<feBlend mode="normal" in2="BackgroundImageFix" result="effect1_dropShadow"/>
<feBlend mode="normal" in="SourceGraphic" in2="effect1_dropShadow" result="shape"/>
</filter>
<clipPath id="clip0">
<rect width="37" height="37" fill="white" transform="translate(528.215 62.8096)"/>
</clipPath>
</defs>
</svg>
