<svg xmlns="http://www.w3.org/2000/svg" width="159" height="451" fill="none" viewBox="0 0 159 451">
    <g opacity=".6">
        <path fill="url(#paint0_linear)" d="M141.518 299.367h50.05s9.42-25.673-2.847-43.795c-25.022-36.967 9.103-56.301 22.181-66.518 19.726-15.441 28.422-35.387 4.696-48.329-26.838-14.639-3.179-53.606 32.281-73.948 34.692-19.907 19.329-93.063-59.715-56.874-47.204 21.61-39.814 71.66-42.063 97.822-2.25 26.162-41.183 28.324-27.88 60.282 11.372 27.302 32.986 47.204 16.493 65.976s-18.219 39.789 6.804 65.384z"/>
        <path fill="#BEB8F2" d="M163.161 304.014c-.118-.645-11.739-65.271-3.913-132.817 4.592-39.705 14.898-72.647 30.623-97.904 19.691-31.621 47.971-51.225 84.063-58.258l.205 1.071c-81.05 15.803-106.625 93.131-113.801 155.218-7.791 67.385 3.786 131.849 3.913 132.495l-1.09.195z"/>
        <path fill="#BEB8F2" d="M157.638 215.637l-1.066-.249c11.93-50.29 80.586-62.919 81.251-62.919l.034 1.09c-.67.064-68.426 12.341-80.219 62.078zM157.293 194.533c-6.554-31.542-40.865-53.312-41.207-53.518l.577-.929c.352.22 35.049 22.23 41.706 54.222l-1.076.225zM159.655 278.398c-2.514-14.727-25.165-31.421-32.609-36.904-.796-.542-1.559-1.131-2.284-1.765l.817-.729c.141.152 1.056.831 2.117 1.614 7.533 5.546 30.447 22.435 33.035 37.603l-1.076.181z"/>
        <path fill="url(#paint1_linear)" d="M121.866 393.377c-9.088 14.335-4.373 30.496.733 41.632 1.541.211 2.382.759 3.913 1.346 13.612 5.282 28.227 7.938 42.386 10.863 3.047.631 6.041.777 9.132 1.173l3.15.323s20.376-43.173 2.739-55.944c-17.638-12.77-5.473-48.774-1.218-68.719 11.557-54.12-48.207-56.967-38.918-127.706 2.47-18.811 13.474-53.866-.406-70.945-15.813-19.462-31.215-4.461-40.948-20.269-15.207-24.715-43.614-36.615-64.215-15.979-20.332 20.371-5.234 68.265 42.332 111.448 30.618 34.844 29.958 43.976 24.318 65.682-3.952 15.202-24.02 53.513-5.17 72.388 18.851 18.875 32.56 38.322 22.172 54.707z"/>
        <path fill="#FCFDFE" d="M154.646 443.293h-1.101c.049-6.305 0-12.673-.088-18.924-.797-46.225-5.869-90.705-15.103-132.196-7.826-35.147-18.709-68.646-32.375-99.577-10.632-24.211-23.4-47.428-38.15-69.375-9.593-14.281-20.208-27.849-31.762-40.596-1.908-2.084-3.982-4.123-5.992-6.094-2.705-2.656-5.507-5.38-7.963-8.315l.847-.704c2.416 2.89 5.199 5.62 7.889 8.26 2.015 1.982 4.103 4.031 6.03 6.139 11.591 12.784 22.24 26.391 31.866 40.713 14.783 22.004 27.578 45.279 38.233 69.551 13.695 30.99 24.612 64.562 32.443 99.778 9.244 41.574 14.336 86.112 15.128 132.411.112 6.236.147 12.614.098 18.929z"/>
        <path fill="#FCFDFE" d="M121.098 230.975c-13.881-43.765 13.074-117.386 13.348-118.129l1.032.381c-.274.734-27.102 74.012-13.333 117.415l-1.047.333zM148.976 355.783c-5.815-30.11-57.225-59.74-57.768-60.033l.543-.979c.523.294 52.393 30.174 58.301 60.777l-1.076.235zM150.808 373.423c-.265-20.543 10.305-48.637 29.762-79.094.42-.66.787-1.237.841-1.345l.421.206h.635c0 .205 0 .205-.978 1.731-19.344 30.281-29.835 58.155-29.586 78.487l-1.095.015zM153.471 431.756c-6.534-20.885-36.971-32.878-37.275-33l.396-1.023c.309.118 31.235 12.301 37.926 33.695l-1.047.328zM155.164 443.607l-1.032-.382c6.358-17.118 17.774-32.946 34.966-48.421l.739.821c-17.06 15.329-28.403 31.024-34.673 47.982zM76.1 135.844c-9.048-23.824-13.02-50.906-14.326-59.808-.225-1.546-.406-2.769-.489-2.964l1.042-.347c.083.259.2 1.012.514 3.154 1.3 8.868 5.258 35.862 14.262 59.579l-1.003.386zM96.428 172.234c-14.34-18.41-62.606-24.235-63.095-24.294l.127-1.09c2 .234 49.224 5.942 63.843 24.709l-.875.675z"/>
        <path fill="url(#paint2_linear)" d="M121.327 434.801c.191.083.377.171.573.249 13.695 5.282 28.226 7.938 42.386 10.863 1.907.396 3.825.724 5.757 1.017 2.553-7.15 4.514-17.691-4.657-20.513-14.238-4.377-14.389-29.488-10.408-38.336 4.93-10.956 15.886-36.683-6.021-43.814-18.239-5.928-31.22-6.026-32.315-29.576-1.096-23.551-13.827-38.342-35.216-37.109-22.499 1.301-40.664-28.75-59.148-18.894-32.207 17.177-3.56 69.282 35.324 84.615 38.884 15.334 16.404 29.215 15.201 48.471-1.643 26.289 33.954 20.948 43.267 31.352 2.893 3.27 4.726 7.341 5.257 11.675z"/>
        <path fill="#FCFDFE" d="M143.215 441.586C128.292 365.809 76.696 297.647 8.5 263.693l.49-.978c68.474 34.1 120.319 102.561 135.296 178.661l-1.071.21z"/>
        <path fill="#FCFDFE" d="M132.592 400.798h-1.101c.137-30.97 26.691-54.927 26.96-55.161l.729.821c-.265.23-26.456 23.869-26.588 54.34zM140.076 427.667c-14.272-26.739-69.805-30.814-70.368-30.814l.078-1.095c.563.034 56.702 4.133 71.263 31.4l-.973.509zM94.105 334.612c-9.836-22.954 5.174-57.925 5.331-58.272l1.008.435c-.152.347-14.977 34.888-5.327 57.407l-1.012.43zM60.449 298.68c-23.38-14.521-59.843-6.696-60.21-6.598L0 291.011c.372-.083 37.275-8.002 61.011 6.735l-.562.934z"/>
        <path fill="#5A2F71" d="M184.642 448.703l.362 1.781c-30.814-.215-68.074-15.06-68.436-15.212-.264-.107.367-2.024.489-2.293.052-.129.153-.231.28-.285.128-.054.271-.056.4-.004.362.152 36.326 14.752 66.919 14.967.139 0 .272.055.371.153.098.098.153.231.153.37 0 .139-.055.272-.153.37-.099.098-.232.153-.371.153h-.014z"/>
    </g>
    <defs>
        <linearGradient id="paint0_linear" x1="305187" x2="213565" y1="233368" y2="363776" gradientUnits="userSpaceOnUse">
            <stop stop-color="#AA80F9"/>
            <stop offset="1" stop-color="#6165D7"/>
        </linearGradient>
        <linearGradient id="paint1_linear" x1="307716" x2="138600" y1="536779" y2="409010" gradientUnits="userSpaceOnUse">
            <stop stop-color="#FFC444"/>
            <stop offset="1" stop-color="#F36F56"/>
        </linearGradient>
        <linearGradient id="paint2_linear" x1="273435" x2="319652" y1="250144" y2="315663" gradientUnits="userSpaceOnUse">
            <stop stop-color="#E38DDD"/>
            <stop offset="1" stop-color="#9571F6"/>
        </linearGradient>
    </defs>
</svg>
