<svg width="345" height="317" viewBox="0 0 345 317" fill="none" xmlns="http://www.w3.org/2000/svg">
<path opacity="0.2" d="M160.966 264.425C98.6249 261.332 36.1911 236.538 23.7235 194.227C11.1673 152.146 48.3476 92.4603 96.8892 63.5634C145.431 34.6665 205.652 36.4165 249.491 69.1226C293.56 101.917 321.247 165.667 303.763 207.032C286.279 248.397 223.395 267.289 160.966 264.425Z" fill="#2D56B3"/>
<path d="M154.767 188.919L49.0801 189.181L49.0897 193.083L154.776 192.821L154.767 188.919Z" fill="#A9E8EF"/>
<path d="M176.698 178.039L71.0117 178.307L71.0216 182.209L176.708 181.941L176.698 178.039Z" fill="#A9E8EF"/>
<path d="M136.687 167.827L31 168.024L31.0073 171.926L136.694 171.729L136.687 167.827Z" fill="#A9E8EF"/>
<path d="M191.154 156.662L85.4668 156.797L85.4718 160.699L191.159 160.564L191.154 156.662Z" fill="#A9E8EF"/>
<path d="M221.954 105.649C227.301 104.828 232.706 104.443 238.115 104.5C245.749 104.5 250.428 105.237 254.453 107.627C256.461 108.633 258.149 110.181 259.324 112.096C260.499 114.011 261.115 116.216 261.102 118.463C261.054 121.152 260.14 123.754 258.497 125.883C256.854 128.012 254.568 129.555 251.979 130.283V130.45C255.102 131.106 257.903 132.821 259.907 135.304C261.911 137.787 262.996 140.886 262.979 144.077C262.986 146.342 262.472 148.579 261.475 150.613C260.478 152.647 259.026 154.424 257.231 155.806C253.209 159.007 246.477 160.816 235.48 160.816C230.948 160.859 226.419 160.584 221.926 159.992L221.954 105.649ZM234.348 126.83H238.456C245.022 126.83 248.551 124.119 248.551 120.016C248.551 115.827 245.351 113.615 239.689 113.615C237.905 113.584 236.121 113.693 234.354 113.94L234.348 126.83ZM234.348 151.375C235.955 151.529 237.57 151.584 239.184 151.54C244.848 151.54 249.855 149.405 249.855 143.577C249.855 137.993 244.848 135.778 238.61 135.778H234.348V151.375Z" fill="#588BFF"/>
<path d="M234.074 96.5732H228.24V110.328H234.074V96.5732Z" fill="#588BFF"/>
<path d="M246.578 96.5732H240.744V110.328H246.578V96.5732Z" fill="#588BFF"/>
<path d="M234.074 154.089H228.24V167.844H234.074V154.089Z" fill="#80D2D6"/>
<path d="M246.578 154.089H240.744V167.844H246.578V154.089Z" fill="#588BFF"/>
<path d="M88.1133 72.4022C92.4319 71.7382 96.7976 71.4278 101.167 71.4743C107.326 71.4743 111.103 72.0685 114.348 73.9896C115.97 74.8019 117.332 76.0515 118.281 77.5972C119.23 79.143 119.727 80.9233 119.717 82.7371C119.68 84.9063 118.944 87.0056 117.619 88.7236C116.294 90.4416 114.45 91.6867 112.362 92.2744V92.4073C114.885 92.9375 117.147 94.3235 118.765 96.3304C120.382 98.3374 121.257 100.842 121.24 103.42C121.247 105.249 120.832 107.056 120.028 108.699C119.223 110.342 118.051 111.778 116.603 112.895C113.358 115.478 107.92 116.937 99.0451 116.937C95.39 116.971 91.7371 116.748 88.1133 116.27V72.4022ZM98.1171 89.501H101.43C106.732 89.501 109.578 87.3167 109.578 84.0038C109.578 80.6154 106.995 78.8351 102.423 78.8351C100.983 78.809 99.5434 78.8962 98.1171 79.0957V89.501ZM98.1171 109.311C99.4164 109.435 100.722 109.48 102.027 109.444C106.596 109.444 110.628 107.721 110.628 103.016C110.628 98.5118 106.586 96.7237 101.553 96.7237H98.1171V109.311Z" fill="#588BFF"/>
<path d="M97.8968 65.082H93.1895V76.1832H97.8968V65.082Z" fill="#588BFF"/>
<path d="M107.987 65.082H103.277V76.1832H107.987V65.082Z" fill="#588BFF"/>
<path d="M97.8968 111.501H93.1895V122.602H97.8968V111.501Z" fill="#588BFF"/>
<path d="M107.987 111.501H103.277V122.602H107.987V111.501Z" fill="#588BFF"/>
<path d="M264.634 243.647C264.634 249.728 223.928 254.659 173.711 254.659C123.493 254.659 82.7871 249.728 82.7871 243.647C82.7871 237.566 123.506 232.629 173.711 232.629C223.915 232.629 264.634 237.563 264.634 243.647Z" fill="#E9E9E9"/>
<path d="M241.874 175.981C241.874 190.222 237.651 204.144 229.739 215.985C221.827 227.826 210.581 237.056 197.423 242.505C184.266 247.955 169.788 249.381 155.82 246.602C141.852 243.824 129.022 236.966 118.952 226.895C108.882 216.825 102.025 203.995 99.2466 190.027C96.4685 176.059 97.8948 161.581 103.345 148.424C108.795 135.267 118.025 124.021 129.867 116.109C141.708 108.198 155.63 103.975 169.871 103.976C179.327 103.975 188.69 105.837 197.427 109.456C206.163 113.075 214.1 118.378 220.787 125.065C227.473 131.751 232.776 139.689 236.395 148.425C240.013 157.162 241.875 166.525 241.874 175.981Z" fill="#2D56B3"/>
<path d="M238.214 175.981C238.214 189.498 234.205 202.711 226.696 213.95C219.186 225.189 208.512 233.949 196.024 239.122C183.536 244.294 169.795 245.648 156.537 243.011C143.28 240.374 131.103 233.865 121.545 224.307C111.987 214.749 105.478 202.571 102.841 189.314C100.204 176.057 101.557 162.315 106.73 149.827C111.902 137.339 120.662 126.665 131.901 119.156C143.14 111.646 156.354 107.638 169.871 107.638C187.996 107.638 205.379 114.839 218.196 127.656C231.012 140.472 238.213 157.855 238.214 175.981Z" fill="#4171DD"/>
<path d="M223.724 175.983C223.723 186.634 220.564 197.047 214.646 205.903C208.728 214.759 200.316 221.662 190.475 225.738C180.634 229.813 169.805 230.879 159.358 228.801C148.911 226.722 139.316 221.593 131.784 214.06C124.252 206.528 119.124 196.931 117.046 186.484C114.969 176.037 116.036 165.209 120.112 155.368C124.189 145.527 131.092 137.116 139.949 131.199C148.806 125.282 159.219 122.124 169.87 122.124C176.943 122.124 183.946 123.517 190.48 126.224C197.015 128.931 202.952 132.898 207.952 137.899C212.953 142.9 216.92 148.838 219.626 155.372C222.332 161.907 223.725 168.91 223.724 175.983Z" fill="#2D56B3"/>
<path d="M221.46 178.251C221.46 188.454 218.434 198.428 212.766 206.911C207.097 215.395 199.04 222.007 189.614 225.912C180.187 229.817 169.814 230.838 159.807 228.848C149.8 226.857 140.608 221.944 133.393 214.729C126.178 207.514 121.265 198.322 119.274 188.315C117.284 178.308 118.306 167.935 122.21 158.508C126.115 149.082 132.727 141.025 141.211 135.356C149.694 129.688 159.668 126.662 169.872 126.662C183.554 126.662 196.675 132.097 206.35 141.772C216.025 151.447 221.46 164.568 221.46 178.251Z" fill="#407BFF"/>
<path d="M150.369 148.512C156.005 147.648 161.701 147.243 167.403 147.303C175.444 147.303 180.375 148.085 184.606 150.587C186.722 151.647 188.499 153.277 189.737 155.294C190.974 157.311 191.623 159.634 191.61 162.001C191.561 164.832 190.601 167.573 188.872 169.816C187.144 172.059 184.738 173.686 182.012 174.455V174.629C185.302 175.32 188.252 177.126 190.364 179.741C192.475 182.357 193.618 185.622 193.598 188.984C193.608 191.371 193.068 193.729 192.018 195.874C190.968 198.019 189.438 199.892 187.546 201.349C183.316 204.727 176.223 206.638 164.637 206.638C159.868 206.683 155.101 206.394 150.372 205.772L150.369 148.512ZM163.425 170.824H167.749C174.667 170.824 178.387 167.957 178.387 163.646C178.387 159.235 174.998 156.902 169.045 156.902C167.165 156.87 165.286 156.986 163.425 157.249V170.824ZM163.425 196.681C165.12 196.842 166.824 196.899 168.526 196.853C174.493 196.853 179.768 194.606 179.768 188.465C179.768 182.585 174.493 180.249 167.922 180.249H163.425V196.681Z" fill="#2D56B3"/>
<path d="M163.136 138.955H156.992V153.445H163.136V138.955Z" fill="#2D56B3"/>
<path d="M176.311 138.955H170.162V153.445H176.311V138.955Z" fill="#2D56B3"/>
<path d="M163.136 199.542H156.992V214.029H163.136V199.542Z" fill="#2D56B3"/>
<path d="M176.311 199.542H170.162V214.029H176.311V199.542Z" fill="#2D56B3"/>
<path d="M115.808 124.318C116.733 122.917 117.501 121.419 118.099 119.851C118.78 121.385 119.626 122.84 120.622 124.19C122.025 125.115 123.525 125.883 125.095 126.482C123.561 127.164 122.105 128.011 120.753 129.007C119.828 130.409 119.059 131.907 118.459 133.475C117.777 131.941 116.931 130.486 115.936 129.135C114.532 128.211 113.033 127.441 111.463 126.841C112.999 126.161 114.456 125.315 115.808 124.318Z" fill="#F7F7FC"/>
<path d="M135.082 101.637C136.005 100.234 136.772 98.7356 137.371 97.167C138.053 98.7014 138.901 100.157 139.899 101.507C141.299 102.431 142.797 103.199 144.364 103.798C142.831 104.481 141.377 105.328 140.027 106.324C139.102 107.725 138.333 109.223 137.733 110.791C137.052 109.258 136.206 107.804 135.21 106.454C133.808 105.53 132.31 104.762 130.742 104.163C132.276 103.481 133.731 102.634 135.082 101.637Z" fill="#F7F7FC"/>
<path d="M88.5801 141.413C89.5032 140.011 90.2714 138.513 90.8712 136.945C91.5529 138.479 92.3998 139.935 93.397 141.285C94.7989 142.208 96.2969 142.976 97.8646 143.576C96.3304 144.258 94.8752 145.105 93.5247 146.102C92.6011 147.504 91.8329 149.002 91.2335 150.57C90.5515 149.035 89.7046 147.579 88.7078 146.227C87.3062 145.304 85.8082 144.537 84.2402 143.939C85.7741 143.256 87.2293 142.41 88.5801 141.413Z" fill="#F7F7FC"/>
<path d="M95.392 169.094C96.317 167.694 97.0861 166.196 97.6857 164.629C98.3668 166.162 99.2129 167.616 100.209 168.966C101.61 169.891 103.108 170.66 104.676 171.26C103.143 171.941 101.688 172.787 100.337 173.783C99.4133 175.186 98.6451 176.685 98.0454 178.253C97.3639 176.718 96.517 175.262 95.5197 173.911C94.1188 172.987 92.6217 172.219 91.0547 171.62C92.5882 170.938 94.0426 170.091 95.392 169.094Z" fill="#F7F7FC"/>
<path d="M82.4976 212.538C82.5946 213.346 82.5215 214.164 82.283 214.941C82.0445 215.719 81.6458 216.437 81.1128 217.051C80.5797 217.665 79.9241 218.16 79.1879 218.505C78.4518 218.85 77.6516 219.038 76.8388 219.055C76.0572 219.052 75.2848 218.887 74.5711 218.568C73.8574 218.249 73.2182 217.785 72.6946 217.205C72.171 216.625 71.7746 215.941 71.5308 215.199C71.2871 214.456 71.2013 213.671 71.2791 212.893C71.1985 212.089 71.2858 211.277 71.5354 210.509C71.785 209.741 72.1916 209.033 72.7293 208.43C73.2669 207.827 73.924 207.343 74.6588 207.007C75.3936 206.671 76.1901 206.492 76.9978 206.481C77.7723 206.467 78.5407 206.619 79.2517 206.927C79.9627 207.234 80.5999 207.69 81.1206 208.263C81.6412 208.837 82.0334 209.515 82.2709 210.252C82.5084 210.989 82.5857 211.769 82.4976 212.538ZM74.8266 212.757C74.8266 214.895 75.5538 216.435 76.9353 216.435C78.3167 216.435 78.9423 215.051 78.9423 212.757C78.9423 210.672 78.3793 209.082 76.9014 209.082C75.4913 209.082 74.8266 210.714 74.8266 212.757ZM77.0917 227.588L88.821 206.476H91.3911L79.6408 227.588H77.0917ZM97.2036 221.023C97.2986 221.829 97.2241 222.646 96.9847 223.422C96.7453 224.197 96.3463 224.914 95.8135 225.527C95.2806 226.139 94.6256 226.633 93.8905 226.977C93.1554 227.322 92.3564 227.509 91.5449 227.526C90.7653 227.518 89.9958 227.349 89.285 227.029C88.5741 226.709 87.9373 226.245 87.4148 225.667C86.8924 225.088 86.4955 224.408 86.2495 223.668C86.0034 222.928 85.9134 222.146 85.9851 221.369C85.9045 220.565 85.9919 219.753 86.2417 218.985C86.4914 218.216 86.8982 217.508 87.4362 216.905C87.9741 216.303 88.6315 215.818 89.3666 215.483C90.1017 215.147 90.8985 214.968 91.7065 214.957C92.4815 214.944 93.2504 215.096 93.9616 215.404C94.6729 215.712 95.3102 216.169 95.8307 216.743C96.3512 217.317 96.743 217.996 96.9798 218.734C97.2166 219.473 97.2929 220.253 97.2036 221.023ZM89.5665 221.234C89.5352 223.371 90.2598 224.912 91.6517 224.912C93.0436 224.912 93.664 223.527 93.664 221.234C93.664 219.149 93.127 217.556 91.6517 217.556C90.1764 217.556 89.5665 219.201 89.5665 221.234Z" fill="#588BFF"/>
<path d="M261.255 178.229C261.352 179.036 261.279 179.854 261.041 180.631C260.803 181.408 260.404 182.127 259.871 182.74C259.339 183.354 258.683 183.85 257.948 184.195C257.212 184.54 256.412 184.728 255.599 184.745C254.818 184.743 254.045 184.577 253.332 184.259C252.618 183.94 251.979 183.476 251.455 182.896C250.932 182.316 250.535 181.633 250.291 180.891C250.046 180.149 249.96 179.364 250.037 178.586C249.956 177.782 250.044 176.97 250.293 176.202C250.543 175.433 250.95 174.725 251.488 174.122C252.026 173.519 252.683 173.035 253.418 172.699C254.154 172.364 254.95 172.185 255.758 172.174C256.532 172.161 257.3 172.313 258.011 172.62C258.721 172.928 259.358 173.383 259.878 173.956C260.398 174.529 260.791 175.207 261.028 175.944C261.266 176.681 261.343 177.46 261.255 178.229ZM253.587 178.448C253.587 180.582 254.312 182.123 255.693 182.123C257.075 182.123 257.703 180.741 257.703 178.448C257.703 176.363 257.14 174.77 255.662 174.77C254.249 174.765 253.587 176.404 253.587 178.443V178.448ZM255.849 193.279L267.579 172.166H270.157L258.406 193.279H255.849ZM275.959 186.71C276.056 187.517 275.983 188.335 275.745 189.112C275.506 189.889 275.108 190.607 274.576 191.221C274.043 191.835 273.388 192.33 272.653 192.676C271.917 193.021 271.118 193.209 270.305 193.227C269.525 193.219 268.756 193.05 268.044 192.73C267.333 192.41 266.696 191.946 266.173 191.367C265.651 190.788 265.254 190.107 265.007 189.367C264.761 188.627 264.671 187.844 264.743 187.068C264.66 186.263 264.746 185.449 264.994 184.679C265.243 183.909 265.649 183.199 266.187 182.594C266.725 181.99 267.383 181.504 268.119 181.167C268.855 180.831 269.652 180.651 270.462 180.64C271.237 180.627 272.006 180.779 272.717 181.087C273.428 181.395 274.065 181.851 274.586 182.426C275.106 183 275.498 183.679 275.735 184.417C275.972 185.155 276.048 185.935 275.959 186.705V186.71ZM268.327 186.932C268.293 189.067 269.018 190.607 270.399 190.607C271.781 190.607 272.411 189.226 272.411 186.932C272.411 184.847 271.877 183.254 270.399 183.254C268.921 183.254 268.327 184.883 268.327 186.927V186.932Z" fill="#588BFF"/>
<path d="M183.287 151.402L185.385 155.521L181.363 156.824L178.918 151.395L183.287 151.402Z" fill="#FFD9A7"/>
<path d="M138.054 152.748L135.901 156.832L132.734 153.871L135.748 148.778L138.054 152.748Z" fill="#FFD9A7"/>
<path d="M199.683 90.4619C199.683 90.4619 196.394 100.815 181.511 103.195L156.668 117.601C156.668 117.601 147.993 143.08 139.798 152.059C136.67 155.503 133.097 151.238 133.475 149.435C136.131 136.728 141.795 111.457 152.503 101.545C158.096 96.419 164.781 92.6295 172.051 90.4619H199.683Z" fill="#111313"/>
<path d="M199.684 90.4619C199.684 90.4619 204.928 108.059 188.851 111.804L169.667 114.051C169.667 114.051 182.321 139.006 184.555 150.933C184.881 152.667 180.088 155.151 178.088 153.133C169.125 144.083 150.011 121.753 155.289 107.686C158.19 99.9575 183.255 93.0893 183.255 93.0893L199.684 90.4619Z" fill="#263238"/>
<path d="M180.538 155.008C180.877 155.213 181.257 155.339 181.651 155.376C182.045 155.413 182.442 155.359 182.813 155.22C183.183 155.08 183.517 154.858 183.788 154.57C184.06 154.282 184.262 153.936 184.38 153.559C184.38 153.559 189.442 158.474 185.553 161.613C181.664 164.751 173.629 167.785 171.88 166.305C169.367 164.141 175.737 158.469 180.538 155.008Z" fill="#47454A"/>
<path d="M133.342 152.395C133.408 152.804 133.554 153.196 133.771 153.549C133.989 153.902 134.274 154.208 134.611 154.45C134.947 154.693 135.328 154.866 135.732 154.961C136.135 155.055 136.554 155.069 136.963 155.001C136.963 155.001 136.003 162.808 131.265 160.928C126.526 159.049 119.462 153.226 119.632 150.763C119.877 147.179 127.811 149.84 133.342 152.395Z" fill="#47454A"/>
<path d="M174.92 49.989C176.108 49.1263 178.569 47.8386 179.478 50.9978C180.388 54.1569 170.877 70.4398 167.942 72.9056C165.007 75.3714 145.677 80.6183 145.677 80.6183C145.677 80.6183 143.592 80.389 145.106 77.8528L163.482 69.5588C163.482 69.5588 170.817 52.9865 174.92 49.989Z" fill="#B758F0"/>
<path d="M190.892 49.6806C195.463 53.494 199.12 62.4239 199.881 91.2339C200.048 97.5704 171.051 96.241 171.171 89.902C171.491 73.0377 165.176 61.5899 173.748 50.6424C173.748 50.6424 181.826 42.1243 190.892 49.6806Z" fill="#709CFF"/>
<path d="M183.668 38.8643C182.705 41.3479 182.705 44.1012 183.668 46.5848C184.794 48.5032 176.325 54.9465 176.505 52.3661C176.739 49.0349 178.329 46.9914 176.505 43.2432L183.668 38.8643Z" fill="#EFC18F"/>
<path d="M176.269 30.8728C173.581 33.667 171.129 45.5137 174.217 47.9403C175.562 48.983 180.817 47.466 183.922 42.1643C184.905 40.6815 185.466 38.9592 185.546 37.1819C185.625 35.4045 185.22 33.639 184.373 32.0744C183.981 31.3898 183.439 30.8031 182.788 30.3583C182.136 29.9135 181.393 29.6223 180.612 29.5066C179.832 29.3909 179.036 29.4537 178.284 29.6904C177.531 29.927 176.842 30.3313 176.269 30.8728Z" fill="#FFD9A8"/>
<path d="M171.676 32.2369C172.442 33.0205 173.358 33.6426 174.369 34.0666C175.38 34.4905 176.465 34.7077 177.561 34.7053C181.992 35.1588 182.748 34.8304 182.35 35.9043C181.187 39.0582 184.492 39.0321 183.064 42.8116C181.635 46.5911 184.476 43.2 184.873 42.6265C186.046 41.1754 186.787 39.4228 187.009 37.5699C187.232 35.7169 186.928 33.8388 186.132 32.1509C183.348 26.93 175.429 29.083 171.676 32.2369Z" fill="#9B4D34"/>
<path d="M189.902 93.917H148.062V97.0839H189.902V93.917Z" fill="#FFE9BA"/>
<path d="M173.605 97.0864H143.807L139.426 77.501H167.727L173.605 97.0864Z" fill="#725559"/>
<path d="M175.128 93.0615C175.128 93.0615 166.878 95.7593 169.495 96.4735C170.82 97.0727 172.308 97.2052 173.718 96.8492C175.127 96.4931 176.374 95.6697 177.255 94.5134L175.128 93.0615Z" fill="#EFC18F"/>
<path d="M186.303 53.8099C186.806 52.4336 188.446 49.6707 190.648 52.113C194.136 55.9916 194.316 73.0539 193.255 76.7317C192.194 80.4095 177.006 95.0295 177.006 95.0295C176.409 95.0165 175.842 94.7701 175.425 94.3432C175.008 93.9162 174.776 93.3428 174.777 92.7462L187.867 74.8889C187.867 74.8889 184.557 58.5903 186.303 53.8099Z" fill="#B758F0"/>
<path d="M180.406 44.0684L177.484 49.5108L180.406 53.8402L183.821 48.953L180.406 44.0684Z" fill="#F7F7FC"/>
<path d="M180.406 53.8438L178.715 73.1034L182.036 81.4104L185.643 73.1034L180.406 53.8438Z" fill="#F7F7FC"/>
</svg>
