<svg width="41" height="41" viewBox="0 0 41 41" fill="none" xmlns="http://www.w3.org/2000/svg">
<path d="M20.4997 41C15.0629 41 9.84867 38.8402 6.00423 34.9958C2.15978 31.1513 7.97022e-09 25.9372 7.97022e-09 20.5003C-7.50585e-05 17.8082 0.530106 15.1424 1.56028 12.6552C2.59045 10.168 4.10044 7.90807 6.00402 6.00443C7.9076 4.1008 10.1675 2.59075 12.6547 1.5605C15.1419 0.530259 17.8076 -1.04658e-09 20.4997 0C25.9367 0 31.1511 2.15985 34.9956 6.0044C38.8402 9.84895 41 15.0633 41 20.5003C40.9998 25.9372 38.8399 31.1514 34.9954 34.9958C31.1509 38.8402 25.9366 41 20.4997 41Z" fill="#3E5C9A"/>
<path d="M17.3767 32.8911H22.3669V20.3951H25.8486L26.2195 16.2109H22.3669V13.8279C22.3669 12.8413 22.5647 12.4514 23.5187 12.4514H26.2195V8.10889H22.7641C19.0487 8.10889 17.3767 9.74484 17.3767 12.875V16.2109H14.7793V20.4471H17.375L17.3767 32.8911Z" fill="white"/>
</svg>
