<svg width="240" height="80" viewBox="0 0 240 80" fill="none" xmlns="http://www.w3.org/2000/svg">
<path d="M230.727 79.7993H8.86623C3.99625 79.7993 0 75.3 0 69.8175V9.97369C0 4.49275 3.99625 0 8.86623 0H230.727C235.606 0 239.601 4.49114 239.601 9.97369V69.8175C239.601 75.3 235.606 79.7993 230.727 79.7993Z" fill="black"/>
<path d="M82.8124 22.2883C82.8435 22.9566 82.7381 23.6243 82.5028 24.2507C82.2676 24.877 81.9072 25.4489 81.4438 25.9315C80.9148 26.4681 80.2798 26.8886 79.5792 27.1662C78.8787 27.4437 78.128 27.5723 77.375 27.5435C76.6227 27.5572 75.8753 27.4199 75.177 27.1397C74.4787 26.8594 73.8436 26.442 73.3094 25.9121C72.7653 25.3874 72.3356 24.7557 72.0474 24.0569C71.7591 23.3581 71.6186 22.6072 71.6345 21.8514C71.6155 21.0945 71.7547 20.342 72.0431 19.6419C72.3315 18.9419 72.7628 18.3097 73.3094 17.7858C73.8418 17.2521 74.4764 16.8314 75.1753 16.5489C75.8742 16.2663 76.6229 16.1278 77.3766 16.1416C78.1558 16.1428 78.9269 16.2995 79.6448 16.6026C80.3095 16.8656 80.902 17.2834 81.3729 17.8213L80.4056 18.7885C80.0302 18.3583 79.5622 18.0188 79.0368 17.7954C78.5113 17.5721 77.942 17.4707 77.3718 17.4989C76.8134 17.4918 76.259 17.5948 75.7404 17.802C75.2218 18.0092 74.7491 18.3164 74.3492 18.7063C73.9292 19.1123 73.5995 19.6022 73.3815 20.1441C73.1634 20.686 73.062 21.2677 73.0837 21.8514C73.0626 22.4365 73.1646 23.0196 73.3831 23.5628C73.6017 24.1059 73.9319 24.5971 74.3524 25.0046C75.164 25.7858 76.2502 26.2166 77.3766 26.2039C77.9466 26.2195 78.5139 26.1197 79.0444 25.9106C79.5749 25.7014 80.0577 25.3872 80.4637 24.9868C81.0311 24.3861 81.3606 23.5993 81.3906 22.7735H77.3766V21.4629H82.7302C82.7885 21.7341 82.8161 22.0109 82.8124 22.2883Z" fill="white" stroke="white" stroke-width="0.625"/>
<path d="M91.3059 17.7307H86.278V21.1869H90.811V22.5007H86.278V25.957H91.3075V27.2966H84.8594V16.3911H91.3075L91.3059 17.7307Z" fill="white" stroke="white" stroke-width="0.625"/>
<path d="M97.296 27.2966H95.8758V17.7307H92.792V16.3911H100.388V17.7307H97.296V27.2966Z" fill="white" stroke="white" stroke-width="0.625"/>
<path d="M105.885 27.2966V16.3911H107.307V27.2966H105.885Z" fill="white" stroke="white" stroke-width="0.625"/>
<path d="M113.608 27.2966H112.196V17.7307H109.107V16.3911H116.705V17.7307H113.608V27.2966Z" fill="white" stroke="white" stroke-width="0.625"/>
<path d="M131.086 25.8941C130.561 26.4339 129.93 26.8595 129.233 27.1441C128.536 27.4287 127.788 27.5663 127.035 27.5481C126.281 27.5671 125.531 27.43 124.833 27.1453C124.134 26.8607 123.502 26.4347 122.976 25.8941C122.445 25.3654 122.027 24.7346 121.747 24.0396C121.467 23.3447 121.33 22.6002 121.346 21.8511C121.329 21.1011 121.465 20.3554 121.745 19.6593C122.025 18.9632 122.443 18.3313 122.974 17.8017C123.5 17.2597 124.132 16.8324 124.831 16.5466C125.53 16.2609 126.28 16.1229 127.035 16.1413C127.787 16.1234 128.535 16.2619 129.23 16.548C129.926 16.8341 130.555 17.2616 131.076 17.8033C131.61 18.3311 132.031 18.9624 132.313 19.6584C132.594 20.3544 132.731 21.1005 132.714 21.8511C132.73 22.6001 132.594 23.3445 132.314 24.0394C132.035 24.7344 131.617 25.3653 131.086 25.8941ZM124.029 24.9801C124.42 25.3786 124.888 25.6928 125.405 25.9035C125.922 26.1142 126.477 26.2169 127.035 26.2052C127.592 26.2168 128.145 26.114 128.66 25.9033C129.176 25.6926 129.643 25.3784 130.032 24.9801C130.439 24.5699 130.759 24.0808 130.971 23.5428C131.183 23.0047 131.283 22.4291 131.265 21.8511C131.284 21.272 131.184 20.6952 130.972 20.156C130.76 19.6168 130.44 19.1267 130.032 18.7157C129.643 18.3174 129.176 18.0032 128.66 17.7925C128.145 17.5818 127.592 17.479 127.035 17.4906C126.477 17.4789 125.922 17.5816 125.405 17.7923C124.888 18.003 124.42 18.3172 124.029 18.7157C123.62 19.1267 123.3 19.6168 123.088 20.156C122.876 20.6952 122.776 21.272 122.795 21.8511C122.777 22.4291 122.877 23.0047 123.089 23.5428C123.301 24.0808 123.621 24.5699 124.029 24.9801Z" fill="white" stroke="white" stroke-width="0.625"/>
<path d="M134.712 27.2966V16.3911H136.437L141.811 24.8721H141.874L141.811 22.7764V16.3911H143.233V27.2966H141.757L136.124 18.3965H136.061L136.124 20.5018V27.2966H134.712Z" fill="white" stroke="white" stroke-width="0.625"/>
<path d="M120.996 43.2253C119.967 43.2002 118.944 43.3823 117.986 43.7606C117.029 44.139 116.158 44.706 115.424 45.4278C114.69 46.1496 114.109 47.0116 113.715 47.9626C113.321 48.9135 113.123 49.9339 113.131 50.9631C113.125 51.9916 113.326 53.0107 113.721 53.9603C114.116 54.9099 114.697 55.7707 115.43 56.492C116.164 57.2132 117.034 57.7803 117.99 58.1597C118.946 58.5391 119.968 58.7231 120.996 58.7009C122.025 58.7242 123.048 58.541 124.005 58.1621C124.962 57.7832 125.833 57.2163 126.567 56.495C127.302 55.7736 127.884 54.9124 128.279 53.9623C128.675 53.0121 128.876 51.9923 128.871 50.9631C128.879 49.9331 128.68 48.912 128.285 47.9605C127.891 47.0091 127.309 46.1467 126.574 45.4248C125.839 44.7028 124.967 44.1361 124.008 43.7582C123.05 43.3804 122.026 43.1991 120.996 43.2253ZM120.996 55.6526C120.396 55.6423 119.803 55.5121 119.254 55.2694C118.705 55.0267 118.21 54.6765 117.798 54.2395C117.386 53.8024 117.066 53.2874 116.856 52.7247C116.647 52.162 116.552 51.5631 116.577 50.9631C116.549 50.3624 116.642 49.762 116.85 49.1978C117.058 48.6337 117.378 48.1173 117.791 47.6795C118.203 47.2417 118.7 46.8914 119.25 46.6496C119.801 46.4078 120.395 46.2794 120.996 46.2721C121.598 46.2793 122.192 46.4075 122.744 46.6491C123.295 46.8907 123.792 47.2408 124.205 47.6785C124.618 48.1162 124.939 48.6326 125.149 49.1969C125.358 49.7612 125.452 50.3618 125.424 50.9631C125.448 51.5632 125.351 52.162 125.14 52.7242C124.929 53.2865 124.608 53.801 124.195 54.2375C123.783 54.6741 123.287 55.024 122.738 55.2667C122.189 55.5094 121.597 55.64 120.996 55.6509V55.6526ZM103.834 43.2253C102.805 43.1998 101.782 43.3815 100.824 43.7597C99.867 44.138 98.9955 44.7049 98.2618 45.4269C97.5281 46.1488 96.9472 47.011 96.5536 47.9621C96.16 48.9133 95.9618 49.9338 95.9707 50.9631C95.9644 51.9917 96.1645 53.011 96.559 53.9609C96.9536 54.9108 97.5346 55.7719 98.2677 56.4934C99.0009 57.2148 99.8713 57.7819 100.827 58.161C101.783 58.5402 102.806 58.7238 103.834 58.7009C104.863 58.7238 105.885 58.5402 106.841 58.1611C107.798 57.7819 108.668 57.2149 109.401 56.4935C110.135 55.7721 110.716 54.9109 111.111 53.9611C111.505 53.0112 111.705 51.9918 111.699 50.9631C111.708 49.9337 111.51 48.913 111.116 47.9618C110.723 47.0105 110.142 46.1483 109.408 45.4263C108.674 44.7043 107.802 44.1374 106.845 43.7593C105.887 43.3811 104.863 43.1996 103.834 43.2253ZM103.834 55.6526C103.233 55.643 102.64 55.5132 102.09 55.2708C101.54 55.0285 101.044 54.6785 100.631 54.2414C100.219 53.8044 99.8978 53.2892 99.6873 52.7262C99.4768 52.1632 99.3812 51.5637 99.406 50.9631C99.3783 50.3618 99.4719 49.761 99.6813 49.1966C99.8906 48.6322 100.212 48.1157 100.625 47.678C101.038 47.2402 101.535 46.8902 102.087 46.6486C102.638 46.4071 103.232 46.279 103.834 46.2721C104.436 46.2794 105.029 46.4078 105.58 46.6496C106.131 46.8914 106.627 47.2417 107.04 47.6795C107.452 48.1173 107.772 48.6337 107.98 49.1978C108.189 49.762 108.281 50.3624 108.253 50.9631C108.278 51.5629 108.183 52.1617 107.973 52.7242C107.764 53.2867 107.443 53.8016 107.032 54.2384C106.62 54.6753 106.125 55.0253 105.576 55.2679C105.027 55.5105 104.435 55.6407 103.834 55.6509V55.6526ZM83.4129 45.595V48.8836H91.3684C91.254 50.4262 90.6158 51.8835 89.5596 53.0137C88.7563 53.8163 87.7954 54.4439 86.7375 54.8567C85.6796 55.2695 84.5476 55.4587 83.4129 55.4124C82.2644 55.4192 81.126 55.198 80.0636 54.7615C79.0012 54.3251 78.036 53.6821 77.224 52.8698C76.412 52.0575 75.7694 51.0921 75.3333 50.0295C74.8973 48.967 74.6765 47.8285 74.6837 46.6799C74.6765 45.5314 74.8973 44.3929 75.3333 43.3303C75.7694 42.2678 76.412 41.3024 77.224 40.4901C78.036 39.6778 79.0012 39.0348 80.0636 38.5983C81.126 38.1619 82.2644 37.9407 83.4129 37.9475C85.6414 37.9122 87.7945 38.754 89.4081 40.2914L91.7552 37.9749C90.6517 36.9001 89.3465 36.0542 87.9148 35.4856C86.4832 34.9171 84.9532 34.6372 83.4129 34.6622C80.1869 34.6382 77.0812 35.886 74.7685 38.1353C72.4558 40.3846 71.1223 43.4545 71.0566 46.6799C71.1214 49.906 72.4546 52.9766 74.7674 55.2266C77.0802 57.4767 80.1863 58.7249 83.4129 58.7009C84.9877 58.7661 86.5585 58.4982 88.0227 57.9149C89.4869 57.3316 90.8115 56.4458 91.91 55.3156C93.8447 53.2374 94.8796 50.4787 94.7891 47.6407C94.7947 46.952 94.7348 46.2643 94.6102 45.587L83.4129 45.595ZM166.917 48.1437C166.438 46.7344 165.537 45.5066 164.336 44.6267C163.136 43.7469 161.694 43.2576 160.206 43.2253C159.206 43.2256 158.216 43.4286 157.297 43.822C156.378 44.2154 155.548 44.7912 154.857 45.5144C154.167 46.2376 153.63 47.0934 153.279 48.0299C152.929 48.9664 152.772 49.9642 152.818 50.9631C152.801 51.9869 152.992 53.0034 153.377 53.952C153.763 54.9006 154.335 55.7617 155.061 56.484C155.787 57.2063 156.651 57.7748 157.601 58.1558C158.552 58.5367 159.569 58.7221 160.593 58.7009C161.88 58.7132 163.151 58.4061 164.291 57.8072C165.432 57.2083 166.406 56.3362 167.126 55.2689L164.453 53.5118C164.048 54.1716 163.478 54.7153 162.8 55.0902C162.122 55.465 161.359 55.6582 160.585 55.6509C159.79 55.6827 159.005 55.4766 158.328 55.059C157.652 54.6414 157.116 54.0313 156.788 53.307L167.266 49.0255L166.917 48.1437ZM156.229 50.7213C156.196 50.1549 156.276 49.5876 156.465 49.0526C156.654 48.5176 156.948 48.0257 157.329 47.6054C157.71 47.1852 158.171 46.8452 158.686 46.6052C159.2 46.3652 159.756 46.23 160.323 46.2076C160.917 46.1677 161.509 46.302 162.027 46.5942C162.545 46.8863 162.967 47.3234 163.24 47.8519L156.229 50.7213ZM147.706 58.227H151.153V35.4875H147.706V58.227ZM142.064 44.947H141.946C141.419 44.386 140.78 43.9426 140.07 43.6459C139.36 43.3493 138.595 43.2059 137.826 43.2253C135.808 43.2825 133.892 44.1262 132.487 45.5764C131.082 47.0266 130.3 48.9684 130.307 50.9873C130.306 53 131.091 54.9335 132.496 56.3747C133.901 57.816 135.814 58.6509 137.826 58.7009C138.599 58.7212 139.367 58.5747 140.078 58.2715C140.79 57.9683 141.427 57.5155 141.948 56.9438H142.064V58.0561C142.064 61.0142 140.463 62.6037 137.873 62.6037C137.015 62.5816 136.183 62.3064 135.481 61.8128C134.779 61.3192 134.239 60.6291 133.928 59.8294L130.929 61.069C131.505 62.4349 132.473 63.599 133.711 64.4136C134.949 65.2281 136.402 65.6564 137.884 65.644C141.925 65.644 145.335 63.2969 145.335 57.5838V43.6944H142.062L142.064 44.947ZM138.122 55.6509C137.527 55.6382 136.941 55.5067 136.397 55.2641C135.854 55.0214 135.365 54.6726 134.958 54.2381C134.551 53.8037 134.235 53.2922 134.029 52.734C133.823 52.1757 133.73 51.5819 133.757 50.9873C133.727 50.3895 133.817 49.7919 134.022 49.2294C134.226 48.6668 134.541 48.1508 134.947 47.7114C135.354 47.2721 135.844 46.9184 136.389 46.6709C136.934 46.4235 137.522 46.2873 138.121 46.2705C138.709 46.2943 139.287 46.4365 139.819 46.6887C140.352 46.9408 140.828 47.2977 141.219 47.7381C141.61 48.1784 141.909 48.6931 142.096 49.2513C142.284 49.8096 142.358 50.4 142.312 50.9873C142.354 51.5712 142.278 52.1576 142.089 52.7114C141.899 53.2652 141.599 53.775 141.208 54.2104C140.817 54.6458 140.342 54.9978 139.811 55.2453C139.281 55.4928 138.706 55.6308 138.121 55.6509H138.122ZM183.055 35.4875H174.811V58.227H178.249V49.6106H183.055C184.017 49.6518 184.978 49.501 185.881 49.1669C186.785 48.8328 187.612 48.3222 188.316 47.6648C189.02 47.0073 189.586 46.2163 189.981 45.3379C190.376 44.4594 190.592 43.5111 190.617 42.5483C190.59 41.5861 190.373 40.6388 189.977 39.7613C189.582 38.8839 189.016 38.0938 188.312 37.4369C187.609 36.78 186.782 36.2694 185.879 35.9347C184.977 35.6001 184.017 35.4481 183.055 35.4875ZM183.145 46.4494H178.249V38.652H183.145C184.196 38.636 185.21 39.0374 185.966 39.768C186.721 40.4987 187.156 41.4991 187.175 42.5499C187.15 43.5989 186.714 44.596 185.959 45.3257C185.205 46.0554 184.194 46.459 183.145 46.4494ZM204.393 43.1818C203.145 43.107 201.901 43.3962 200.814 44.0143C199.727 44.6324 198.842 45.5528 198.268 46.6638L201.318 47.926C201.623 47.3727 202.083 46.92 202.641 46.623C203.199 46.326 203.831 46.1973 204.461 46.2528C205.328 46.1637 206.195 46.4212 206.873 46.969C207.551 47.5168 207.985 48.3105 208.08 49.177V49.4156C206.973 48.8321 205.74 48.5298 204.489 48.5354C201.203 48.5354 197.855 50.3199 197.855 53.652C197.891 54.3601 198.068 55.0537 198.377 55.6919C198.686 56.33 199.12 56.8996 199.653 57.3669C200.186 57.8342 200.807 58.1896 201.481 58.4121C202.154 58.6346 202.865 58.7197 203.571 58.6622C204.435 58.7136 205.297 58.5343 206.068 58.1428C206.84 57.7513 207.494 57.1617 207.962 56.4344H208.08V58.1915H211.393V49.4672C211.393 45.4354 208.344 43.1802 204.393 43.1802V43.1818ZM203.977 55.6381C202.849 55.6381 201.287 55.0883 201.287 53.7117C201.287 51.9513 203.241 51.2759 204.932 51.2759C206.028 51.2496 207.112 51.5132 208.074 52.04C207.94 53.0328 207.451 53.9438 206.698 54.605C205.946 55.2662 204.979 55.6331 203.977 55.6381ZM223.483 43.6783L219.537 53.5424H219.421L215.336 43.6848H211.628L217.767 57.4597L214.264 65.1249H217.857L227.313 43.6848L223.483 43.6783ZM192.505 58.227H195.951V35.4875H192.505V58.227Z" fill="white"/>
<path d="M14.6501 17.3666C14.0432 18.0757 13.7362 18.9933 13.7942 19.9249V60.155C13.7358 61.0863 14.0422 62.0039 14.6485 62.7133L14.7823 62.8358L37.625 40.3011V39.7691L14.7839 17.2344L14.6501 17.3666Z" fill="url(#paint0_linear)"/>
<path d="M45.229 47.8165L37.625 40.3012V39.7692L45.2387 32.2539L45.4095 32.3522L54.4273 37.4157C57.0066 38.852 57.0066 41.2169 54.4273 42.6645L45.4144 47.7198L45.229 47.8165Z" fill="url(#paint1_linear)"/>
<path d="M45.4088 47.7181L37.6242 40.0352L14.6494 62.7133C15.1783 63.1701 15.8487 63.4301 16.5472 63.4495C17.2457 63.4689 17.9295 63.2464 18.4828 62.8197L45.4039 47.7181" fill="url(#paint2_linear)"/>
<path d="M45.4088 32.3522L18.4877 17.2506C17.932 16.826 17.247 16.6057 16.5479 16.6269C15.8489 16.648 15.1785 16.9093 14.6494 17.3666L37.6226 40.0352L45.4088 32.3522Z" fill="url(#paint3_linear)"/>
<defs>
<linearGradient id="paint0_linear" x1="35.5987" y1="60.5557" x2="-0.911937" y2="50.7188" gradientUnits="userSpaceOnUse">
<stop stop-color="#00A0FF"/>
<stop offset="0.007" stop-color="#00A1FF"/>
<stop offset="0.26" stop-color="#00BEFF"/>
<stop offset="0.512" stop-color="#00D2FF"/>
<stop offset="0.76" stop-color="#00DFFF"/>
<stop offset="1" stop-color="#00E3FF"/>
</linearGradient>
<linearGradient id="paint1_linear" x1="57.7857" y1="40.0352" x2="13.1735" y2="40.0352" gradientUnits="userSpaceOnUse">
<stop stop-color="#FFE000"/>
<stop offset="0.409" stop-color="#FFBD00"/>
<stop offset="0.775" stop-color="#FFA500"/>
<stop offset="1" stop-color="#FF9C00"/>
</linearGradient>
<linearGradient id="paint2_linear" x1="41.164" y1="35.8438" x2="12.3559" y2="-13.2718" gradientUnits="userSpaceOnUse">
<stop stop-color="#FF3A44"/>
<stop offset="1" stop-color="#C31162"/>
</linearGradient>
<linearGradient id="paint3_linear" x1="8.86665" y1="76.1329" x2="21.7313" y2="54.1776" gradientUnits="userSpaceOnUse">
<stop stop-color="#32A071"/>
<stop offset="0.068" stop-color="#2DA771"/>
<stop offset="0.476" stop-color="#15CF74"/>
<stop offset="0.801" stop-color="#06E775"/>
<stop offset="1" stop-color="#00F076"/>
</linearGradient>
</defs>
</svg>
