<svg width="160" height="451" viewBox="0 0 160 451" fill="none" xmlns="http://www.w3.org/2000/svg">
<g opacity="0.6">
<path d="M141.518 299.367H191.568C191.568 299.367 200.988 273.694 188.721 255.572C163.699 218.605 197.824 199.271 210.902 189.054C230.628 173.613 239.324 153.667 215.598 140.725C188.76 126.086 212.419 87.1188 247.879 66.7768C282.571 46.8701 267.208 -26.2856 188.164 9.90341C140.96 31.5122 148.35 81.5625 146.101 107.725C143.851 133.887 104.918 136.049 118.221 168.007C129.593 195.309 151.207 215.211 134.714 233.983C118.221 252.755 116.495 273.772 141.518 299.367Z" fill="url(#paint0_linear)"/>
<path d="M163.161 304.014C163.043 303.369 151.422 238.743 159.248 171.197C163.84 131.492 174.146 98.5502 189.871 73.2927C209.562 41.6719 237.842 22.0685 273.934 15.0352L274.139 16.1063C193.089 31.9094 167.514 109.237 160.338 171.324C152.547 238.709 164.124 303.173 164.251 303.819L163.161 304.014Z" fill="#BEB8F2"/>
<path d="M157.638 215.637L156.572 215.388C168.502 165.098 237.158 152.469 237.823 152.469L237.857 153.559C237.187 153.623 169.431 165.9 157.638 215.637Z" fill="#BEB8F2"/>
<path d="M157.293 194.533C150.739 162.991 116.428 141.221 116.086 141.015L116.663 140.086C117.015 140.306 151.712 162.316 158.369 194.308L157.293 194.533Z" fill="#BEB8F2"/>
<path d="M159.655 278.398C157.141 263.671 134.49 246.977 127.046 241.494C126.25 240.952 125.487 240.363 124.762 239.729L125.579 239C125.72 239.152 126.635 239.831 127.696 240.614C135.229 246.16 158.143 263.049 160.731 278.217L159.655 278.398Z" fill="#BEB8F2"/>
<path d="M121.866 393.377C112.778 407.712 117.493 423.873 122.599 435.009C124.14 435.22 124.981 435.768 126.512 436.355C140.124 441.637 154.739 444.293 168.898 447.218C171.945 447.849 174.939 447.995 178.03 448.391L181.18 448.714C181.18 448.714 201.556 405.541 183.919 392.77C166.281 380 178.446 343.996 182.701 324.051C194.258 269.931 134.494 267.084 143.783 196.345C146.253 177.534 157.257 142.479 143.377 125.4C127.564 105.938 112.162 120.939 102.429 105.131C87.2222 80.4165 58.8149 68.5165 38.2137 89.152C17.8815 109.523 32.9802 157.417 80.5459 200.6C111.164 235.444 110.504 244.576 104.864 266.282C100.912 281.484 80.8443 319.795 99.6944 338.67C118.545 357.545 132.254 376.992 121.866 393.377Z" fill="url(#paint1_linear)"/>
<path d="M154.646 443.293H153.545C153.594 436.988 153.545 430.62 153.457 424.369C152.66 378.144 147.588 333.664 138.354 292.173C130.528 257.026 119.645 223.527 105.979 192.596C95.3468 168.385 82.5796 145.168 67.8291 123.221C58.236 108.94 47.6207 95.3722 36.0665 82.6251C34.159 80.5415 32.0852 78.502 30.075 76.5309C27.3702 73.875 24.5676 71.1507 22.1123 68.216L22.9585 67.5117C25.3746 70.4023 28.1577 73.1316 30.8478 75.7727C32.8629 77.7536 34.9514 79.803 36.8785 81.911C48.469 94.6952 59.1186 108.302 68.7438 122.624C83.5267 144.628 96.3217 167.903 106.977 192.175C120.672 223.165 131.589 256.737 139.42 291.953C148.664 333.527 153.756 378.065 154.548 424.364C154.66 430.6 154.695 436.978 154.646 443.293Z" fill="#FCFDFE"/>
<path d="M121.098 230.975C107.217 187.21 134.172 113.589 134.446 112.846L135.478 113.227C135.204 113.961 108.376 187.239 122.145 230.642L121.098 230.975Z" fill="#FCFDFE"/>
<path d="M148.976 355.783C143.161 325.673 91.7509 296.043 91.208 295.75L91.7509 294.771C92.2743 295.065 144.144 324.945 150.052 355.548L148.976 355.783Z" fill="#FCFDFE"/>
<path d="M150.808 373.423C150.543 352.88 161.113 324.786 180.57 294.329C180.99 293.669 181.357 293.092 181.411 292.984L181.832 293.19H182.467C182.467 293.395 182.467 293.395 181.489 294.921C162.145 325.202 151.654 353.076 151.903 373.408L150.808 373.423Z" fill="#FCFDFE"/>
<path d="M153.471 431.756C146.937 410.871 116.5 398.878 116.196 398.756L116.592 397.733C116.901 397.851 147.827 410.034 154.518 431.428L153.471 431.756Z" fill="#FCFDFE"/>
<path d="M155.164 443.607L154.132 443.225C160.49 426.107 171.906 410.279 189.098 394.804L189.837 395.625C172.777 410.954 161.434 426.649 155.164 443.607Z" fill="#FCFDFE"/>
<path d="M76.1002 135.844C67.0517 112.02 63.0802 84.9376 61.7743 76.0359C61.5493 74.4903 61.3683 73.2675 61.2852 73.0719L62.327 72.7246C62.4101 72.9838 62.5275 73.7371 62.8405 75.8794C64.1416 84.7469 68.0985 111.741 77.1029 135.458L76.1002 135.844Z" fill="#FCFDFE"/>
<path d="M96.4278 172.234C82.0872 153.824 33.8221 147.999 33.333 147.94L33.4601 146.85C35.4606 147.084 82.6839 152.792 97.3033 171.559L96.4278 172.234Z" fill="#FCFDFE"/>
<path d="M121.327 434.801C121.518 434.884 121.704 434.972 121.9 435.05C135.595 440.332 150.126 442.988 164.286 445.913C166.193 446.309 168.111 446.637 170.043 446.93C172.596 439.78 174.557 429.239 165.386 426.417C151.148 422.04 150.997 396.929 154.978 388.081C159.908 377.125 170.864 351.398 148.957 344.267C130.718 338.339 117.737 338.241 116.642 314.691C115.546 291.14 102.815 276.349 81.4261 277.582C58.9272 278.883 40.7617 248.832 22.2784 258.688C-9.92935 275.865 18.7177 327.97 57.6017 343.303C96.4857 358.637 74.0064 372.518 72.8031 391.774C71.1597 418.063 106.757 412.722 116.07 423.126C118.963 426.396 120.796 430.467 121.327 434.801Z" fill="url(#paint2_linear)"/>
<path d="M143.215 441.586C128.292 365.809 76.6962 297.647 8.5 263.693L8.98911 262.715C77.4641 296.815 129.309 365.276 144.286 441.376L143.215 441.586Z" fill="#FCFDFE"/>
<path d="M132.592 400.798H131.491C131.628 369.828 158.182 345.871 158.451 345.637L159.18 346.458C158.915 346.688 132.724 370.327 132.592 400.798Z" fill="#FCFDFE"/>
<path d="M140.076 427.667C125.804 400.928 70.2705 396.853 69.708 396.853L69.7862 395.758C70.3487 395.792 126.488 399.891 141.049 427.158L140.076 427.667Z" fill="#FCFDFE"/>
<path d="M94.1047 334.612C84.2688 311.658 99.2794 276.687 99.436 276.34L100.444 276.775C100.292 277.122 85.4671 311.663 95.1172 334.182L94.1047 334.612Z" fill="#FCFDFE"/>
<path d="M60.4487 298.68C37.0694 284.159 0.606488 291.984 0.239658 292.082L0 291.011C0.371721 290.928 37.2749 283.009 61.0112 297.746L60.4487 298.68Z" fill="#FCFDFE"/>
<path d="M184.642 448.703L185.004 450.484C154.19 450.269 116.93 435.424 116.568 435.272C116.304 435.165 116.935 433.248 117.057 432.979C117.109 432.85 117.21 432.748 117.337 432.694C117.465 432.64 117.608 432.638 117.737 432.69C118.099 432.842 154.063 447.442 184.656 447.657C184.795 447.657 184.928 447.712 185.027 447.81C185.125 447.908 185.18 448.041 185.18 448.18C185.18 448.319 185.125 448.452 185.027 448.55C184.928 448.648 184.795 448.703 184.656 448.703H184.642Z" fill="#5A2F71"/>
</g>
<defs>
<linearGradient id="paint0_linear" x1="305187" y1="233368" x2="213565" y2="363776" gradientUnits="userSpaceOnUse">
<stop stop-color="#AA80F9"/>
<stop offset="1" stop-color="#6165D7"/>
</linearGradient>
<linearGradient id="paint1_linear" x1="307716" y1="536779" x2="138600" y2="409010" gradientUnits="userSpaceOnUse">
<stop stop-color="#FFC444"/>
<stop offset="1" stop-color="#F36F56"/>
</linearGradient>
<linearGradient id="paint2_linear" x1="273435" y1="250144" x2="319652" y2="315663" gradientUnits="userSpaceOnUse">
<stop stop-color="#E38DDD"/>
<stop offset="1" stop-color="#9571F6"/>
</linearGradient>
</defs>
</svg>
