<svg width="1920" height="645" viewBox="0 0 1920 645" fill="none" xmlns="http://www.w3.org/2000/svg">
<path d="M1920 500.179V161.732C1526.77 352.985 1226.33 366.002 1034.73 311.43C843.135 256.857 638.997 138.701 354.608 71.6125C127.097 17.9415 23.4065 24.884 0 35.0641V252.352C25.9143 247.178 125.292 239.935 315.486 252.352C553.229 267.872 571.787 347.477 1169.66 549.244C1647.95 710.658 1869.17 583.79 1920 500.179Z" fill="#FF5762"/>
<g filter="url(#filter0_d)">
<path d="M-1 115.644C53.2373 81.1245 222.591 14.6875 466.108 25.0933C770.504 38.1005 1012.82 223.203 1324.22 313.753C1635.44 404.249 1749.64 393.31 1919.7 313.895C1919.79 313.801 1919.9 313.753 1920 313.753C1919.9 313.8 1919.8 313.848 1919.7 313.895C1913.4 319.944 1920 517.597 1920 619.923C1848.57 626.76 1629.42 604.215 1324.22 459.334C942.728 278.233 594.275 295.743 362.473 370.785C177.032 430.818 42.8904 498.856 -1 525.371V115.644Z" fill="#FF3340"/>
</g>
<defs>
<filter id="filter0_d" x="-25" y="0" width="1969" height="645" filterUnits="userSpaceOnUse" color-interpolation-filters="sRGB">
<feFlood flood-opacity="0" result="BackgroundImageFix"/>
<feColorMatrix in="SourceAlpha" type="matrix" values="0 0 0 0 0 0 0 0 0 0 0 0 0 0 0 0 0 0 127 0"/>
<feOffset/>
<feGaussianBlur stdDeviation="12"/>
<feColorMatrix type="matrix" values="0 0 0 0 0 0 0 0 0 0 0 0 0 0 0 0 0 0 0.2 0"/>
<feBlend mode="normal" in2="BackgroundImageFix" result="effect1_dropShadow"/>
<feBlend mode="normal" in="SourceGraphic" in2="effect1_dropShadow" result="shape"/>
</filter>
</defs>
</svg>
