<svg width="41" height="41" viewBox="0 0 41 41" fill="none" xmlns="http://www.w3.org/2000/svg">
<path d="M20.4997 41C15.0629 41 9.84867 38.8402 6.00422 34.9958C2.15978 31.1513 7.96989e-09 25.9371 7.96989e-09 20.5003C-7.50585e-05 17.8082 0.530124 15.1424 1.5603 12.6552C2.59047 10.168 4.10045 7.90806 6.00403 6.00443C7.90761 4.1008 10.1675 2.59074 12.6547 1.5605C15.1419 0.530259 17.8076 -1.04658e-09 20.4997 0C25.9367 0 31.1511 2.15985 34.9956 6.0044C38.8401 9.84894 41 15.0633 41 20.5003C40.9998 25.9372 38.8399 31.1514 34.9954 34.9958C31.1509 38.8402 25.9366 41 20.4997 41Z" fill="url(#paint0_radial)"/>
<path d="M20.4999 11.2855C23.5015 11.2855 23.857 11.2969 25.042 11.3506C25.7549 11.3592 26.461 11.4903 27.1295 11.7382C27.614 11.9253 28.054 12.2118 28.4213 12.579C28.7886 12.9463 29.075 13.3863 29.2622 13.8709C29.51 14.5394 29.6411 15.2455 29.6497 15.9584C29.7034 17.1433 29.7149 17.4989 29.7149 20.5004C29.7149 23.502 29.7034 23.8569 29.6497 25.0425C29.6412 25.7552 29.5101 26.4611 29.2622 27.1294C29.0751 27.6141 28.7888 28.0542 28.4215 28.4216C28.0542 28.789 27.6141 29.0755 27.1295 29.2627C26.461 29.5105 25.7549 29.6414 25.042 29.6496C23.857 29.7034 23.4986 29.7154 20.4999 29.7154C17.5013 29.7154 17.1434 29.7034 15.9579 29.6496C15.2452 29.6415 14.5392 29.5106 13.871 29.2627C13.3862 29.0756 12.946 28.7892 12.5786 28.4218C12.2112 28.0544 11.9247 27.6142 11.7377 27.1294C11.4903 26.461 11.3594 25.7551 11.3507 25.0425C11.2964 23.8569 11.2856 23.4991 11.2856 20.5004C11.2856 17.5017 11.2964 17.1433 11.3507 15.9584C11.3595 15.2456 11.4904 14.5395 11.7377 13.8709C11.9249 13.3863 12.2113 12.9462 12.5787 12.5789C12.9461 12.2116 13.3863 11.9252 13.871 11.7382C14.5392 11.4902 15.2452 11.3591 15.9579 11.3506C17.1434 11.2969 17.5013 11.2855 20.4999 11.2855ZM20.4999 9.26025C17.4475 9.26025 17.0646 9.2734 15.8659 9.3277C14.9335 9.3465 14.011 9.52316 13.1376 9.85016C12.3909 10.1389 11.7128 10.5805 11.1467 11.1466C10.5806 11.7127 10.139 12.3908 9.85023 13.1375C9.52301 14.0108 9.34637 14.9334 9.3278 15.8658C9.27064 17.0662 9.25977 17.4474 9.25977 20.5004C9.25977 23.5534 9.27292 23.9358 9.3278 25.1345C9.34638 26.0671 9.52302 26.9898 9.85023 27.8633C10.139 28.61 10.5806 29.2882 11.1467 29.8543C11.7128 30.4204 12.3909 30.8619 13.1376 31.1507C14.0111 31.4774 14.9335 31.6541 15.8659 31.6731C17.0663 31.7303 17.4475 31.7406 20.4999 31.7406C23.5523 31.7406 23.9353 31.7274 25.1346 31.6731C26.0669 31.654 26.9894 31.4774 27.8629 31.1507C28.6096 30.8619 29.2877 30.4204 29.8538 29.8543C30.4199 29.2882 30.8614 28.61 31.1502 27.8633C31.4771 26.9897 31.6538 26.0671 31.6727 25.1345C31.7298 23.9341 31.7401 23.5528 31.7401 20.5004C31.7401 17.448 31.727 17.065 31.6727 15.8658C31.6538 14.9334 31.4772 14.0109 31.1502 13.1375C30.8614 12.3908 30.4199 11.7127 29.8538 11.1466C29.2877 10.5805 28.6096 10.1389 27.8629 9.85016C26.9895 9.52321 26.067 9.34656 25.1346 9.3277C23.9342 9.27054 23.5529 9.26025 20.4999 9.26025Z" fill="white"/>
<path d="M20.4998 14.728C19.358 14.728 18.2418 15.0666 17.2924 15.701C16.343 16.3354 15.603 17.237 15.166 18.292C14.7291 19.3469 14.6147 20.5077 14.8375 21.6276C15.0603 22.7475 15.6101 23.7762 16.4175 24.5836C17.2249 25.391 18.2536 25.9409 19.3735 26.1637C20.4934 26.3864 21.6542 26.2721 22.7092 25.8351C23.7641 25.3982 24.6658 24.6582 25.3001 23.7088C25.9345 22.7594 26.2731 21.6432 26.2731 20.5013C26.2731 18.9701 25.6649 17.5017 24.5822 16.419C23.4995 15.3363 22.031 14.728 20.4998 14.728ZM20.4998 24.2471C19.7588 24.2471 19.0343 24.0273 18.4182 23.6156C17.802 23.2039 17.3217 22.6187 17.0381 21.934C16.7545 21.2494 16.6803 20.496 16.8249 19.7692C16.9695 19.0423 17.3264 18.3747 17.8504 17.8507C18.3744 17.3267 19.042 16.9698 19.7689 16.8252C20.4957 16.6807 21.2491 16.7549 21.9337 17.0385C22.6184 17.3221 23.2036 17.8023 23.6153 18.4185C24.027 19.0347 24.2467 19.7591 24.2467 20.5002C24.2468 20.9922 24.15 21.4795 23.9617 21.9341C23.7734 22.3888 23.4974 22.8019 23.1495 23.1498C22.8015 23.4977 22.3884 23.7737 21.9338 23.962C21.4792 24.1503 20.9919 24.2472 20.4998 24.2471Z" fill="white"/>
<path d="M27.8504 14.5003C27.8505 14.7671 27.7714 15.028 27.6233 15.2499C27.4751 15.4718 27.2645 15.6448 27.018 15.747C26.7715 15.8492 26.5002 15.876 26.2385 15.824C25.9768 15.772 25.7364 15.6436 25.5477 15.4549C25.359 15.2663 25.2304 15.0259 25.1783 14.7642C25.1262 14.5025 25.1529 14.2313 25.255 13.9848C25.3571 13.7382 25.53 13.5275 25.7518 13.3792C25.9737 13.231 26.2345 13.1519 26.5013 13.1519C26.859 13.152 27.2019 13.2941 27.4549 13.5469C27.7078 13.7998 27.8501 14.1427 27.8504 14.5003Z" fill="white"/>
<defs>
<radialGradient id="paint0_radial" cx="0" cy="0" r="1" gradientUnits="userSpaceOnUse" gradientTransform="translate(-1.025 41.123) scale(75.809)">
<stop stop-color="#F5EC53"/>
<stop offset="0.241" stop-color="#E48244"/>
<stop offset="0.397" stop-color="#D05667"/>
<stop offset="0.489" stop-color="#C84278"/>
<stop offset="1" stop-color="#192CFA"/>
</radialGradient>
</defs>
</svg>
