<svg width="703" height="650" viewBox="0 0 703 650" fill="none" xmlns="http://www.w3.org/2000/svg">
<rect opacity="0.3" x="-273" y="185" width="828" height="337" fill="#FF1F2D"/>
<g filter="url(#filter0_d)">
<rect x="292" y="11" width="177" height="190" rx="10" fill="#F8F8F8"/>
</g>
<circle cx="380" cy="77" r="51" fill="white"/>
<circle cx="379.757" cy="76.7567" r="37.5789" fill="#04A777"/>
<g clip-path="url(#clip0)">
<path d="M378.174 76.6836H361.213V62.8086H378.174V76.6836Z" fill="white"/>
<path d="M398.214 86.1149H380.639V62.8086H398.212V86.1149H398.214Z" fill="white"/>
<path d="M378.174 99.8092H361.213V79.7676H378.174V99.8092Z" fill="white"/>
<path d="M398.212 99.8064H380.637V89.0781H398.21V99.8064H398.212Z" fill="white"/>
</g>
<path d="M340.25 159.608H344.234C346.079 159.608 347.509 160.104 348.522 161.096C349.535 162.088 350.042 163.485 350.042 165.288C350.042 167.101 349.535 168.509 348.522 169.512C347.509 170.504 346.079 171 344.234 171H340.25V159.608ZM344.138 169.624C346.943 169.624 348.346 168.179 348.346 165.288C348.346 162.419 346.943 160.984 344.138 160.984H341.898V169.624H344.138ZM359.529 162.936V171H357.929V169.624C357.694 170.104 357.342 170.472 356.873 170.728C356.414 170.984 355.875 171.112 355.257 171.112C354.542 171.112 353.913 170.941 353.369 170.6C352.835 170.259 352.419 169.779 352.121 169.16C351.822 168.531 351.673 167.8 351.673 166.968C351.673 166.136 351.822 165.4 352.121 164.76C352.43 164.12 352.857 163.624 353.401 163.272C353.945 162.92 354.563 162.744 355.257 162.744C355.875 162.744 356.414 162.877 356.873 163.144C357.331 163.4 357.683 163.768 357.929 164.248V162.936H359.529ZM355.641 169.832C356.366 169.832 356.926 169.581 357.321 169.08C357.726 168.568 357.929 167.853 357.929 166.936C357.929 166.008 357.726 165.293 357.321 164.792C356.926 164.291 356.361 164.04 355.625 164.04C354.899 164.04 354.329 164.301 353.913 164.824C353.507 165.336 353.305 166.051 353.305 166.968C353.305 167.875 353.507 168.579 353.913 169.08C354.329 169.581 354.905 169.832 355.641 169.832ZM364.719 171.112C363.311 171.112 362.201 170.771 361.391 170.088L361.871 168.92C362.713 169.56 363.679 169.88 364.767 169.88C365.321 169.88 365.743 169.789 366.031 169.608C366.319 169.416 366.463 169.149 366.463 168.808C366.463 168.52 366.361 168.296 366.159 168.136C365.967 167.965 365.636 167.821 365.167 167.704L363.823 167.384C363.119 167.235 362.58 166.973 362.207 166.6C361.844 166.216 361.663 165.741 361.663 165.176C361.663 164.451 361.951 163.864 362.527 163.416C363.113 162.968 363.887 162.744 364.847 162.744C365.423 162.744 365.967 162.835 366.479 163.016C367.001 163.197 367.444 163.453 367.807 163.784L367.311 164.92C366.532 164.301 365.711 163.992 364.847 163.992C364.324 163.992 363.919 164.093 363.631 164.296C363.343 164.488 363.199 164.76 363.199 165.112C363.199 165.389 363.289 165.613 363.471 165.784C363.652 165.955 363.94 166.088 364.335 166.184L365.711 166.52C366.479 166.691 367.044 166.963 367.407 167.336C367.78 167.699 367.967 168.173 367.967 168.76C367.967 169.485 367.673 170.061 367.087 170.488C366.511 170.904 365.721 171.112 364.719 171.112ZM374.16 162.744C376.09 162.744 377.056 163.821 377.056 165.976V171H375.44V166.072C375.44 165.368 375.301 164.856 375.024 164.536C374.757 164.216 374.325 164.056 373.728 164.056C373.045 164.056 372.496 164.269 372.08 164.696C371.674 165.123 371.472 165.693 371.472 166.408V171H369.872V159.224H371.472V164.184C371.738 163.715 372.106 163.357 372.576 163.112C373.045 162.867 373.573 162.744 374.16 162.744ZM383.628 162.744C384.332 162.744 384.956 162.915 385.5 163.256C386.044 163.597 386.465 164.083 386.764 164.712C387.063 165.341 387.212 166.072 387.212 166.904C387.212 167.736 387.057 168.472 386.748 169.112C386.449 169.741 386.028 170.232 385.484 170.584C384.94 170.936 384.321 171.112 383.628 171.112C383.009 171.112 382.465 170.984 381.996 170.728C381.537 170.461 381.191 170.083 380.956 169.592V171H379.356V159.224H380.956V164.264C381.191 163.784 381.537 163.411 381.996 163.144C382.465 162.877 383.009 162.744 383.628 162.744ZM383.26 169.832C383.985 169.832 384.551 169.576 384.956 169.064C385.361 168.541 385.564 167.821 385.564 166.904C385.564 165.997 385.361 165.293 384.956 164.792C384.551 164.291 383.985 164.04 383.26 164.04C382.524 164.04 381.953 164.291 381.548 164.792C381.153 165.293 380.956 166.008 380.956 166.936C380.956 167.864 381.153 168.579 381.548 169.08C381.953 169.581 382.524 169.832 383.26 169.832ZM392.578 171.112C391.789 171.112 391.095 170.941 390.498 170.6C389.901 170.259 389.437 169.773 389.106 169.144C388.786 168.515 388.626 167.779 388.626 166.936C388.626 166.093 388.786 165.357 389.106 164.728C389.437 164.088 389.901 163.597 390.498 163.256C391.095 162.915 391.789 162.744 392.578 162.744C393.357 162.744 394.045 162.915 394.642 163.256C395.239 163.597 395.698 164.088 396.018 164.728C396.349 165.357 396.514 166.093 396.514 166.936C396.514 167.779 396.349 168.515 396.018 169.144C395.698 169.773 395.239 170.259 394.642 170.6C394.045 170.941 393.357 171.112 392.578 171.112ZM392.562 169.832C393.309 169.832 393.879 169.587 394.274 169.096C394.669 168.605 394.866 167.885 394.866 166.936C394.866 166.008 394.663 165.293 394.258 164.792C393.863 164.291 393.303 164.04 392.578 164.04C391.842 164.04 391.271 164.291 390.866 164.792C390.461 165.293 390.258 166.008 390.258 166.936C390.258 167.885 390.455 168.605 390.85 169.096C391.255 169.587 391.826 169.832 392.562 169.832ZM405.779 162.936V171H404.179V169.624C403.944 170.104 403.592 170.472 403.123 170.728C402.664 170.984 402.125 171.112 401.507 171.112C400.792 171.112 400.163 170.941 399.619 170.6C399.085 170.259 398.669 169.779 398.371 169.16C398.072 168.531 397.923 167.8 397.923 166.968C397.923 166.136 398.072 165.4 398.371 164.76C398.68 164.12 399.107 163.624 399.651 163.272C400.195 162.92 400.813 162.744 401.507 162.744C402.125 162.744 402.664 162.877 403.123 163.144C403.581 163.4 403.933 163.768 404.179 164.248V162.936H405.779ZM401.891 169.832C402.616 169.832 403.176 169.581 403.571 169.08C403.976 168.568 404.179 167.853 404.179 166.936C404.179 166.008 403.976 165.293 403.571 164.792C403.176 164.291 402.611 164.04 401.875 164.04C401.149 164.04 400.579 164.301 400.163 164.824C399.757 165.336 399.555 166.051 399.555 166.968C399.555 167.875 399.757 168.579 400.163 169.08C400.579 169.581 401.155 169.832 401.891 169.832ZM412.169 162.744C412.414 162.744 412.67 162.781 412.937 162.856L412.905 164.328C412.617 164.221 412.302 164.168 411.961 164.168C411.225 164.168 410.67 164.392 410.297 164.84C409.934 165.277 409.753 165.832 409.753 166.504V171H408.153V165.208C408.153 164.365 408.11 163.608 408.025 162.936H409.529L409.673 164.392C409.886 163.859 410.217 163.453 410.665 163.176C411.113 162.888 411.614 162.744 412.169 162.744ZM421.388 159.224V171H419.788V169.624C419.553 170.104 419.201 170.472 418.732 170.728C418.273 170.984 417.735 171.112 417.116 171.112C416.423 171.112 415.804 170.936 415.26 170.584C414.716 170.232 414.289 169.741 413.98 169.112C413.681 168.472 413.532 167.736 413.532 166.904C413.532 166.072 413.681 165.341 413.98 164.712C414.279 164.083 414.695 163.597 415.228 163.256C415.772 162.915 416.401 162.744 417.116 162.744C417.724 162.744 418.257 162.872 418.716 163.128C419.185 163.384 419.537 163.747 419.772 164.216V159.224H421.388ZM417.484 169.832C418.22 169.832 418.785 169.581 419.18 169.08C419.585 168.568 419.788 167.853 419.788 166.936C419.788 166.019 419.585 165.309 419.18 164.808C418.785 164.296 418.225 164.04 417.5 164.04C416.764 164.04 416.188 164.291 415.772 164.792C415.367 165.293 415.164 165.997 415.164 166.904C415.164 167.821 415.367 168.541 415.772 169.064C416.188 169.576 416.759 169.832 417.484 169.832Z" fill="#1C1D24"/>
<g filter="url(#filter1_d)">
<rect x="90" y="69" width="177" height="190" rx="10" fill="#F8F8F8"/>
</g>
<circle cx="178" cy="135" r="51" fill="white"/>
<circle cx="177.997" cy="135.001" r="37.5789" fill="#FF424D"/>
<path fill-rule="evenodd" clip-rule="evenodd" d="M178 135.008L172.748 135.013C171.279 135.188 170.279 137.214 171.349 138.103C172.316 138.8 172.947 139.932 172.947 141.213C172.946 143.328 171.231 145.041 169.117 145.041C167.001 145.039 165.288 143.326 165.289 141.211C165.289 139.929 165.922 138.797 166.889 138.102C167.936 137.232 166.954 135.272 165.581 135.021L160.238 135.027V117.238H178.002V122.558C177.986 123.955 175.996 125.044 175.139 124.014C174.495 123.118 173.448 122.533 172.263 122.532C170.306 122.532 168.719 124.117 168.718 126.074C168.718 128.031 170.303 129.618 172.26 129.618C173.446 129.619 174.493 129.035 175.137 128.14C175.999 127.105 178.003 128.158 178.002 129.617V129.68V134.996L183.254 134.99C184.723 134.816 185.723 132.79 184.654 131.901C183.686 131.204 183.055 130.072 183.055 128.79C183.057 126.676 184.771 124.963 186.886 124.963C189.001 124.964 190.714 126.678 190.714 128.793C190.713 130.075 190.081 131.207 189.113 131.902C188.067 132.771 189.048 134.731 190.421 134.983L195.764 134.977V152.765H178V147.446C178.016 146.049 180.006 144.96 180.864 145.99C181.507 146.886 182.554 147.471 183.74 147.471C185.697 147.472 187.283 145.887 187.284 143.929C187.285 141.973 185.699 140.385 183.742 140.385C182.556 140.385 181.509 140.969 180.865 141.863C180.003 142.899 177.999 141.846 178 140.386V140.324V135.008Z" fill="white"/>
<path d="M144.649 229.128C143.55 229.128 142.59 228.893 141.769 228.424C140.958 227.944 140.334 227.267 139.897 226.392C139.459 225.517 139.241 224.483 139.241 223.288C139.241 222.104 139.459 221.075 139.897 220.2C140.334 219.325 140.958 218.653 141.769 218.184C142.59 217.715 143.55 217.48 144.649 217.48C145.427 217.48 146.147 217.603 146.809 217.848C147.481 218.083 148.046 218.429 148.505 218.888L147.929 220.104C147.395 219.667 146.867 219.352 146.345 219.16C145.833 218.957 145.273 218.856 144.665 218.856C143.481 218.856 142.563 219.24 141.913 220.008C141.273 220.776 140.953 221.869 140.953 223.288C140.953 224.717 141.273 225.821 141.913 226.6C142.563 227.368 143.481 227.752 144.665 227.752C145.273 227.752 145.833 227.656 146.345 227.464C146.867 227.261 147.395 226.941 147.929 226.504L148.505 227.72C148.046 228.179 147.481 228.531 146.809 228.776C146.147 229.011 145.427 229.128 144.649 229.128ZM157.654 220.936V229H156.054V227.624C155.819 228.104 155.467 228.472 154.998 228.728C154.539 228.984 154 229.112 153.382 229.112C152.667 229.112 152.038 228.941 151.494 228.6C150.96 228.259 150.544 227.779 150.246 227.16C149.947 226.531 149.798 225.8 149.798 224.968C149.798 224.136 149.947 223.4 150.246 222.76C150.555 222.12 150.982 221.624 151.526 221.272C152.07 220.92 152.688 220.744 153.382 220.744C154 220.744 154.539 220.877 154.998 221.144C155.456 221.4 155.808 221.768 156.054 222.248V220.936H157.654ZM153.766 227.832C154.491 227.832 155.051 227.581 155.446 227.08C155.851 226.568 156.054 225.853 156.054 224.936C156.054 224.008 155.851 223.293 155.446 222.792C155.051 222.291 154.486 222.04 153.75 222.04C153.024 222.04 152.454 222.301 152.038 222.824C151.632 223.336 151.43 224.051 151.43 224.968C151.43 225.875 151.632 226.579 152.038 227.08C152.454 227.581 153.03 227.832 153.766 227.832ZM162.124 222.184V226.232C162.124 226.787 162.241 227.181 162.476 227.416C162.721 227.64 163.057 227.752 163.484 227.752C163.761 227.752 164.044 227.709 164.332 227.624V228.936C163.98 229.053 163.58 229.112 163.132 229.112C162.3 229.112 161.654 228.877 161.196 228.408C160.737 227.939 160.508 227.256 160.508 226.36V222.184H158.94V220.936H160.508V218.92L162.124 218.36V220.936H164.348V222.184H162.124ZM172.72 225H166.96C167.014 226.888 167.872 227.832 169.536 227.832C170.464 227.832 171.312 227.528 172.08 226.92L172.576 228.072C172.214 228.392 171.75 228.648 171.184 228.84C170.63 229.021 170.07 229.112 169.504 229.112C168.214 229.112 167.2 228.744 166.464 228.008C165.728 227.261 165.36 226.243 165.36 224.952C165.36 224.131 165.52 223.4 165.84 222.76C166.171 222.12 166.63 221.624 167.216 221.272C167.803 220.92 168.47 220.744 169.216 220.744C170.304 220.744 171.158 221.096 171.776 221.8C172.406 222.504 172.72 223.48 172.72 224.728V225ZM169.248 221.944C168.64 221.944 168.144 222.125 167.76 222.488C167.376 222.851 167.131 223.368 167.024 224.04H171.296C171.232 223.357 171.024 222.84 170.672 222.488C170.32 222.125 169.846 221.944 169.248 221.944ZM182.015 220.936V228.856C182.015 230.083 181.689 231.005 181.039 231.624C180.399 232.253 179.444 232.568 178.175 232.568C176.948 232.568 175.876 232.301 174.959 231.768L175.231 230.504C175.732 230.771 176.212 230.968 176.671 231.096C177.14 231.224 177.636 231.288 178.159 231.288C179.663 231.288 180.415 230.52 180.415 228.984V227.24C180.169 227.709 179.812 228.083 179.343 228.36C178.873 228.627 178.329 228.76 177.711 228.76C177.007 228.76 176.377 228.595 175.823 228.264C175.279 227.933 174.852 227.464 174.543 226.856C174.244 226.248 174.095 225.549 174.095 224.76C174.095 223.971 174.244 223.272 174.543 222.664C174.852 222.056 175.279 221.587 175.823 221.256C176.377 220.915 177.007 220.744 177.711 220.744C178.329 220.744 178.873 220.877 179.343 221.144C179.812 221.4 180.169 221.768 180.415 222.248V220.936H182.015ZM178.079 227.464C178.804 227.464 179.375 227.224 179.791 226.744C180.207 226.264 180.415 225.603 180.415 224.76C180.415 223.917 180.207 223.256 179.791 222.776C179.385 222.285 178.815 222.04 178.079 222.04C177.353 222.04 176.777 222.285 176.351 222.776C175.935 223.256 175.727 223.917 175.727 224.76C175.727 225.592 175.935 226.253 176.351 226.744C176.777 227.224 177.353 227.464 178.079 227.464ZM187.859 229.112C187.07 229.112 186.376 228.941 185.779 228.6C185.182 228.259 184.718 227.773 184.387 227.144C184.067 226.515 183.907 225.779 183.907 224.936C183.907 224.093 184.067 223.357 184.387 222.728C184.718 222.088 185.182 221.597 185.779 221.256C186.376 220.915 187.07 220.744 187.859 220.744C188.638 220.744 189.326 220.915 189.923 221.256C190.52 221.597 190.979 222.088 191.299 222.728C191.63 223.357 191.795 224.093 191.795 224.936C191.795 225.779 191.63 226.515 191.299 227.144C190.979 227.773 190.52 228.259 189.923 228.6C189.326 228.941 188.638 229.112 187.859 229.112ZM187.843 227.832C188.59 227.832 189.16 227.587 189.555 227.096C189.95 226.605 190.147 225.885 190.147 224.936C190.147 224.008 189.944 223.293 189.539 222.792C189.144 222.291 188.584 222.04 187.859 222.04C187.123 222.04 186.552 222.291 186.147 222.792C185.742 223.293 185.539 224.008 185.539 224.936C185.539 225.885 185.736 226.605 186.131 227.096C186.536 227.587 187.107 227.832 187.843 227.832ZM197.7 220.744C197.945 220.744 198.201 220.781 198.468 220.856L198.436 222.328C198.148 222.221 197.833 222.168 197.492 222.168C196.756 222.168 196.201 222.392 195.828 222.84C195.465 223.277 195.284 223.832 195.284 224.504V229H193.684V223.208C193.684 222.365 193.641 221.608 193.556 220.936H195.06L195.204 222.392C195.417 221.859 195.748 221.453 196.196 221.176C196.644 220.888 197.145 220.744 197.7 220.744ZM199.7 220.936H201.3V229H199.7V220.936ZM201.428 217.416V219.112H199.556V217.416H201.428ZM210.548 225H204.788C204.842 226.888 205.7 227.832 207.364 227.832C208.292 227.832 209.14 227.528 209.908 226.92L210.404 228.072C210.042 228.392 209.578 228.648 209.012 228.84C208.458 229.021 207.898 229.112 207.332 229.112C206.042 229.112 205.028 228.744 204.292 228.008C203.556 227.261 203.188 226.243 203.188 224.952C203.188 224.131 203.348 223.4 203.668 222.76C203.999 222.12 204.458 221.624 205.044 221.272C205.631 220.92 206.298 220.744 207.044 220.744C208.132 220.744 208.986 221.096 209.604 221.8C210.234 222.504 210.548 223.48 210.548 224.728V225ZM207.076 221.944C206.468 221.944 205.972 222.125 205.588 222.488C205.204 222.851 204.959 223.368 204.852 224.04H209.124C209.06 223.357 208.852 222.84 208.5 222.488C208.148 222.125 207.674 221.944 207.076 221.944ZM215.219 229.112C213.811 229.112 212.701 228.771 211.891 228.088L212.371 226.92C213.213 227.56 214.179 227.88 215.267 227.88C215.821 227.88 216.243 227.789 216.531 227.608C216.819 227.416 216.963 227.149 216.963 226.808C216.963 226.52 216.861 226.296 216.659 226.136C216.467 225.965 216.136 225.821 215.667 225.704L214.323 225.384C213.619 225.235 213.08 224.973 212.707 224.6C212.344 224.216 212.163 223.741 212.163 223.176C212.163 222.451 212.451 221.864 213.027 221.416C213.613 220.968 214.387 220.744 215.347 220.744C215.923 220.744 216.467 220.835 216.979 221.016C217.501 221.197 217.944 221.453 218.307 221.784L217.811 222.92C217.032 222.301 216.211 221.992 215.347 221.992C214.824 221.992 214.419 222.093 214.131 222.296C213.843 222.488 213.699 222.76 213.699 223.112C213.699 223.389 213.789 223.613 213.971 223.784C214.152 223.955 214.44 224.088 214.835 224.184L216.211 224.52C216.979 224.691 217.544 224.963 217.907 225.336C218.28 225.699 218.467 226.173 218.467 226.76C218.467 227.485 218.173 228.061 217.587 228.488C217.011 228.904 216.221 229.112 215.219 229.112Z" fill="#1C1D24"/>
<g filter="url(#filter2_d)">
<rect x="108" y="284" width="177" height="190" rx="10" fill="#F8F8F8"/>
</g>
<circle cx="196" cy="350" r="51" fill="white"/>
<circle cx="195.997" cy="350.003" r="37.5789" fill="#5158BB"/>
<path fill-rule="evenodd" clip-rule="evenodd" d="M181.797 343.806L194.815 351.245V366.998L181.797 359.559V343.806ZM210.203 343.806L197.185 351.245V366.998L210.203 359.559V343.806ZM196.007 349.072L181.942 341.035L196.007 332.998L210.058 341.035L196.007 349.072Z" fill="white"/>
<path d="M145.548 442V430.608H146.668L153.772 440.032L153.372 440.144V430.608H154.78V442H153.644L146.556 432.592L146.924 432.464V442H145.548ZM164.013 441.056C163.661 441.387 163.207 441.648 162.653 441.84C162.098 442.021 161.533 442.112 160.957 442.112C160.114 442.112 159.389 441.947 158.781 441.616C158.173 441.285 157.703 440.811 157.373 440.192C157.042 439.563 156.877 438.816 156.877 437.952C156.877 437.12 157.037 436.389 157.357 435.76C157.687 435.131 158.141 434.64 158.717 434.288C159.293 433.925 159.954 433.744 160.701 433.744C161.426 433.744 162.045 433.904 162.557 434.224C163.079 434.544 163.474 435.003 163.741 435.6C164.018 436.187 164.157 436.891 164.157 437.712V437.968H158.157V437.072H163.325L162.877 437.648C162.898 436.741 162.722 436.048 162.349 435.568C161.975 435.088 161.431 434.848 160.717 434.848C159.97 434.848 159.383 435.115 158.957 435.648C158.541 436.171 158.333 436.907 158.333 437.856C158.333 438.88 158.557 439.653 159.005 440.176C159.453 440.688 160.114 440.944 160.989 440.944C161.458 440.944 161.906 440.869 162.333 440.72C162.759 440.56 163.165 440.325 163.549 440.016L164.013 441.056ZM168.158 442L165.134 433.952H166.654L169.086 440.848H168.67L171.182 433.952H172.382L174.846 440.848H174.446L176.91 433.952H178.35L175.326 442H173.966L171.358 434.912H172.11L169.518 442H168.158ZM184.314 442V430.608H188.938C190.122 430.608 191.044 430.896 191.706 431.472C192.367 432.037 192.698 432.821 192.698 433.824C192.698 434.805 192.362 435.589 191.69 436.176C191.028 436.752 190.111 437.04 188.938 437.04H185.786V442H184.314ZM185.786 435.84H188.794C189.615 435.84 190.228 435.664 190.634 435.312C191.05 434.96 191.258 434.464 191.258 433.824C191.258 433.173 191.05 432.677 190.634 432.336C190.228 431.984 189.615 431.808 188.794 431.808H185.786V435.84ZM194.466 442V436.208C194.466 435.835 194.455 435.461 194.434 435.088C194.423 434.704 194.391 434.325 194.338 433.952H195.714L195.89 435.952L195.714 435.888C195.853 435.184 196.167 434.656 196.658 434.304C197.159 433.941 197.719 433.76 198.338 433.76C198.487 433.76 198.621 433.771 198.738 433.792C198.866 433.803 198.983 433.824 199.09 433.856L199.074 435.184C198.807 435.088 198.509 435.04 198.178 435.04C197.634 435.04 197.197 435.157 196.866 435.392C196.535 435.627 196.295 435.925 196.146 436.288C195.997 436.651 195.922 437.04 195.922 437.456V442H194.466ZM203.608 442.112C202.829 442.112 202.147 441.941 201.56 441.6C200.984 441.259 200.536 440.779 200.216 440.16C199.896 439.531 199.736 438.789 199.736 437.936C199.736 437.093 199.896 436.357 200.216 435.728C200.536 435.088 200.984 434.597 201.56 434.256C202.147 433.915 202.829 433.744 203.608 433.744C204.397 433.744 205.08 433.915 205.656 434.256C206.232 434.597 206.68 435.088 207 435.728C207.32 436.357 207.48 437.093 207.48 437.936C207.48 438.789 207.32 439.531 207 440.16C206.68 440.779 206.232 441.259 205.656 441.6C205.08 441.941 204.397 442.112 203.608 442.112ZM203.608 440.928C204.376 440.928 204.968 440.677 205.384 440.176C205.8 439.664 206.008 438.917 206.008 437.936C206.008 436.965 205.795 436.224 205.368 435.712C204.952 435.2 204.365 434.944 203.608 434.944C202.861 434.944 202.275 435.2 201.848 435.712C201.421 436.224 201.208 436.965 201.208 437.936C201.208 438.917 201.416 439.664 201.832 440.176C202.248 440.677 202.84 440.928 203.608 440.928ZM216.682 442H215.242V439.872L215.434 440.064C215.253 440.715 214.906 441.221 214.394 441.584C213.882 441.936 213.264 442.112 212.538 442.112C211.845 442.112 211.226 441.941 210.682 441.6C210.149 441.248 209.728 440.757 209.418 440.128C209.12 439.488 208.97 438.747 208.97 437.904C208.97 437.061 209.12 436.331 209.418 435.712C209.717 435.083 210.133 434.597 210.666 434.256C211.21 433.915 211.834 433.744 212.538 433.744C213.264 433.744 213.882 433.925 214.394 434.288C214.906 434.651 215.253 435.152 215.434 435.792L215.226 435.984V430.224H216.682V442ZM212.858 440.928C213.616 440.928 214.202 440.672 214.618 440.16C215.034 439.637 215.242 438.896 215.242 437.936C215.242 436.987 215.034 436.251 214.618 435.728C214.213 435.205 213.626 434.944 212.858 434.944C212.101 434.944 211.509 435.205 211.082 435.728C210.656 436.24 210.442 436.965 210.442 437.904C210.442 438.864 210.656 439.611 211.082 440.144C211.509 440.667 212.101 440.928 212.858 440.928ZM221.971 442.112C221 442.112 220.269 441.845 219.779 441.312C219.299 440.768 219.059 439.968 219.059 438.912V433.952H220.515V438.896C220.515 439.589 220.653 440.101 220.931 440.432C221.219 440.752 221.656 440.912 222.243 440.912C222.925 440.912 223.475 440.693 223.891 440.256C224.307 439.808 224.515 439.216 224.515 438.48V433.952H225.987V442H224.563V440.272L224.755 440.192C224.541 440.821 224.184 441.301 223.683 441.632C223.181 441.952 222.611 442.112 221.971 442.112ZM231.844 442.112C231.033 442.112 230.334 441.941 229.748 441.6C229.172 441.259 228.724 440.779 228.404 440.16C228.084 439.541 227.924 438.811 227.924 437.968C227.924 437.136 228.084 436.4 228.404 435.76C228.734 435.12 229.198 434.624 229.796 434.272C230.393 433.92 231.097 433.744 231.908 433.744C232.462 433.744 232.996 433.84 233.508 434.032C234.02 434.213 234.441 434.469 234.772 434.8L234.308 435.856C233.924 435.557 233.54 435.333 233.156 435.184C232.782 435.024 232.393 434.944 231.988 434.944C231.209 434.944 230.585 435.205 230.116 435.728C229.657 436.251 229.428 436.997 229.428 437.968C229.428 438.917 229.657 439.648 230.116 440.16C230.574 440.672 231.204 440.928 232.004 440.928C232.388 440.928 232.772 440.853 233.156 440.704C233.54 440.555 233.924 440.325 234.308 440.016L234.772 441.072C234.43 441.392 233.998 441.648 233.476 441.84C232.953 442.021 232.409 442.112 231.844 442.112ZM235.268 435.072V433.952H240.548V435.072H235.268ZM240.516 440.736V441.952C240.335 442.005 240.148 442.043 239.956 442.064C239.775 442.096 239.578 442.112 239.364 442.112C238.575 442.112 237.951 441.888 237.492 441.44C237.044 440.992 236.82 440.331 236.82 439.456V431.904L238.276 431.392V439.296C238.276 439.712 238.335 440.037 238.452 440.272C238.58 440.496 238.746 440.656 238.948 440.752C239.162 440.837 239.402 440.88 239.668 440.88C239.818 440.88 239.956 440.869 240.084 440.848C240.212 440.827 240.356 440.789 240.516 440.736ZM244.859 442.112C243.483 442.112 242.39 441.765 241.579 441.072L242.043 440.016C242.47 440.347 242.912 440.592 243.371 440.752C243.84 440.901 244.352 440.976 244.907 440.976C245.483 440.976 245.92 440.88 246.219 440.688C246.528 440.485 246.683 440.197 246.683 439.824C246.683 439.525 246.576 439.291 246.363 439.12C246.16 438.939 245.819 438.789 245.339 438.672L243.995 438.352C243.302 438.203 242.768 437.936 242.395 437.552C242.032 437.168 241.851 436.704 241.851 436.16C241.851 435.691 241.979 435.275 242.235 434.912C242.502 434.549 242.87 434.267 243.339 434.064C243.808 433.851 244.363 433.744 245.003 433.744C245.568 433.744 246.102 433.835 246.603 434.016C247.115 434.197 247.547 434.459 247.899 434.8L247.435 435.84C247.051 435.52 246.656 435.285 246.251 435.136C245.846 434.976 245.424 434.896 244.987 434.896C244.443 434.896 244.016 435.003 243.707 435.216C243.408 435.429 243.259 435.717 243.259 436.08C243.259 436.389 243.355 436.635 243.547 436.816C243.739 436.997 244.043 437.141 244.459 437.248L245.819 437.584C246.587 437.744 247.152 438.011 247.515 438.384C247.878 438.747 248.059 439.216 248.059 439.792C248.059 440.496 247.771 441.061 247.195 441.488C246.619 441.904 245.84 442.112 244.859 442.112Z" fill="#1C1D24"/>
<g filter="url(#filter3_d)">
<rect x="310" y="226" width="177" height="190" rx="10" fill="#F8F8F8"/>
</g>
<circle cx="398" cy="292" r="51" fill="white"/>
<circle cx="397.997" cy="292.003" r="37.5789" fill="#F49F0A"/>
<path fill-rule="evenodd" clip-rule="evenodd" d="M400.103 280.054C400.118 281.579 400.122 281.923 399.48 282.564C396.531 285.651 385.145 285.719 382.128 282.633C381.716 282.222 381.51 281.81 381.51 281.33V279.135C381.51 277.146 385.694 275.569 390.838 275.5C395.982 275.5 400.097 277.146 400.097 279.135C400.097 279.483 400.1 279.787 400.103 280.054ZM382.128 287.297C382.745 287.914 383.774 288.463 385.146 288.874C390.015 290.383 397.217 289.56 399.48 287.297C399.892 286.885 400.098 286.474 400.098 285.994V284.005C396.12 287.16 385.489 287.16 381.511 284.005V285.925V286.062C381.511 286.474 381.716 286.885 382.128 287.297ZM401.536 285.174C402.634 284.968 403.868 284.899 405.171 284.899C410.315 284.899 414.43 286.545 414.499 288.466V290.592C414.499 291.072 414.293 291.484 413.882 291.895C411.961 293.884 406.063 294.707 401.536 293.953C401.536 293.843 401.538 293.736 401.539 293.631C401.547 293.017 401.555 292.481 401.262 291.895C401.553 291.254 401.547 290.811 401.539 290.186V290.186C401.538 290.076 401.536 289.961 401.536 289.838C401.536 289.637 401.538 289.454 401.539 289.285C401.548 288.36 401.552 287.869 401.262 287.231C401.468 286.82 401.536 286.408 401.536 285.928V285.174ZM401.467 295.457C401.467 295.868 401.33 296.28 401.192 296.623C401.398 296.966 401.467 297.377 401.467 297.789V297.857V298.612C402.564 298.818 403.799 298.886 405.102 298.886C407.64 298.886 412.029 298.338 413.812 296.554C414.224 296.143 414.43 295.731 414.43 295.251V293.194C414.018 293.536 413.469 293.879 412.852 294.154C409.903 295.731 405.239 296.074 401.467 295.457ZM401.192 301.356C401.33 301.013 401.467 300.601 401.467 300.19C405.239 300.739 409.903 300.396 412.852 299.024C413.469 298.75 414.018 298.407 414.43 298.064V300.053C414.43 300.533 414.224 300.944 413.812 301.356C411.892 303.345 406.199 304.237 401.467 303.413V302.659C401.467 302.179 401.398 301.767 401.192 301.356ZM399.684 307.669C400.781 306.915 401.467 306.023 401.467 304.857C406.2 305.612 411.824 304.857 414.43 302.731V304.72C414.43 307.738 405.583 309.384 399.684 307.669ZM400.029 302.731C397.766 304.514 393.719 305.132 390.77 305.132C387.135 305.132 383.5 304.309 381.511 302.731V304.72C381.511 306.709 385.694 308.355 390.77 308.355C395.708 308.355 400.029 306.778 400.029 304.72V302.731ZM399.479 301.356C397.833 303.071 393.718 303.688 390.769 303.688C386.791 303.688 383.43 302.728 382.196 301.424C381.784 301.013 381.578 300.601 381.578 300.121V299.984V298.064C385.625 301.356 396.393 301.15 400.097 298.064V298.132V300.053C400.097 300.533 399.891 300.944 399.479 301.356ZM382.126 296.624C385.144 299.779 396.598 299.642 399.478 296.624C399.89 296.213 400.095 295.801 400.095 295.321V293.401V293.332C396.255 296.556 385.555 296.556 381.577 293.332V295.321C381.508 295.801 381.714 296.282 382.126 296.624ZM399.479 291.962C396.393 295.117 385.076 294.98 382.127 291.962C381.484 291.32 381.489 290.926 381.504 289.509C381.507 289.263 381.51 288.985 381.51 288.67C385.625 291.962 396.325 291.757 400.097 288.67V288.739V290.659C400.097 291.139 399.891 291.551 399.479 291.962Z" fill="white"/>
<path d="M343.509 377V365.608H344.629L351.733 375.032L351.333 375.144V365.608H352.741V377H351.605L344.517 367.592L344.885 367.464V377H343.509ZM361.974 376.056C361.622 376.387 361.168 376.648 360.614 376.84C360.059 377.021 359.494 377.112 358.918 377.112C358.075 377.112 357.35 376.947 356.742 376.616C356.134 376.285 355.664 375.811 355.334 375.192C355.003 374.563 354.838 373.816 354.838 372.952C354.838 372.12 354.998 371.389 355.318 370.76C355.648 370.131 356.102 369.64 356.678 369.288C357.254 368.925 357.915 368.744 358.662 368.744C359.387 368.744 360.006 368.904 360.518 369.224C361.04 369.544 361.435 370.003 361.702 370.6C361.979 371.187 362.118 371.891 362.118 372.712V372.968H356.118V372.072H361.286L360.838 372.648C360.859 371.741 360.683 371.048 360.31 370.568C359.936 370.088 359.392 369.848 358.678 369.848C357.931 369.848 357.344 370.115 356.918 370.648C356.502 371.171 356.294 371.907 356.294 372.856C356.294 373.88 356.518 374.653 356.966 375.176C357.414 375.688 358.075 375.944 358.95 375.944C359.419 375.944 359.867 375.869 360.294 375.72C360.72 375.56 361.126 375.325 361.51 375.016L361.974 376.056ZM366.119 377L363.095 368.952H364.615L367.047 375.848H366.631L369.143 368.952H370.343L372.807 375.848H372.407L374.871 368.952H376.311L373.287 377H371.927L369.319 369.912H370.071L367.479 377H366.119ZM384.994 377V366.856H381.09V365.608H390.402V366.856H386.498V377H384.994ZM393.975 377.112C393.197 377.112 392.514 376.941 391.927 376.6C391.351 376.259 390.903 375.779 390.583 375.16C390.263 374.531 390.103 373.789 390.103 372.936C390.103 372.093 390.263 371.357 390.583 370.728C390.903 370.088 391.351 369.597 391.927 369.256C392.514 368.915 393.197 368.744 393.975 368.744C394.765 368.744 395.447 368.915 396.023 369.256C396.599 369.597 397.047 370.088 397.367 370.728C397.687 371.357 397.847 372.093 397.847 372.936C397.847 373.789 397.687 374.531 397.367 375.16C397.047 375.779 396.599 376.259 396.023 376.6C395.447 376.941 394.765 377.112 393.975 377.112ZM393.975 375.928C394.743 375.928 395.335 375.677 395.751 375.176C396.167 374.664 396.375 373.917 396.375 372.936C396.375 371.965 396.162 371.224 395.735 370.712C395.319 370.2 394.733 369.944 393.975 369.944C393.229 369.944 392.642 370.2 392.215 370.712C391.789 371.224 391.575 371.965 391.575 372.936C391.575 373.917 391.783 374.664 392.199 375.176C392.615 375.677 393.207 375.928 393.975 375.928ZM405.258 377L400.986 372.888L404.954 368.968H406.778L402.362 373.272L402.426 372.424L407.13 377H405.258ZM399.818 377V365.224H401.274V377H399.818ZM414.708 376.056C414.356 376.387 413.903 376.648 413.348 376.84C412.793 377.021 412.228 377.112 411.652 377.112C410.809 377.112 410.084 376.947 409.476 376.616C408.868 376.285 408.399 375.811 408.068 375.192C407.737 374.563 407.572 373.816 407.572 372.952C407.572 372.12 407.732 371.389 408.052 370.76C408.383 370.131 408.836 369.64 409.412 369.288C409.988 368.925 410.649 368.744 411.396 368.744C412.121 368.744 412.74 368.904 413.252 369.224C413.775 369.544 414.169 370.003 414.436 370.6C414.713 371.187 414.852 371.891 414.852 372.712V372.968H408.852V372.072H414.02L413.572 372.648C413.593 371.741 413.417 371.048 413.044 370.568C412.671 370.088 412.127 369.848 411.412 369.848C410.665 369.848 410.079 370.115 409.652 370.648C409.236 371.171 409.028 371.907 409.028 372.856C409.028 373.88 409.252 374.653 409.7 375.176C410.148 375.688 410.809 375.944 411.684 375.944C412.153 375.944 412.601 375.869 413.028 375.72C413.455 375.56 413.86 375.325 414.244 375.016L414.708 376.056ZM416.771 377V371.208C416.771 370.835 416.76 370.461 416.739 370.088C416.728 369.704 416.696 369.325 416.643 368.952H418.019L418.163 370.6L418.003 370.696C418.237 370.067 418.611 369.587 419.123 369.256C419.645 368.915 420.243 368.744 420.915 368.744C422.845 368.744 423.811 369.816 423.811 371.96V377H422.355V372.04C422.355 371.315 422.211 370.787 421.923 370.456C421.645 370.115 421.197 369.944 420.579 369.944C419.864 369.944 419.293 370.168 418.867 370.616C418.44 371.053 418.227 371.645 418.227 372.392V377H416.771ZM426.193 377V368.952H427.649V377H426.193ZM426.065 365.48H427.777V367.064H426.065V365.48ZM429.667 377V375.992L435.027 369.544L435.235 370.072H429.827V368.952H436.339V369.976L430.979 376.408L430.819 375.864H436.515V377H429.667ZM444.864 376.056C444.512 376.387 444.059 376.648 443.504 376.84C442.95 377.021 442.384 377.112 441.808 377.112C440.966 377.112 440.24 376.947 439.632 376.616C439.024 376.285 438.555 375.811 438.224 375.192C437.894 374.563 437.728 373.816 437.728 372.952C437.728 372.12 437.888 371.389 438.208 370.76C438.539 370.131 438.992 369.64 439.568 369.288C440.144 368.925 440.806 368.744 441.552 368.744C442.278 368.744 442.896 368.904 443.408 369.224C443.931 369.544 444.326 370.003 444.592 370.6C444.87 371.187 445.008 371.891 445.008 372.712V372.968H439.008V372.072H444.176L443.728 372.648C443.75 371.741 443.574 371.048 443.2 370.568C442.827 370.088 442.283 369.848 441.568 369.848C440.822 369.848 440.235 370.115 439.808 370.648C439.392 371.171 439.184 371.907 439.184 372.856C439.184 373.88 439.408 374.653 439.856 375.176C440.304 375.688 440.966 375.944 441.84 375.944C442.31 375.944 442.758 375.869 443.184 375.72C443.611 375.56 444.016 375.325 444.4 375.016L444.864 376.056ZM454.159 377H452.719V374.872L452.911 375.064C452.73 375.715 452.383 376.221 451.871 376.584C451.359 376.936 450.74 377.112 450.015 377.112C449.322 377.112 448.703 376.941 448.159 376.6C447.626 376.248 447.204 375.757 446.895 375.128C446.596 374.488 446.447 373.747 446.447 372.904C446.447 372.061 446.596 371.331 446.895 370.712C447.194 370.083 447.61 369.597 448.143 369.256C448.687 368.915 449.311 368.744 450.015 368.744C450.74 368.744 451.359 368.925 451.871 369.288C452.383 369.651 452.73 370.152 452.911 370.792L452.703 370.984V365.224H454.159V377ZM450.335 375.928C451.092 375.928 451.679 375.672 452.095 375.16C452.511 374.637 452.719 373.896 452.719 372.936C452.719 371.987 452.511 371.251 452.095 370.728C451.69 370.205 451.103 369.944 450.335 369.944C449.578 369.944 448.986 370.205 448.559 370.728C448.132 371.24 447.919 371.965 447.919 372.904C447.919 373.864 448.132 374.611 448.559 375.144C448.986 375.667 449.578 375.928 450.335 375.928ZM375.525 398H374.005L379.045 386.608H380.309L385.365 398H383.861L379.445 387.712H379.941L375.525 398ZM376.165 395.136L376.693 393.92H382.645L383.173 395.136H376.165ZM389.468 398.112C388.092 398.112 386.999 397.765 386.188 397.072L386.652 396.016C387.079 396.347 387.522 396.592 387.98 396.752C388.45 396.901 388.962 396.976 389.516 396.976C390.092 396.976 390.53 396.88 390.828 396.688C391.138 396.485 391.292 396.197 391.292 395.824C391.292 395.525 391.186 395.291 390.972 395.12C390.77 394.939 390.428 394.789 389.948 394.672L388.604 394.352C387.911 394.203 387.378 393.936 387.004 393.552C386.642 393.168 386.46 392.704 386.46 392.16C386.46 391.691 386.588 391.275 386.844 390.912C387.111 390.549 387.479 390.267 387.948 390.064C388.418 389.851 388.972 389.744 389.612 389.744C390.178 389.744 390.711 389.835 391.212 390.016C391.724 390.197 392.156 390.459 392.508 390.8L392.044 391.84C391.66 391.52 391.266 391.285 390.86 391.136C390.455 390.976 390.034 390.896 389.596 390.896C389.052 390.896 388.626 391.003 388.316 391.216C388.018 391.429 387.868 391.717 387.868 392.08C387.868 392.389 387.964 392.635 388.156 392.816C388.348 392.997 388.652 393.141 389.068 393.248L390.428 393.584C391.196 393.744 391.762 394.011 392.124 394.384C392.487 394.747 392.668 395.216 392.668 395.792C392.668 396.496 392.38 397.061 391.804 397.488C391.228 397.904 390.45 398.112 389.468 398.112ZM397.422 398.112C396.046 398.112 394.952 397.765 394.142 397.072L394.606 396.016C395.032 396.347 395.475 396.592 395.934 396.752C396.403 396.901 396.915 396.976 397.47 396.976C398.046 396.976 398.483 396.88 398.782 396.688C399.091 396.485 399.246 396.197 399.246 395.824C399.246 395.525 399.139 395.291 398.926 395.12C398.723 394.939 398.382 394.789 397.902 394.672L396.558 394.352C395.864 394.203 395.331 393.936 394.958 393.552C394.595 393.168 394.414 392.704 394.414 392.16C394.414 391.691 394.542 391.275 394.798 390.912C395.064 390.549 395.432 390.267 395.902 390.064C396.371 389.851 396.926 389.744 397.566 389.744C398.131 389.744 398.664 389.835 399.166 390.016C399.678 390.197 400.11 390.459 400.462 390.8L399.998 391.84C399.614 391.52 399.219 391.285 398.814 391.136C398.408 390.976 397.987 390.896 397.549 390.896C397.006 390.896 396.579 391.003 396.27 391.216C395.971 391.429 395.822 391.717 395.822 392.08C395.822 392.389 395.918 392.635 396.11 392.816C396.302 392.997 396.606 393.141 397.022 393.248L398.382 393.584C399.15 393.744 399.715 394.011 400.078 394.384C400.44 394.747 400.622 395.216 400.622 395.792C400.622 396.496 400.334 397.061 399.758 397.488C399.182 397.904 398.403 398.112 397.422 398.112ZM409.263 397.056C408.911 397.387 408.457 397.648 407.903 397.84C407.348 398.021 406.783 398.112 406.207 398.112C405.364 398.112 404.639 397.947 404.031 397.616C403.423 397.285 402.953 396.811 402.623 396.192C402.292 395.563 402.127 394.816 402.127 393.952C402.127 393.12 402.287 392.389 402.607 391.76C402.937 391.131 403.391 390.64 403.967 390.288C404.543 389.925 405.204 389.744 405.951 389.744C406.676 389.744 407.295 389.904 407.807 390.224C408.329 390.544 408.724 391.003 408.991 391.6C409.268 392.187 409.407 392.891 409.407 393.712V393.968H403.407V393.072H408.575L408.127 393.648C408.148 392.741 407.972 392.048 407.599 391.568C407.225 391.088 406.681 390.848 405.967 390.848C405.22 390.848 404.633 391.115 404.207 391.648C403.791 392.171 403.583 392.907 403.583 393.856C403.583 394.88 403.807 395.653 404.255 396.176C404.703 396.688 405.364 396.944 406.239 396.944C406.708 396.944 407.156 396.869 407.583 396.72C408.009 396.56 408.415 396.325 408.799 396.016L409.263 397.056ZM410.159 391.072V389.952H415.439V391.072H410.159ZM415.407 396.736V397.952C415.226 398.005 415.039 398.043 414.847 398.064C414.666 398.096 414.468 398.112 414.255 398.112C413.466 398.112 412.842 397.888 412.383 397.44C411.935 396.992 411.711 396.331 411.711 395.456V387.904L413.167 387.392V395.296C413.167 395.712 413.226 396.037 413.343 396.272C413.471 396.496 413.636 396.656 413.839 396.752C414.052 396.837 414.292 396.88 414.559 396.88C414.708 396.88 414.847 396.869 414.975 396.848C415.103 396.827 415.247 396.789 415.407 396.736ZM419.75 398.112C418.374 398.112 417.28 397.765 416.47 397.072L416.934 396.016C417.36 396.347 417.803 396.592 418.262 396.752C418.731 396.901 419.243 396.976 419.798 396.976C420.374 396.976 420.811 396.88 421.11 396.688C421.419 396.485 421.574 396.197 421.574 395.824C421.574 395.525 421.467 395.291 421.254 395.12C421.051 394.939 420.71 394.789 420.23 394.672L418.886 394.352C418.192 394.203 417.659 393.936 417.286 393.552C416.923 393.168 416.742 392.704 416.742 392.16C416.742 391.691 416.87 391.275 417.126 390.912C417.392 390.549 417.76 390.267 418.23 390.064C418.699 389.851 419.254 389.744 419.894 389.744C420.459 389.744 420.992 389.835 421.494 390.016C422.006 390.197 422.438 390.459 422.79 390.8L422.326 391.84C421.942 391.52 421.547 391.285 421.142 391.136C420.736 390.976 420.315 390.896 419.878 390.896C419.334 390.896 418.907 391.003 418.598 391.216C418.299 391.429 418.15 391.717 418.15 392.08C418.15 392.389 418.246 392.635 418.438 392.816C418.63 392.997 418.934 393.141 419.35 393.248L420.71 393.584C421.478 393.744 422.043 394.011 422.406 394.384C422.768 394.747 422.95 395.216 422.95 395.792C422.95 396.496 422.662 397.061 422.086 397.488C421.51 397.904 420.731 398.112 419.75 398.112Z" fill="#1C1D24"/>
<g filter="url(#filter4_d)">
<rect x="512" y="77" width="177" height="190" rx="10" fill="#F8F8F8"/>
</g>
<path d="M570.537 213.608V225H569.049V217.176L565.673 225H564.537L561.113 217.224L561.129 225H559.641V213.608H560.969L565.113 223.016L569.209 213.608H570.537ZM580.387 216.936L576.627 225.656C576.211 226.605 575.688 227.299 575.059 227.736C574.44 228.184 573.672 228.483 572.755 228.632L572.403 227.384C573.16 227.213 573.731 226.989 574.115 226.712C574.51 226.445 574.824 226.04 575.059 225.496L575.347 224.824L571.955 216.936H573.667L576.195 223.176L578.771 216.936H580.387ZM586.047 213.608H590.783C591.977 213.608 592.905 213.901 593.567 214.488C594.239 215.064 594.575 215.853 594.575 216.856C594.575 217.859 594.233 218.653 593.551 219.24C592.879 219.816 591.956 220.104 590.783 220.104H587.695V225H586.047V213.608ZM590.591 218.792C591.38 218.792 591.972 218.627 592.367 218.296C592.772 217.965 592.975 217.485 592.975 216.856C592.975 216.237 592.772 215.763 592.367 215.432C591.972 215.101 591.38 214.936 590.591 214.936H587.695V218.792H590.591ZM600.294 216.744C600.539 216.744 600.795 216.781 601.062 216.856L601.03 218.328C600.742 218.221 600.427 218.168 600.086 218.168C599.35 218.168 598.795 218.392 598.422 218.84C598.059 219.277 597.878 219.832 597.878 220.504V225H596.278V219.208C596.278 218.365 596.235 217.608 596.15 216.936H597.654L597.798 218.392C598.011 217.859 598.342 217.453 598.79 217.176C599.238 216.888 599.739 216.744 600.294 216.744ZM605.609 225.112C604.82 225.112 604.126 224.941 603.529 224.6C602.932 224.259 602.468 223.773 602.137 223.144C601.817 222.515 601.657 221.779 601.657 220.936C601.657 220.093 601.817 219.357 602.137 218.728C602.468 218.088 602.932 217.597 603.529 217.256C604.126 216.915 604.82 216.744 605.609 216.744C606.388 216.744 607.076 216.915 607.673 217.256C608.27 217.597 608.729 218.088 609.049 218.728C609.38 219.357 609.545 220.093 609.545 220.936C609.545 221.779 609.38 222.515 609.049 223.144C608.729 223.773 608.27 224.259 607.673 224.6C607.076 224.941 606.388 225.112 605.609 225.112ZM605.593 223.832C606.34 223.832 606.91 223.587 607.305 223.096C607.7 222.605 607.897 221.885 607.897 220.936C607.897 220.008 607.694 219.293 607.289 218.792C606.894 218.291 606.334 218.04 605.609 218.04C604.873 218.04 604.302 218.291 603.897 218.792C603.492 219.293 603.289 220.008 603.289 220.936C603.289 221.885 603.486 222.605 603.881 223.096C604.286 223.587 604.857 223.832 605.593 223.832ZM618.81 213.224V225H617.21V223.624C616.975 224.104 616.623 224.472 616.154 224.728C615.695 224.984 615.157 225.112 614.538 225.112C613.845 225.112 613.226 224.936 612.682 224.584C612.138 224.232 611.711 223.741 611.402 223.112C611.103 222.472 610.954 221.736 610.954 220.904C610.954 220.072 611.103 219.341 611.402 218.712C611.701 218.083 612.117 217.597 612.65 217.256C613.194 216.915 613.823 216.744 614.538 216.744C615.146 216.744 615.679 216.872 616.138 217.128C616.607 217.384 616.959 217.747 617.194 218.216V213.224H618.81ZM614.906 223.832C615.642 223.832 616.207 223.581 616.602 223.08C617.007 222.568 617.21 221.853 617.21 220.936C617.21 220.019 617.007 219.309 616.602 218.808C616.207 218.296 615.647 218.04 614.922 218.04C614.186 218.04 613.61 218.291 613.194 218.792C612.789 219.293 612.586 219.997 612.586 220.904C612.586 221.821 612.789 222.541 613.194 223.064C613.61 223.576 614.181 223.832 614.906 223.832ZM628.192 216.936V225H626.624V223.656C626.368 224.125 626.016 224.488 625.568 224.744C625.12 224.989 624.613 225.112 624.048 225.112C622.107 225.112 621.136 224.035 621.136 221.88V216.936H622.736V221.864C622.736 222.525 622.869 223.016 623.136 223.336C623.413 223.645 623.829 223.8 624.384 223.8C625.045 223.8 625.573 223.587 625.968 223.16C626.373 222.733 626.576 222.168 626.576 221.464V216.936H628.192ZM634.063 225.112C633.252 225.112 632.543 224.941 631.935 224.6C631.338 224.259 630.879 223.779 630.559 223.16C630.239 222.531 630.079 221.8 630.079 220.968C630.079 220.136 630.244 219.4 630.575 218.76C630.916 218.12 631.391 217.624 631.999 217.272C632.607 216.92 633.316 216.744 634.127 216.744C634.692 216.744 635.236 216.84 635.759 217.032C636.282 217.213 636.703 217.464 637.023 217.784L636.527 218.952C635.77 218.355 635.007 218.056 634.239 218.056C633.46 218.056 632.852 218.312 632.415 218.824C631.978 219.325 631.759 220.035 631.759 220.952C631.759 221.869 631.978 222.579 632.415 223.08C632.852 223.571 633.46 223.816 634.239 223.816C635.028 223.816 635.791 223.517 636.527 222.92L637.023 224.088C636.682 224.408 636.244 224.659 635.711 224.84C635.188 225.021 634.639 225.112 634.063 225.112ZM640.671 218.184V222.232C640.671 222.787 640.788 223.181 641.023 223.416C641.268 223.64 641.604 223.752 642.031 223.752C642.308 223.752 642.591 223.709 642.879 223.624V224.936C642.527 225.053 642.127 225.112 641.679 225.112C640.847 225.112 640.201 224.877 639.743 224.408C639.284 223.939 639.055 223.256 639.055 222.36V218.184H637.487V216.936H639.055V214.92L640.671 214.36V216.936H642.895V218.184H640.671ZM560.617 234.608H562.265V246H560.617V234.608ZM569.058 237.744C570.989 237.744 571.954 238.821 571.954 240.976V246H570.338V241.072C570.338 240.368 570.199 239.856 569.922 239.536C569.655 239.216 569.223 239.056 568.626 239.056C567.943 239.056 567.394 239.269 566.978 239.696C566.573 240.123 566.37 240.693 566.37 241.408V246H564.77V240.208C564.77 239.365 564.727 238.608 564.642 237.936H566.146L566.29 239.328C566.546 238.816 566.914 238.427 567.394 238.16C567.885 237.883 568.439 237.744 569.058 237.744ZM581.582 237.952L578.078 246H576.622L573.15 237.952H574.862L577.39 244.176L579.966 237.952H581.582ZM589.603 242H583.843C583.896 243.888 584.755 244.832 586.419 244.832C587.347 244.832 588.195 244.528 588.963 243.92L589.459 245.072C589.096 245.392 588.632 245.648 588.067 245.84C587.512 246.021 586.952 246.112 586.387 246.112C585.096 246.112 584.083 245.744 583.347 245.008C582.611 244.261 582.243 243.243 582.243 241.952C582.243 241.131 582.403 240.4 582.723 239.76C583.054 239.12 583.512 238.624 584.099 238.272C584.686 237.92 585.352 237.744 586.099 237.744C587.187 237.744 588.04 238.096 588.659 238.8C589.288 239.504 589.603 240.48 589.603 241.728V242ZM586.131 238.944C585.523 238.944 585.027 239.125 584.643 239.488C584.259 239.851 584.014 240.368 583.907 241.04H588.179C588.115 240.357 587.907 239.84 587.555 239.488C587.203 239.125 586.728 238.944 586.131 238.944ZM594.273 246.112C592.865 246.112 591.756 245.771 590.945 245.088L591.425 243.92C592.268 244.56 593.233 244.88 594.321 244.88C594.876 244.88 595.297 244.789 595.585 244.608C595.873 244.416 596.017 244.149 596.017 243.808C596.017 243.52 595.916 243.296 595.713 243.136C595.521 242.965 595.191 242.821 594.721 242.704L593.377 242.384C592.673 242.235 592.135 241.973 591.761 241.6C591.399 241.216 591.217 240.741 591.217 240.176C591.217 239.451 591.505 238.864 592.081 238.416C592.668 237.968 593.441 237.744 594.401 237.744C594.977 237.744 595.521 237.835 596.033 238.016C596.556 238.197 596.999 238.453 597.361 238.784L596.865 239.92C596.087 239.301 595.265 238.992 594.401 238.992C593.879 238.992 593.473 239.093 593.185 239.296C592.897 239.488 592.753 239.76 592.753 240.112C592.753 240.389 592.844 240.613 593.025 240.784C593.207 240.955 593.495 241.088 593.889 241.184L595.265 241.52C596.033 241.691 596.599 241.963 596.961 242.336C597.335 242.699 597.521 243.173 597.521 243.76C597.521 244.485 597.228 245.061 596.641 245.488C596.065 245.904 595.276 246.112 594.273 246.112ZM601.444 239.184V243.232C601.444 243.787 601.561 244.181 601.796 244.416C602.041 244.64 602.377 244.752 602.804 244.752C603.081 244.752 603.364 244.709 603.652 244.624V245.936C603.3 246.053 602.9 246.112 602.452 246.112C601.62 246.112 600.975 245.877 600.516 245.408C600.057 244.939 599.828 244.256 599.828 243.36V239.184H598.26V237.936H599.828V235.92L601.444 235.36V237.936H603.668V239.184H601.444ZM614.361 237.744C616.153 237.744 617.049 238.821 617.049 240.976V246H615.433V241.056C615.433 240.363 615.31 239.856 615.065 239.536C614.83 239.216 614.446 239.056 613.913 239.056C613.294 239.056 612.803 239.269 612.441 239.696C612.089 240.123 611.913 240.704 611.913 241.44V246H610.297V241.056C610.297 240.363 610.174 239.856 609.929 239.536C609.694 239.216 609.31 239.056 608.777 239.056C608.158 239.056 607.667 239.269 607.305 239.696C606.942 240.123 606.761 240.704 606.761 241.44V246H605.161V240.208C605.161 239.365 605.118 238.608 605.033 237.936H606.537L606.681 239.28C606.915 238.789 607.251 238.411 607.689 238.144C608.126 237.877 608.638 237.744 609.225 237.744C610.473 237.744 611.289 238.261 611.673 239.296C611.918 238.816 612.275 238.437 612.745 238.16C613.225 237.883 613.763 237.744 614.361 237.744ZM626.244 242H620.484C620.537 243.888 621.396 244.832 623.06 244.832C623.988 244.832 624.836 244.528 625.604 243.92L626.1 245.072C625.737 245.392 625.273 245.648 624.708 245.84C624.153 246.021 623.593 246.112 623.028 246.112C621.737 246.112 620.724 245.744 619.988 245.008C619.252 244.261 618.884 243.243 618.884 241.952C618.884 241.131 619.044 240.4 619.364 239.76C619.694 239.12 620.153 238.624 620.74 238.272C621.326 237.92 621.993 237.744 622.74 237.744C623.828 237.744 624.681 238.096 625.3 238.8C625.929 239.504 626.244 240.48 626.244 241.728V242ZM622.772 238.944C622.164 238.944 621.668 239.125 621.284 239.488C620.9 239.851 620.654 240.368 620.548 241.04H624.82C624.756 240.357 624.548 239.84 624.196 239.488C623.844 239.125 623.369 238.944 622.772 238.944ZM632.386 237.744C634.317 237.744 635.282 238.821 635.282 240.976V246H633.666V241.072C633.666 240.368 633.527 239.856 633.25 239.536C632.983 239.216 632.551 239.056 631.954 239.056C631.271 239.056 630.722 239.269 630.306 239.696C629.901 240.123 629.698 240.693 629.698 241.408V246H628.098V240.208C628.098 239.365 628.055 238.608 627.97 237.936H629.474L629.618 239.328C629.874 238.816 630.242 238.427 630.722 238.16C631.213 237.883 631.767 237.744 632.386 237.744ZM639.678 239.184V243.232C639.678 243.787 639.796 244.181 640.03 244.416C640.276 244.64 640.612 244.752 641.038 244.752C641.316 244.752 641.598 244.709 641.886 244.624V245.936C641.534 246.053 641.134 246.112 640.686 246.112C639.854 246.112 639.209 245.877 638.75 245.408C638.292 244.939 638.062 244.256 638.062 243.36V239.184H636.494V237.936H638.062V235.92L639.678 235.36V237.936H641.902V239.184H639.678Z" fill="#1C1D24"/>
<circle cx="600" cy="140" r="48" fill="white"/>
<circle cx="599.999" cy="140.003" r="35.3684" fill="#24A2AA"/>
<path fill-rule="evenodd" clip-rule="evenodd" d="M611.132 127.687L615.611 133.865C615.839 134.16 615.872 134.552 615.709 134.912C615.545 135.238 615.186 135.435 614.826 135.435H612.701V151.027H614.368C614.924 151.027 615.349 151.452 615.349 152.008C615.349 152.564 614.924 152.989 614.368 152.989H585.733C585.177 152.989 584.752 152.564 584.752 152.008C584.752 151.452 585.177 151.027 585.733 151.027H587.498V146.582C587.498 146.026 587.923 145.601 588.479 145.601H591.257C591.813 145.601 592.238 146.026 592.238 146.582V151.027H594.33V144.391C594.33 143.836 594.755 143.411 595.311 143.411H598.089C598.645 143.411 599.07 143.836 599.07 144.391V150.995H601.162V138.9C601.162 138.344 601.587 137.919 602.143 137.919H604.921C605.477 137.919 605.902 138.344 605.902 138.9V150.995H607.994V135.402H605.869C605.477 135.402 605.15 135.206 604.987 134.879C604.79 134.552 604.823 134.16 605.052 133.865L609.53 127.687C609.923 127.164 610.773 127.164 611.132 127.687ZM591.224 140.404L591.093 140.371C589.949 140.142 588.903 139.619 588.119 138.802C587.988 138.671 587.955 138.475 588.086 138.312L589.132 137.037C589.165 136.971 589.263 136.906 589.361 136.906H589.393C589.492 136.906 589.59 136.939 589.655 137.004C590.015 137.331 590.44 137.592 590.897 137.788C591.911 138.213 592.859 138.213 593.349 137.854C593.578 137.69 593.676 137.462 593.676 137.167V137.167C593.676 137.069 593.676 136.971 593.643 136.873C593.61 136.775 593.578 136.677 593.512 136.612C593.447 136.514 593.382 136.448 593.283 136.383C593.185 136.317 593.055 136.252 592.924 136.187L592.924 136.187L592.434 135.991C592.237 135.925 592.041 135.86 591.812 135.794C591.726 135.766 591.639 135.743 591.555 135.721C591.449 135.694 591.348 135.667 591.257 135.631C591.093 135.566 590.897 135.5 590.701 135.435C590.505 135.337 590.341 135.271 590.178 135.206L590.178 135.206C590.137 135.185 590.092 135.165 590.045 135.143C589.944 135.096 589.832 135.044 589.72 134.977C589.524 134.879 589.393 134.781 589.263 134.683L589.263 134.683C589.217 134.638 589.165 134.592 589.108 134.543C589.043 134.487 588.973 134.426 588.903 134.356C588.802 134.28 588.72 134.165 588.643 134.057C588.621 134.025 588.598 133.994 588.576 133.964C588.478 133.833 588.413 133.67 588.347 133.506C588.282 133.343 588.217 133.147 588.184 132.95C588.151 132.754 588.151 132.526 588.151 132.329C588.151 131.414 588.445 130.662 589.001 130.041C589.524 129.485 590.243 129.126 591.126 128.995L591.257 128.962V127.72C591.257 127.524 591.42 127.361 591.616 127.361H592.859C593.055 127.361 593.218 127.524 593.218 127.72V129.093L593.316 129.126C593.774 129.257 594.231 129.42 594.689 129.616C595.114 129.812 595.506 130.041 595.833 130.27C595.899 130.303 595.964 130.401 595.964 130.499C595.997 130.597 595.964 130.695 595.899 130.76L594.885 132.035C594.755 132.166 594.558 132.199 594.395 132.101C593.578 131.578 592.793 131.316 592.041 131.316C591.616 131.316 591.322 131.381 591.093 131.545C590.897 131.708 590.799 131.904 590.799 132.166C590.799 132.427 590.897 132.656 591.159 132.82C591.42 133.016 591.878 133.212 592.499 133.408C592.663 133.47 592.827 133.518 592.975 133.562C593.063 133.588 593.145 133.613 593.218 133.637C593.266 133.653 593.315 133.669 593.366 133.685C593.525 133.736 593.699 133.792 593.872 133.866C593.914 133.881 593.954 133.896 593.992 133.911C594.195 133.986 594.356 134.045 594.493 134.127C594.583 134.163 594.674 134.219 594.769 134.279C594.847 134.327 594.928 134.378 595.016 134.422C595.212 134.552 595.343 134.65 595.474 134.781C595.582 134.889 595.668 134.998 595.769 135.125C595.789 135.151 595.811 135.178 595.833 135.206C595.931 135.369 596.029 135.566 596.095 135.729C596.16 135.893 596.226 136.089 596.258 136.317C596.291 136.514 596.324 136.742 596.324 137.004C596.324 137.919 596.062 138.704 595.474 139.292C594.918 139.848 594.199 140.207 593.316 140.371L593.185 140.404V141.548C593.185 141.744 593.022 141.907 592.826 141.907H591.584C591.388 141.907 591.224 141.744 591.224 141.548V140.404Z" fill="white"/>
<g filter="url(#filter5_d)">
<rect x="512" y="292" width="177" height="190" rx="10" fill="#F8F8F8"/>
</g>
<path d="M564.234 427.608H571.626V428.952H565.866V432.536H571.306V433.88H565.866V437.656H571.626V439H564.234V427.608ZM580.919 430.936V439H579.319V437.624C579.085 438.104 578.733 438.472 578.263 438.728C577.805 438.984 577.266 439.112 576.647 439.112C575.933 439.112 575.303 438.941 574.759 438.6C574.226 438.259 573.81 437.779 573.511 437.16C573.213 436.531 573.063 435.8 573.063 434.968C573.063 434.136 573.213 433.4 573.511 432.76C573.821 432.12 574.247 431.624 574.791 431.272C575.335 430.92 575.954 430.744 576.647 430.744C577.266 430.744 577.805 430.877 578.263 431.144C578.722 431.4 579.074 431.768 579.319 432.248V430.936H580.919ZM577.031 437.832C577.757 437.832 578.317 437.581 578.711 437.08C579.117 436.568 579.319 435.853 579.319 434.936C579.319 434.008 579.117 433.293 578.711 432.792C578.317 432.291 577.751 432.04 577.015 432.04C576.29 432.04 575.719 432.301 575.303 432.824C574.898 433.336 574.695 434.051 574.695 434.968C574.695 435.875 574.898 436.579 575.303 437.08C575.719 437.581 576.295 437.832 577.031 437.832ZM587.309 430.744C587.555 430.744 587.811 430.781 588.077 430.856L588.045 432.328C587.757 432.221 587.443 432.168 587.101 432.168C586.365 432.168 585.811 432.392 585.437 432.84C585.075 433.277 584.893 433.832 584.893 434.504V439H583.293V433.208C583.293 432.365 583.251 431.608 583.165 430.936H584.669L584.813 432.392C585.027 431.859 585.357 431.453 585.805 431.176C586.253 430.888 586.755 430.744 587.309 430.744ZM593.597 430.744C595.528 430.744 596.493 431.821 596.493 433.976V439H594.877V434.072C594.877 433.368 594.738 432.856 594.461 432.536C594.194 432.216 593.762 432.056 593.165 432.056C592.482 432.056 591.933 432.269 591.517 432.696C591.112 433.123 590.909 433.693 590.909 434.408V439H589.309V433.208C589.309 432.365 589.266 431.608 589.181 430.936H590.685L590.829 432.328C591.085 431.816 591.453 431.427 591.933 431.16C592.424 430.883 592.978 430.744 593.597 430.744ZM598.793 430.936H600.393V439H598.793V430.936ZM600.521 427.416V429.112H598.649V427.416H600.521ZM607.05 430.744C608.981 430.744 609.946 431.821 609.946 433.976V439H608.33V434.072C608.33 433.368 608.191 432.856 607.914 432.536C607.647 432.216 607.215 432.056 606.618 432.056C605.935 432.056 605.386 432.269 604.97 432.696C604.565 433.123 604.362 433.693 604.362 434.408V439H602.762V433.208C602.762 432.365 602.719 431.608 602.634 430.936H604.138L604.282 432.328C604.538 431.816 604.906 431.427 605.386 431.16C605.877 430.883 606.431 430.744 607.05 430.744ZM619.687 430.936V438.856C619.687 440.083 619.361 441.005 618.711 441.624C618.071 442.253 617.116 442.568 615.847 442.568C614.62 442.568 613.548 442.301 612.631 441.768L612.903 440.504C613.404 440.771 613.884 440.968 614.343 441.096C614.812 441.224 615.308 441.288 615.831 441.288C617.335 441.288 618.087 440.52 618.087 438.984V437.24C617.841 437.709 617.484 438.083 617.015 438.36C616.545 438.627 616.001 438.76 615.383 438.76C614.679 438.76 614.049 438.595 613.495 438.264C612.951 437.933 612.524 437.464 612.215 436.856C611.916 436.248 611.767 435.549 611.767 434.76C611.767 433.971 611.916 433.272 612.215 432.664C612.524 432.056 612.951 431.587 613.495 431.256C614.049 430.915 614.679 430.744 615.383 430.744C616.001 430.744 616.545 430.877 617.015 431.144C617.484 431.4 617.841 431.768 618.087 432.248V430.936H619.687ZM615.751 437.464C616.476 437.464 617.047 437.224 617.463 436.744C617.879 436.264 618.087 435.603 618.087 434.76C618.087 433.917 617.879 433.256 617.463 432.776C617.057 432.285 616.487 432.04 615.751 432.04C615.025 432.04 614.449 432.285 614.023 432.776C613.607 433.256 613.399 433.917 613.399 434.76C613.399 435.592 613.607 436.253 614.023 436.744C614.449 437.224 615.025 437.464 615.751 437.464ZM626.325 430.936H627.925V439H626.325V430.936ZM628.053 427.416V429.112H626.181V427.416H628.053ZM634.581 430.744C636.512 430.744 637.477 431.821 637.477 433.976V439H635.861V434.072C635.861 433.368 635.723 432.856 635.445 432.536C635.179 432.216 634.747 432.056 634.149 432.056C633.467 432.056 632.917 432.269 632.501 432.696C632.096 433.123 631.893 433.693 631.893 434.408V439H630.293V433.208C630.293 432.365 630.251 431.608 630.165 430.936H631.669L631.813 432.328C632.069 431.816 632.437 431.427 632.917 431.16C633.408 430.883 633.963 430.744 634.581 430.744ZM579.555 448.608H583.539C585.384 448.608 586.813 449.104 587.827 450.096C588.84 451.088 589.347 452.485 589.347 454.288C589.347 456.101 588.84 457.509 587.827 458.512C586.813 459.504 585.384 460 583.539 460H579.555V448.608ZM583.443 458.624C586.248 458.624 587.651 457.179 587.651 454.288C587.651 451.419 586.248 449.984 583.443 449.984H581.203V458.624H583.443ZM594.929 460.112C594.14 460.112 593.447 459.941 592.849 459.6C592.252 459.259 591.788 458.773 591.457 458.144C591.137 457.515 590.977 456.779 590.977 455.936C590.977 455.093 591.137 454.357 591.457 453.728C591.788 453.088 592.252 452.597 592.849 452.256C593.447 451.915 594.14 451.744 594.929 451.744C595.708 451.744 596.396 451.915 596.993 452.256C597.591 452.597 598.049 453.088 598.369 453.728C598.7 454.357 598.865 455.093 598.865 455.936C598.865 456.779 598.7 457.515 598.369 458.144C598.049 458.773 597.591 459.259 596.993 459.6C596.396 459.941 595.708 460.112 594.929 460.112ZM594.913 458.832C595.66 458.832 596.231 458.587 596.625 458.096C597.02 457.605 597.217 456.885 597.217 455.936C597.217 455.008 597.015 454.293 596.609 453.792C596.215 453.291 595.655 453.04 594.929 453.04C594.193 453.04 593.623 453.291 593.217 453.792C592.812 454.293 592.609 455.008 592.609 455.936C592.609 456.885 592.807 457.605 593.201 458.096C593.607 458.587 594.177 458.832 594.913 458.832ZM600.754 448.224H602.354V460H600.754V448.224ZM604.723 448.224H606.323V460H604.723V448.224ZM616.068 451.936V460H614.468V458.624C614.233 459.104 613.881 459.472 613.412 459.728C612.953 459.984 612.414 460.112 611.796 460.112C611.081 460.112 610.452 459.941 609.908 459.6C609.374 459.259 608.958 458.779 608.66 458.16C608.361 457.531 608.212 456.8 608.212 455.968C608.212 455.136 608.361 454.4 608.66 453.76C608.969 453.12 609.396 452.624 609.94 452.272C610.484 451.92 611.102 451.744 611.796 451.744C612.414 451.744 612.953 451.877 613.412 452.144C613.87 452.4 614.222 452.768 614.468 453.248V451.936H616.068ZM612.18 458.832C612.905 458.832 613.465 458.581 613.86 458.08C614.265 457.568 614.468 456.853 614.468 455.936C614.468 455.008 614.265 454.293 613.86 453.792C613.465 453.291 612.9 453.04 612.164 453.04C611.438 453.04 610.868 453.301 610.452 453.824C610.046 454.336 609.844 455.051 609.844 455.968C609.844 456.875 610.046 457.579 610.452 458.08C610.868 458.581 611.444 458.832 612.18 458.832ZM622.458 451.744C622.703 451.744 622.959 451.781 623.226 451.856L623.194 453.328C622.906 453.221 622.591 453.168 622.25 453.168C621.514 453.168 620.959 453.392 620.586 453.84C620.223 454.277 620.042 454.832 620.042 455.504V460H618.442V454.208C618.442 453.365 618.399 452.608 618.314 451.936H619.818L619.962 453.392C620.175 452.859 620.506 452.453 620.954 452.176C621.402 451.888 621.903 451.744 622.458 451.744Z" fill="#1C1D24"/>
<circle cx="600" cy="355" r="48" fill="white"/>
<circle cx="600.001" cy="355.003" r="35.3684" fill="#95C623"/>
<path d="M606.476 346.577C606.476 342.667 603.28 339.471 599.37 339.471C595.46 339.471 592.264 342.667 592.264 346.577C592.264 350.487 595.46 353.683 599.37 353.683C603.28 353.683 606.476 350.487 606.476 346.577ZM599.972 350.111V351.014C599.972 351.127 599.896 351.202 599.784 351.202H598.919C598.806 351.202 598.731 351.127 598.731 351.014V350.149C597.828 350.074 597.114 349.397 597.039 348.532C597.039 348.419 597.114 348.344 597.227 348.344H598.092C598.167 348.344 598.242 348.382 598.242 348.457C598.317 348.72 598.543 348.946 598.844 348.946H599.596C600.047 348.946 600.46 348.607 600.498 348.156C600.536 347.63 600.16 347.179 599.633 347.179H599.069C597.979 347.179 597.001 346.389 596.888 345.299C596.776 344.171 597.603 343.155 598.693 343.043V342.178C598.693 342.065 598.768 341.99 598.881 341.99H599.746C599.859 341.99 599.934 342.065 599.934 342.178V343.043C600.836 343.08 601.551 343.795 601.626 344.659C601.626 344.772 601.551 344.847 601.438 344.847H600.573C600.498 344.847 600.423 344.81 600.423 344.735C600.348 344.471 600.122 344.246 599.821 344.246H599.069C598.618 344.246 598.204 344.584 598.167 345.035C598.129 345.562 598.505 346.013 599.032 346.013H599.708C600.912 346.013 601.889 347.066 601.776 348.307C601.664 349.209 600.912 349.961 599.972 350.111Z" fill="white"/>
<path d="M613.621 348.869C613.396 349.621 612.869 350.824 612.305 352.065C612.644 352.929 612.606 354.057 611.967 355.298C611.817 355.599 611.629 355.9 611.403 356.201C610.839 356.99 610.049 357.817 609.222 358.757C609.147 358.833 609.109 358.87 609.034 358.945C608.809 359.171 608.47 359.246 608.207 359.058C607.869 358.833 607.831 358.419 608.094 358.118C608.169 358.043 608.245 357.968 608.282 357.893C609.373 356.689 610.425 355.561 610.877 354.697C611.704 353.08 611.14 352.027 610.35 351.538C609.711 351.162 608.809 351.162 608.32 351.877C607.605 352.929 606.628 354.057 605.688 355.11C604.597 356.351 603.507 357.667 602.905 358.682C602.229 359.848 601.326 362.593 601.176 365.45C601.101 366.841 601.063 368.458 601.025 369.436C601.025 369.925 601.401 370.338 601.89 370.338H607.568C608.057 370.338 608.433 369.925 608.433 369.473V367.857C608.433 367.481 608.621 367.105 608.921 366.879C610.952 365.488 612.832 363.796 613.922 362.555C616.253 359.848 617.081 351.839 617.193 349.47C617.344 347.177 614.336 346.65 613.621 348.869Z" fill="white"/>
<path d="M595.836 358.76C595.197 357.708 594.144 356.429 593.054 355.188C592.114 354.136 591.136 353.008 590.422 351.955C589.933 351.203 589.031 351.203 588.392 351.616C587.602 352.068 587.038 353.158 587.865 354.775C588.316 355.64 589.332 356.768 590.46 357.971C590.535 358.046 590.61 358.121 590.648 358.196C590.911 358.46 590.836 358.911 590.535 359.136C590.272 359.287 589.933 359.249 589.708 359.024C589.632 358.948 589.595 358.911 589.52 358.836C588.655 357.896 587.903 357.068 587.339 356.279C587.113 355.978 586.925 355.64 586.775 355.376C586.136 354.136 586.098 353.008 586.436 352.143C585.872 350.864 585.346 349.699 585.12 348.947C584.444 346.728 581.398 347.292 581.511 349.661C581.624 352.03 582.488 360.039 584.782 362.746C585.835 363.987 587.752 365.641 589.783 367.07C590.084 367.296 590.272 367.634 590.272 368.048V369.664C590.272 370.153 590.685 370.529 591.136 370.529H596.814C597.303 370.529 597.716 370.116 597.679 369.627C597.641 368.649 597.604 367.032 597.528 365.641C597.416 362.671 596.551 359.888 595.836 358.76Z" fill="white"/>
<g filter="url(#filter6_d)">
<rect x="310" y="443" width="177" height="190" rx="10" fill="#F8F8F8"/>
</g>
<path d="M344.125 599.128C343.026 599.128 342.066 598.893 341.245 598.424C340.434 597.944 339.81 597.267 339.373 596.392C338.936 595.517 338.717 594.483 338.717 593.288C338.717 592.104 338.936 591.075 339.373 590.2C339.81 589.325 340.434 588.653 341.245 588.184C342.066 587.715 343.026 587.48 344.125 587.48C344.904 587.48 345.624 587.603 346.285 587.848C346.957 588.083 347.522 588.429 347.981 588.888L347.405 590.104C346.872 589.667 346.344 589.352 345.821 589.16C345.309 588.957 344.749 588.856 344.141 588.856C342.957 588.856 342.04 589.24 341.389 590.008C340.749 590.776 340.429 591.869 340.429 593.288C340.429 594.717 340.749 595.821 341.389 596.6C342.04 597.368 342.957 597.752 344.141 597.752C344.749 597.752 345.309 597.656 345.821 597.464C346.344 597.261 346.872 596.941 347.405 596.504L347.981 597.72C347.522 598.179 346.957 598.531 346.285 598.776C345.624 599.011 344.904 599.128 344.125 599.128ZM353.927 590.744C354.172 590.744 354.428 590.781 354.695 590.856L354.663 592.328C354.375 592.221 354.06 592.168 353.719 592.168C352.983 592.168 352.428 592.392 352.055 592.84C351.692 593.277 351.511 593.832 351.511 594.504V599H349.911V593.208C349.911 592.365 349.868 591.608 349.783 590.936H351.287L351.431 592.392C351.644 591.859 351.975 591.453 352.423 591.176C352.871 590.888 353.372 590.744 353.927 590.744ZM363.739 590.936L359.979 599.656C359.563 600.605 359.04 601.299 358.411 601.736C357.792 602.184 357.024 602.483 356.107 602.632L355.755 601.384C356.512 601.213 357.083 600.989 357.467 600.712C357.861 600.445 358.176 600.04 358.411 599.496L358.699 598.824L355.307 590.936H357.019L359.547 597.176L362.123 590.936H363.739ZM369.261 590.744C369.954 590.744 370.573 590.92 371.117 591.272C371.661 591.624 372.082 592.12 372.381 592.76C372.69 593.4 372.845 594.136 372.845 594.968C372.845 595.8 372.695 596.531 372.397 597.16C372.098 597.779 371.677 598.259 371.133 598.6C370.589 598.941 369.965 599.112 369.261 599.112C368.642 599.112 368.098 598.984 367.629 598.728C367.17 598.461 366.823 598.083 366.589 597.592V602.456H364.989V593.208C364.989 592.365 364.946 591.608 364.861 590.936H366.365L366.525 592.424C366.738 591.891 367.085 591.48 367.565 591.192C368.045 590.893 368.61 590.744 369.261 590.744ZM368.893 597.832C369.618 597.832 370.183 597.581 370.589 597.08C370.994 596.579 371.197 595.875 371.197 594.968C371.197 594.051 370.994 593.336 370.589 592.824C370.183 592.301 369.618 592.04 368.893 592.04C368.146 592.04 367.575 592.291 367.181 592.792C366.786 593.293 366.589 594.008 366.589 594.936C366.589 595.864 366.786 596.579 367.181 597.08C367.586 597.581 368.157 597.832 368.893 597.832ZM376.803 592.184V596.232C376.803 596.787 376.921 597.181 377.155 597.416C377.401 597.64 377.737 597.752 378.163 597.752C378.441 597.752 378.723 597.709 379.011 597.624V598.936C378.659 599.053 378.259 599.112 377.811 599.112C376.979 599.112 376.334 598.877 375.875 598.408C375.417 597.939 375.187 597.256 375.187 596.36V592.184H373.619V590.936H375.187V588.92L376.803 588.36V590.936H379.027V592.184H376.803ZM383.992 599.112C383.203 599.112 382.509 598.941 381.912 598.6C381.315 598.259 380.851 597.773 380.52 597.144C380.2 596.515 380.04 595.779 380.04 594.936C380.04 594.093 380.2 593.357 380.52 592.728C380.851 592.088 381.315 591.597 381.912 591.256C382.509 590.915 383.203 590.744 383.992 590.744C384.771 590.744 385.459 590.915 386.056 591.256C386.653 591.597 387.112 592.088 387.432 592.728C387.763 593.357 387.928 594.093 387.928 594.936C387.928 595.779 387.763 596.515 387.432 597.144C387.112 597.773 386.653 598.259 386.056 598.6C385.459 598.941 384.771 599.112 383.992 599.112ZM383.976 597.832C384.723 597.832 385.293 597.587 385.688 597.096C386.083 596.605 386.28 595.885 386.28 594.936C386.28 594.008 386.077 593.293 385.672 592.792C385.277 592.291 384.717 592.04 383.992 592.04C383.256 592.04 382.685 592.291 382.28 592.792C381.875 593.293 381.672 594.008 381.672 594.936C381.672 595.885 381.869 596.605 382.264 597.096C382.669 597.587 383.24 597.832 383.976 597.832ZM399.234 599.128C398.136 599.128 397.176 598.893 396.354 598.424C395.544 597.944 394.92 597.267 394.482 596.392C394.045 595.517 393.826 594.483 393.826 593.288C393.826 592.104 394.045 591.075 394.482 590.2C394.92 589.325 395.544 588.653 396.354 588.184C397.176 587.715 398.136 587.48 399.234 587.48C400.013 587.48 400.733 587.603 401.394 587.848C402.066 588.083 402.632 588.429 403.09 588.888L402.514 590.104C401.981 589.667 401.453 589.352 400.93 589.16C400.418 588.957 399.858 588.856 399.25 588.856C398.066 588.856 397.149 589.24 396.498 590.008C395.858 590.776 395.538 591.869 395.538 593.288C395.538 594.717 395.858 595.821 396.498 596.6C397.149 597.368 398.066 597.752 399.25 597.752C399.858 597.752 400.418 597.656 400.93 597.464C401.453 597.261 401.981 596.941 402.514 596.504L403.09 597.72C402.632 598.179 402.066 598.531 401.394 598.776C400.733 599.011 400.013 599.128 399.234 599.128ZM411.872 590.936V599H410.304V597.656C410.048 598.125 409.696 598.488 409.248 598.744C408.8 598.989 408.293 599.112 407.728 599.112C405.786 599.112 404.816 598.035 404.816 595.88V590.936H406.416V595.864C406.416 596.525 406.549 597.016 406.816 597.336C407.093 597.645 407.509 597.8 408.064 597.8C408.725 597.8 409.253 597.587 409.648 597.16C410.053 596.733 410.256 596.168 410.256 595.464V590.936H411.872ZM418.255 590.744C418.5 590.744 418.756 590.781 419.023 590.856L418.991 592.328C418.703 592.221 418.388 592.168 418.047 592.168C417.311 592.168 416.756 592.392 416.383 592.84C416.02 593.277 415.839 593.832 415.839 594.504V599H414.239V593.208C414.239 592.365 414.196 591.608 414.111 590.936H415.615L415.759 592.392C415.972 591.859 416.303 591.453 416.751 591.176C417.199 590.888 417.7 590.744 418.255 590.744ZM424.27 590.744C424.516 590.744 424.772 590.781 425.038 590.856L425.006 592.328C424.718 592.221 424.404 592.168 424.062 592.168C423.326 592.168 422.772 592.392 422.398 592.84C422.036 593.277 421.854 593.832 421.854 594.504V599H420.254V593.208C420.254 592.365 420.212 591.608 420.126 590.936H421.63L421.774 592.392C421.988 591.859 422.318 591.453 422.766 591.176C423.214 590.888 423.716 590.744 424.27 590.744ZM432.994 595H427.234C427.287 596.888 428.146 597.832 429.81 597.832C430.738 597.832 431.586 597.528 432.354 596.92L432.85 598.072C432.487 598.392 432.023 598.648 431.458 598.84C430.903 599.021 430.343 599.112 429.778 599.112C428.487 599.112 427.474 598.744 426.738 598.008C426.002 597.261 425.634 596.243 425.634 594.952C425.634 594.131 425.794 593.4 426.114 592.76C426.444 592.12 426.903 591.624 427.49 591.272C428.076 590.92 428.743 590.744 429.49 590.744C430.578 590.744 431.431 591.096 432.05 591.8C432.679 592.504 432.994 593.48 432.994 594.728V595ZM429.522 591.944C428.914 591.944 428.418 592.125 428.034 592.488C427.65 592.851 427.404 593.368 427.298 594.04H431.57C431.506 593.357 431.298 592.84 430.946 592.488C430.594 592.125 430.119 591.944 429.522 591.944ZM439.136 590.744C441.067 590.744 442.032 591.821 442.032 593.976V599H440.416V594.072C440.416 593.368 440.277 592.856 440 592.536C439.733 592.216 439.301 592.056 438.704 592.056C438.021 592.056 437.472 592.269 437.056 592.696C436.651 593.123 436.448 593.693 436.448 594.408V599H434.848V593.208C434.848 592.365 434.805 591.608 434.72 590.936H436.224L436.368 592.328C436.624 591.816 436.992 591.427 437.472 591.16C437.963 590.883 438.517 590.744 439.136 590.744ZM447.836 599.112C447.026 599.112 446.316 598.941 445.708 598.6C445.111 598.259 444.652 597.779 444.332 597.16C444.012 596.531 443.852 595.8 443.852 594.968C443.852 594.136 444.018 593.4 444.348 592.76C444.69 592.12 445.164 591.624 445.772 591.272C446.38 590.92 447.09 590.744 447.9 590.744C448.466 590.744 449.01 590.84 449.532 591.032C450.055 591.213 450.476 591.464 450.796 591.784L450.3 592.952C449.543 592.355 448.78 592.056 448.012 592.056C447.234 592.056 446.626 592.312 446.188 592.824C445.751 593.325 445.532 594.035 445.532 594.952C445.532 595.869 445.751 596.579 446.188 597.08C446.626 597.571 447.234 597.816 448.012 597.816C448.802 597.816 449.564 597.517 450.3 596.92L450.796 598.088C450.455 598.408 450.018 598.659 449.484 598.84C448.962 599.021 448.412 599.112 447.836 599.112ZM459.645 590.936L455.885 599.656C455.469 600.605 454.946 601.299 454.317 601.736C453.698 602.184 452.93 602.483 452.013 602.632L451.661 601.384C452.418 601.213 452.989 600.989 453.373 600.712C453.767 600.445 454.082 600.04 454.317 599.496L454.605 598.824L451.213 590.936H452.925L455.453 597.176L458.029 590.936H459.645Z" fill="#1C1D24"/>
<circle cx="397.75" cy="506" r="48" fill="white"/>
<circle cx="397.749" cy="506.003" r="35.3684" fill="#8D45D3"/>
<path d="M402.642 511.754V508.158C402.642 506.131 404.31 504.464 406.337 504.464H411.175V501.815C411.175 500.344 409.966 499.134 408.494 499.134V497.598C408.494 495.669 406.925 494.1 404.996 494.1H401.008L398.392 490.471L393.325 494.1H385.544C383.68 494.1 382.144 495.571 382.078 497.402C382.078 497.532 382.078 497.631 382.078 497.631V518.358C382.078 520.091 383.484 521.53 385.249 521.53H408.004C409.737 521.53 411.175 520.124 411.175 518.358V515.449H406.337C404.31 515.449 402.642 513.814 402.642 511.754ZM404.996 496.061C405.846 496.061 406.533 496.748 406.533 497.598V499.134H404.604L402.413 496.061H404.996ZM402.185 499.134H389.663L397.934 493.184L402.185 499.134ZM385.544 496.061H390.611L386.328 499.134H385.544C384.694 499.134 384.007 498.448 384.007 497.598C384.007 496.748 384.694 496.061 385.544 496.061Z" fill="white"/>
<path d="M412.255 505.867H406.337C405.062 505.867 404.049 506.881 404.049 508.156V511.752C404.049 513.027 405.062 514.041 406.337 514.041H412.255C412.68 514.041 413.04 513.681 413.04 513.256V506.652C413.04 506.194 412.68 505.867 412.255 505.867ZM407.58 511.654C406.664 511.654 405.88 510.902 405.88 509.987C405.88 509.071 406.632 508.287 407.58 508.287C408.495 508.287 409.247 509.038 409.247 509.987C409.28 510.902 408.528 511.654 407.58 511.654Z" fill="white"/>
<defs>
<filter id="filter0_d" x="278" y="0" width="205" height="218" filterUnits="userSpaceOnUse" color-interpolation-filters="sRGB">
<feFlood flood-opacity="0" result="BackgroundImageFix"/>
<feColorMatrix in="SourceAlpha" type="matrix" values="0 0 0 0 0 0 0 0 0 0 0 0 0 0 0 0 0 0 127 0"/>
<feOffset dy="3"/>
<feGaussianBlur stdDeviation="7"/>
<feColorMatrix type="matrix" values="0 0 0 0 0 0 0 0 0 0 0 0 0 0 0 0 0 0 0.1 0"/>
<feBlend mode="normal" in2="BackgroundImageFix" result="effect1_dropShadow"/>
<feBlend mode="normal" in="SourceGraphic" in2="effect1_dropShadow" result="shape"/>
</filter>
<filter id="filter1_d" x="76" y="58" width="205" height="218" filterUnits="userSpaceOnUse" color-interpolation-filters="sRGB">
<feFlood flood-opacity="0" result="BackgroundImageFix"/>
<feColorMatrix in="SourceAlpha" type="matrix" values="0 0 0 0 0 0 0 0 0 0 0 0 0 0 0 0 0 0 127 0"/>
<feOffset dy="3"/>
<feGaussianBlur stdDeviation="7"/>
<feColorMatrix type="matrix" values="0 0 0 0 0 0 0 0 0 0 0 0 0 0 0 0 0 0 0.1 0"/>
<feBlend mode="normal" in2="BackgroundImageFix" result="effect1_dropShadow"/>
<feBlend mode="normal" in="SourceGraphic" in2="effect1_dropShadow" result="shape"/>
</filter>
<filter id="filter2_d" x="94" y="273" width="205" height="218" filterUnits="userSpaceOnUse" color-interpolation-filters="sRGB">
<feFlood flood-opacity="0" result="BackgroundImageFix"/>
<feColorMatrix in="SourceAlpha" type="matrix" values="0 0 0 0 0 0 0 0 0 0 0 0 0 0 0 0 0 0 127 0"/>
<feOffset dy="3"/>
<feGaussianBlur stdDeviation="7"/>
<feColorMatrix type="matrix" values="0 0 0 0 0 0 0 0 0 0 0 0 0 0 0 0 0 0 0.1 0"/>
<feBlend mode="normal" in2="BackgroundImageFix" result="effect1_dropShadow"/>
<feBlend mode="normal" in="SourceGraphic" in2="effect1_dropShadow" result="shape"/>
</filter>
<filter id="filter3_d" x="296" y="215" width="205" height="218" filterUnits="userSpaceOnUse" color-interpolation-filters="sRGB">
<feFlood flood-opacity="0" result="BackgroundImageFix"/>
<feColorMatrix in="SourceAlpha" type="matrix" values="0 0 0 0 0 0 0 0 0 0 0 0 0 0 0 0 0 0 127 0"/>
<feOffset dy="3"/>
<feGaussianBlur stdDeviation="7"/>
<feColorMatrix type="matrix" values="0 0 0 0 0 0 0 0 0 0 0 0 0 0 0 0 0 0 0.1 0"/>
<feBlend mode="normal" in2="BackgroundImageFix" result="effect1_dropShadow"/>
<feBlend mode="normal" in="SourceGraphic" in2="effect1_dropShadow" result="shape"/>
</filter>
<filter id="filter4_d" x="498" y="66" width="205" height="218" filterUnits="userSpaceOnUse" color-interpolation-filters="sRGB">
<feFlood flood-opacity="0" result="BackgroundImageFix"/>
<feColorMatrix in="SourceAlpha" type="matrix" values="0 0 0 0 0 0 0 0 0 0 0 0 0 0 0 0 0 0 127 0"/>
<feOffset dy="3"/>
<feGaussianBlur stdDeviation="7"/>
<feColorMatrix type="matrix" values="0 0 0 0 0 0 0 0 0 0 0 0 0 0 0 0 0 0 0.1 0"/>
<feBlend mode="normal" in2="BackgroundImageFix" result="effect1_dropShadow"/>
<feBlend mode="normal" in="SourceGraphic" in2="effect1_dropShadow" result="shape"/>
</filter>
<filter id="filter5_d" x="498" y="281" width="205" height="218" filterUnits="userSpaceOnUse" color-interpolation-filters="sRGB">
<feFlood flood-opacity="0" result="BackgroundImageFix"/>
<feColorMatrix in="SourceAlpha" type="matrix" values="0 0 0 0 0 0 0 0 0 0 0 0 0 0 0 0 0 0 127 0"/>
<feOffset dy="3"/>
<feGaussianBlur stdDeviation="7"/>
<feColorMatrix type="matrix" values="0 0 0 0 0 0 0 0 0 0 0 0 0 0 0 0 0 0 0.1 0"/>
<feBlend mode="normal" in2="BackgroundImageFix" result="effect1_dropShadow"/>
<feBlend mode="normal" in="SourceGraphic" in2="effect1_dropShadow" result="shape"/>
</filter>
<filter id="filter6_d" x="296" y="432" width="205" height="218" filterUnits="userSpaceOnUse" color-interpolation-filters="sRGB">
<feFlood flood-opacity="0" result="BackgroundImageFix"/>
<feColorMatrix in="SourceAlpha" type="matrix" values="0 0 0 0 0 0 0 0 0 0 0 0 0 0 0 0 0 0 127 0"/>
<feOffset dy="3"/>
<feGaussianBlur stdDeviation="7"/>
<feColorMatrix type="matrix" values="0 0 0 0 0 0 0 0 0 0 0 0 0 0 0 0 0 0 0.1 0"/>
<feBlend mode="normal" in2="BackgroundImageFix" result="effect1_dropShadow"/>
<feBlend mode="normal" in="SourceGraphic" in2="effect1_dropShadow" result="shape"/>
</filter>
<clipPath id="clip0">
<rect width="37" height="37" fill="white" transform="translate(361.213 62.8086)"/>
</clipPath>
</defs>
</svg>
