<svg width="42" height="41" viewBox="0 0 42 41" fill="none" xmlns="http://www.w3.org/2000/svg">
<path d="M20.5007 41C15.0638 41 9.84958 38.8403 6.005 34.996C2.16041 31.1516 0.000364451 25.9376 0 20.5007C0 15.0636 2.15989 9.84914 6.00452 6.00452C9.84914 2.15989 15.0636 0 20.5007 0C25.9378 0 31.1522 2.15989 34.9968 6.00452C38.8415 9.84914 41.0014 15.0636 41.0014 20.5007C41.001 25.9376 38.8409 31.1516 34.9964 34.996C31.1518 38.8403 25.9376 41 20.5007 41Z" fill="#117BB8"/>
<path d="M15.4483 15.9316H11.2061V29.6382H15.4483V15.9316Z" fill="white"/>
<path d="M13.3072 14.1386C13.8081 14.1424 14.2988 13.9974 14.7171 13.7219C15.1354 13.4465 15.4625 13.053 15.6569 12.5914C15.8512 12.1298 15.9041 11.6209 15.8089 11.1291C15.7136 10.6374 15.4744 10.1851 15.1217 9.82947C14.769 9.47386 14.3186 9.23101 13.8277 9.13172C13.3368 9.03243 12.8274 9.08118 12.3643 9.27178C11.9011 9.46237 11.5049 9.78621 11.2261 10.2023C10.9472 10.6183 10.7982 11.1078 10.7979 11.6087C10.7964 11.9396 10.8602 12.2675 10.9855 12.5738C11.1109 12.88 11.2953 13.1586 11.5284 13.3935C11.7614 13.6285 12.0384 13.8152 12.3436 13.9431C12.6489 14.0709 12.9763 14.1374 13.3072 14.1386Z" fill="white"/>
<path d="M22.232 22.442C22.232 20.5181 23.1197 19.3678 24.8169 19.3678C26.3766 19.3678 27.1256 20.4672 27.1256 22.442V29.6374H31.3486V20.9592C31.3486 17.2886 29.268 15.5132 26.3615 15.5132C25.536 15.5017 24.7216 15.7043 23.9977 16.1012C23.2737 16.4981 22.6649 17.0757 22.2306 17.7779V15.9309H18.1602V29.6374H22.2306L22.232 22.442Z" fill="white"/>
</svg>
