<svg xmlns="http://www.w3.org/2000/svg" width="175" height="451" fill="none" viewBox="0 0 175 451">
    <g opacity=".6">
        <path fill="url(#paint0_linear)" d="M32.622 299.367h-50.05s-9.42-25.673 2.846-43.795c25.023-36.967-9.102-56.301-22.18-66.518-19.726-15.441-28.423-35.387-4.696-48.329 26.837-14.639 3.18-53.606-32.281-73.948-34.693-19.907-19.33-93.063 59.715-56.874 47.204 21.61 39.813 71.66 42.063 97.822 2.25 26.162 41.183 28.324 27.88 60.282-11.372 27.302-32.986 47.204-16.493 65.976 16.492 18.772 18.219 39.789-6.804 65.384z"/>
        <path fill="#BEB8F2" d="M10.978 304.013c.117-.645 11.739-65.271 3.913-132.817-4.593-39.705-14.898-72.647-30.623-97.904-19.691-31.621-47.972-51.225-84.063-58.258l-.205 1.071C-18.95 31.908 6.625 109.236 13.8 171.324c7.792 67.384-3.785 131.848-3.913 132.494l1.091.195z"/>
        <path fill="#BEB8F2" d="M16.502 215.637l1.066-.249c-11.929-50.29-80.585-62.919-81.25-62.919l-.034 1.09c.67.064 68.426 12.341 80.218 62.078zM16.847 194.532c6.554-31.542 40.865-53.312 41.208-53.518l-.578-.929c-.352.22-35.049 22.23-41.706 54.222l1.076.225zM11.501 293.633l1.09-.088c-1.57-19.971-28.856-35.118-30.04-35.754l-.523.978c.278.137 27.947 15.485 29.473 34.864zM14.484 278.398c2.514-14.727 25.165-31.421 32.609-36.904.796-.542 1.559-1.131 2.284-1.765L48.56 239c-.142.152-1.056.831-2.118 1.614-7.532 5.546-30.447 22.435-33.034 37.603l1.076.181z"/>
        <path fill="url(#paint1_linear)" d="M52.274 393.377c9.088 14.335 4.373 30.496-.734 41.632-1.54.211-2.382.759-3.913 1.346-13.611 5.282-28.226 7.938-42.386 10.863-3.047.631-6.04.777-9.131 1.173l-3.15.323s-20.376-43.173-2.739-55.944C7.858 380-4.306 343.996-8.561 324.051c-11.558-54.12 48.206-56.967 38.918-127.706-2.47-18.811-13.475-53.866.406-70.945 15.813-19.462 31.215-4.461 40.948-20.269 15.207-24.715 43.614-36.615 64.215-15.979 20.332 20.371 5.233 68.265-42.332 111.448-30.618 34.844-29.958 43.976-24.319 65.682 3.952 15.202 24.02 53.513 5.17 72.388-18.85 18.875-32.56 38.322-22.171 54.707z"/>
        <path fill="#FCFDFE" d="M19.492 443.293h1.1c-.048-6.305 0-12.673.088-18.924.798-46.225 5.87-90.705 15.104-132.196 7.826-35.147 18.709-68.646 32.374-99.577 10.633-24.211 23.4-47.428 38.151-69.375 9.593-14.281 20.208-27.849 31.762-40.596 1.908-2.084 3.981-4.123 5.992-6.094 2.704-2.656 5.507-5.38 7.962-8.315l-.846-.704c-2.416 2.89-5.199 5.62-7.889 8.26-2.015 1.982-4.104 4.031-6.031 6.139-11.59 12.784-22.24 26.391-31.865 40.713-14.783 22.004-27.578 45.279-38.234 69.551-13.695 30.99-24.611 64.562-32.442 99.778-9.244 41.574-14.336 86.112-15.128 132.411-.113 6.236-.147 12.614-.098 18.929z"/>
        <path fill="#FCFDFE" d="M53.04 230.974c13.88-43.765-13.074-117.386-13.348-118.129l-1.032.381c.274.734 27.101 74.012 13.333 117.415l1.047.333zM25.161 355.783c5.816-30.11 57.226-59.74 57.769-60.033l-.543-.979c-.524.294-52.393 30.174-58.302 60.777l1.076.235zM23.33 373.424c.263-20.543-10.306-48.637-29.763-79.094-.42-.66-.788-1.237-.841-1.345l-.42.206h-.637c0 .205 0 .205.978 1.731 19.345 30.281 29.836 58.155 29.587 78.487l1.095.015zM20.667 431.756c6.534-20.885 36.971-32.878 37.274-33l-.396-1.023c-.308.118-31.234 12.301-37.925 33.695l1.047.328zM18.974 443.607l1.032-.382c-6.358-17.118-17.774-32.946-34.966-48.421l-.739.821c17.06 15.329 28.402 31.024 34.673 47.982zM98.038 135.844c9.049-23.824 13.02-50.906 14.326-59.808.225-1.546.406-2.769.49-2.964l-1.042-.347c-.083.259-.201 1.012-.514 3.154-1.301 8.868-5.258 35.862-14.262 59.579l1.002.386zM77.71 172.233c14.34-18.41 62.606-24.235 63.095-24.294l-.127-1.09c-2.001.234-49.224 5.942-63.844 24.709l.876.675z"/>
        <path fill="url(#paint2_linear)" d="M52.81 434.8c-.19.083-.376.171-.572.249-13.695 5.282-28.226 7.938-42.386 10.863-1.908.396-3.825.724-5.757 1.017-2.553-7.15-4.514-17.691 4.656-20.513 14.238-4.377 14.39-29.488 10.409-38.336-4.93-10.956-15.887-36.683 6.02-43.814 18.24-5.928 31.22-6.026 32.316-29.576 1.096-23.551 13.827-38.342 35.216-37.109 22.499 1.301 40.664-28.75 59.147-18.894 32.208 17.177 3.561 69.282-35.323 84.615-38.884 15.334-16.405 29.215-15.201 48.471 1.643 26.289-33.954 20.948-43.267 31.352-2.893 3.27-4.726 7.341-5.258 11.675z"/>
        <path fill="#FCFDFE" d="M30.924 441.585c14.923-75.777 66.518-143.939 134.715-177.893l-.489-.978c-68.475 34.1-120.32 102.561-135.297 178.661l1.07.21z"/>
        <path fill="#FCFDFE" d="M41.548 400.798h1.1c-.137-30.97-26.69-54.927-26.96-55.161l-.728.821c.264.23 26.456 23.869 26.588 54.34zM34.064 427.666c14.272-26.739 69.805-30.814 70.368-30.814l-.079-1.095c-.562.034-56.702 4.133-71.262 31.4l.973.509zM80.034 334.61c9.836-22.954-5.175-57.925-5.331-58.272l-1.008.435c.152.347 14.977 34.888 5.327 57.407l1.012.43zM113.69 298.678c23.379-14.521 59.842-6.696 60.209-6.598l.24-1.071c-.372-.083-37.275-8.002-61.012 6.735l.563.934z"/>
        <path fill="#5A2F71" d="M-10.503 448.703l-.362 1.781c30.814-.215 68.074-15.06 68.436-15.212.264-.107-.367-2.024-.49-2.293-.052-.129-.152-.231-.28-.285-.127-.054-.27-.056-.4-.004-.361.152-36.325 14.752-66.919 14.967-.139 0-.272.055-.37.153-.098.098-.153.231-.153.37 0 .139.055.272.153.37.098.098.231.153.37.153h.015z"/>
    </g>
    <defs>
        <linearGradient id="paint0_linear" x1="-305012" x2="-213391" y1="233368" y2="363776" gradientUnits="userSpaceOnUse">
            <stop stop-color="#AA80F9"/>
            <stop offset="1" stop-color="#6165D7"/>
        </linearGradient>
        <linearGradient id="paint1_linear" x1="-307541" x2="-138426" y1="536779" y2="409010" gradientUnits="userSpaceOnUse">
            <stop stop-color="#FFC444"/>
            <stop offset="1" stop-color="#F36F56"/>
        </linearGradient>
        <linearGradient id="paint2_linear" x1="-273261" x2="-319478" y1="250144" y2="315663" gradientUnits="userSpaceOnUse">
            <stop stop-color="#E38DDD"/>
            <stop offset="1" stop-color="#9571F6"/>
        </linearGradient>
    </defs>
</svg>
