<svg width="345" height="317" viewBox="0 0 345 317" fill="none" xmlns="http://www.w3.org/2000/svg">
<path opacity="0.2" d="M160.965 264.425C98.6239 261.332 36.1902 236.538 23.7225 194.227C11.1663 152.146 48.3466 92.4603 96.8882 63.5634C145.43 34.6665 205.651 36.4165 249.49 69.1226C293.559 101.917 321.246 165.667 303.762 207.032C286.278 248.397 223.394 267.289 160.965 264.425Z" fill="#2D56B3"/>
<path d="M271.005 177.706C247.987 228.53 189.608 249.342 144.308 244.633C131.939 243.348 107.053 240.761 87.9741 221.944C51.3351 185.809 58.6433 112.037 95.3416 69.2847C100.068 63.779 132.754 26.9133 182.451 28.4594C218.837 29.5913 243.949 50.6856 247.001 53.3121C250.857 56.6299 259.35 64.4999 266.893 76.8608C284.618 105.904 285.389 145.946 271.005 177.706Z" fill="url(#paint0_linear)"/>
<path d="M218.274 155.305C218.421 154.398 218.798 153.544 219.37 152.824C219.941 152.104 220.687 151.543 221.537 151.193C225.939 149.413 230.22 146.605 233.965 142.818C241.33 135.372 244.895 125.896 244.298 117.544C244.22 116.517 244.436 115.49 244.921 114.582C245.405 113.674 246.139 112.922 247.035 112.416C251.895 109.677 256.862 105.526 261.252 100.235C272.517 86.6595 275.716 70.7314 268.398 64.6592C261.08 58.5869 246.016 64.6699 234.751 78.2458C230.273 83.6421 227.071 89.4096 225.296 94.7824C224.965 95.7859 224.351 96.6721 223.527 97.3338C222.704 97.9955 221.706 98.4042 220.655 98.5107C213.477 99.2508 205.921 102.829 199.797 109.021C198.123 110.71 196.609 112.549 195.274 114.515C194.715 115.338 193.939 115.99 193.033 116.399C192.127 116.809 191.125 116.96 190.139 116.836C179.614 115.517 168.378 119.106 160.082 127.493C146.278 141.448 145.842 163.397 159.106 176.517C172.371 189.637 194.314 188.96 208.117 175.005C213.689 169.372 217.081 162.436 218.274 155.305Z" fill="#BDD0FB"/>
<path opacity="0.36" d="M257.431 81.2817C256.149 83.5222 254.762 85.6921 253.337 87.839C251.911 89.984 250.439 92.0982 248.923 94.1817C245.891 98.347 242.708 102.397 239.372 106.331C236.048 110.268 232.577 114.076 228.959 117.753C228.507 118.213 228.065 118.682 227.606 119.134L226.23 120.491C225.313 121.396 224.4 122.305 223.454 123.181L222.049 124.508C221.577 124.947 221.118 125.399 220.634 125.825L217.763 128.413C217.289 128.85 216.79 129.259 216.304 129.682L214.837 130.941C214.346 131.358 213.861 131.782 213.364 132.192L211.863 133.411L210.362 134.629L209.612 135.238C209.36 135.44 209.102 135.633 208.847 135.83L205.783 138.188C205.277 138.588 204.748 138.956 204.229 139.338L202.666 140.474L201.102 141.611C200.576 141.983 200.04 142.341 199.51 142.707L196.317 144.888L193.06 146.971C192.514 147.314 191.979 147.673 191.425 148.002L189.764 148.991L188.103 149.979L187.272 150.474L186.857 150.721L186.434 150.956L183.051 152.825L182.205 153.293L181.783 153.526L181.352 153.746L179.631 154.625L177.907 155.499L177.045 155.935C176.758 156.082 176.471 156.228 176.177 156.36L172.671 157.986C172.086 158.253 171.507 158.536 170.915 158.791L169.135 159.54L165.571 161.031C165.523 161.05 165.47 161.049 165.422 161.03C165.375 161.01 165.337 160.973 165.317 160.926C165.297 160.878 165.295 160.825 165.314 160.777C165.332 160.729 165.368 160.69 165.415 160.669L165.422 160.666L168.947 159.109L170.711 158.335C171.296 158.072 171.869 157.781 172.449 157.506L175.919 155.833C176.21 155.698 176.494 155.548 176.778 155.398L177.63 154.95L179.336 154.056L181.043 153.165L181.469 152.943L181.888 152.706L182.727 152.232L186.08 150.339L186.498 150.102L186.91 149.852L187.732 149.352L189.377 148.352L191.022 147.353C191.571 147.02 192.101 146.658 192.641 146.312L195.87 144.216L199.043 142.035C199.57 141.669 200.102 141.311 200.625 140.939L202.178 139.802L203.732 138.665C204.248 138.284 204.773 137.915 205.276 137.516C209.37 134.418 213.317 131.133 217.188 127.762C224.89 120.972 232.096 113.623 238.801 105.843C242.152 101.951 245.359 97.9416 248.425 93.815C249.966 91.7606 251.461 89.6724 252.909 87.5506C253.274 87.0217 253.633 86.4898 253.988 85.9548C254.346 85.4218 254.699 84.8856 255.047 84.3461C255.747 83.271 256.437 82.1861 257.09 81.0844L257.091 81.0833C257.104 81.0609 257.121 81.0413 257.142 81.0256C257.162 81.01 257.186 80.9985 257.211 80.9919C257.236 80.9853 257.262 80.9837 257.288 80.9871C257.313 80.9906 257.338 80.9991 257.36 81.0122C257.383 81.0252 257.402 81.0425 257.418 81.0631C257.434 81.0837 257.445 81.1072 257.452 81.1322C257.458 81.1573 257.46 81.1834 257.456 81.209C257.453 81.2347 257.444 81.2594 257.431 81.2818V81.2817Z" fill="white"/>
<path d="M257.049 176.887C261.976 170.747 264.155 163.446 263.608 156.875C263.549 156.235 263.68 155.591 263.983 155.024C264.286 154.457 264.749 153.991 265.314 153.684C268.461 151.978 271.649 149.286 274.648 145.549C283.206 134.884 286.984 119.756 280.709 114.72C274.433 109.685 260.483 116.648 251.924 127.313C249.301 130.581 247.49 133.818 246.419 136.88C245.968 138.169 244.793 139.036 243.396 139.12C236.332 139.548 228.932 143.348 223.574 150.023C221.757 152.28 220.263 154.779 219.136 157.449C218.492 158.983 216.83 159.807 215.142 159.408C204.911 156.992 194.016 160.154 187.284 168.506C177.735 180.352 180.355 198.557 193.031 208.474C205.552 218.269 223.215 216.745 232.65 204.988C236.128 200.654 238.005 195.529 238.376 190.28C238.423 189.56 238.703 188.875 239.174 188.329C239.645 187.782 240.282 187.404 240.987 187.252C246.84 185.932 252.637 182.384 257.049 176.887Z" fill="#BDD0FB"/>
<path opacity="0.36" d="M271.195 127.727C270.176 129.696 269.061 131.608 267.918 133.502C266.78 135.401 265.576 137.257 264.357 139.104C261.897 142.781 259.316 146.381 256.588 149.867C251.151 156.855 245.202 163.458 238.74 169.548C235.53 172.614 232.135 175.491 228.65 178.256C225.151 181.016 221.508 183.589 217.736 185.964C216.785 186.549 215.84 187.142 214.885 187.719L211.97 189.374C211.005 189.935 209.996 190.426 209.001 190.937L207.506 191.698L206.758 192.078L205.994 192.429L202.93 193.811C202.425 194.05 201.896 194.245 201.377 194.455L199.812 195.074L198.246 195.687C197.723 195.89 197.183 196.055 196.654 196.24L193.455 197.298L193.378 197.11L196.452 195.788C196.963 195.567 197.484 195.367 197.986 195.129L199.492 194.411L200.998 193.699C201.499 193.46 202.008 193.238 202.494 192.97L205.439 191.429L206.176 191.048L206.897 190.637L208.338 189.815C209.297 189.266 210.267 188.736 211.193 188.136L214.013 186.402C214.937 185.8 215.849 185.182 216.767 184.574C217.224 184.266 217.688 183.969 218.138 183.652L219.483 182.694L220.831 181.741C221.28 181.423 221.732 181.11 222.166 180.771L224.795 178.778C225.237 178.452 225.66 178.1 226.088 177.756L227.373 176.724L228.663 175.698L229.923 174.636C230.759 173.923 231.61 173.227 232.432 172.499L234.889 170.305C235.707 169.572 236.502 168.815 237.31 168.071C240.519 165.071 243.613 161.952 246.614 158.745C249.613 155.535 252.505 152.225 255.323 148.851C258.126 145.464 260.853 142.012 263.472 138.473C264.136 137.595 264.775 136.699 265.425 135.81L267.334 133.114C267.652 132.664 267.965 132.211 268.274 131.755C268.588 131.302 268.895 130.844 269.202 130.387C269.822 129.476 270.427 128.554 271.017 127.623L271.195 127.727Z" fill="white"/>
<path d="M65.966 149.321C63.7608 140.575 64.9732 131.929 68.6761 125.347C69.0426 124.707 69.2138 123.975 69.1684 123.239C69.1231 122.504 68.8633 121.798 68.4211 121.208C65.9566 117.931 63.9194 113.606 62.5773 108.283C58.7471 93.0915 62.0259 75.5307 70.964 73.2771C79.902 71.0236 91.1147 84.9303 94.945 100.122C96.1188 104.778 96.4622 109.013 96.1177 112.714C95.9726 114.272 96.7838 115.735 98.1985 116.489C105.353 120.303 111.251 127.79 113.648 137.299C114.466 140.517 114.83 143.833 114.731 147.151C114.67 149.057 116.008 150.708 117.957 151.097C129.768 153.459 139.609 161.949 142.64 173.86C146.939 190.753 135.527 208.469 117.594 212.755C99.8791 216.988 82.2057 206.977 77.9834 190.231C76.4268 184.057 76.915 177.823 79.0329 172.178C79.327 171.405 79.3615 170.558 79.1313 169.764C78.901 168.971 78.4185 168.273 77.7568 167.778C72.2882 163.611 67.9402 157.152 65.966 149.321Z" fill="#BDD0FB"/>
<path opacity="0.36" d="M74.6719 91.3692C74.7944 93.9067 75.0442 96.4292 75.3317 98.9483C75.6121 101.469 75.981 103.976 76.3699 106.482C77.179 111.486 78.151 116.466 79.3308 121.399C81.6617 131.272 84.7106 140.987 88.5384 150.412C90.4197 155.138 92.5849 159.753 94.8968 164.295C97.2255 168.839 99.7939 173.257 102.591 177.529C103.303 178.592 104.004 179.661 104.724 180.718L106.972 183.831C107.71 184.877 108.526 185.869 109.32 186.876L110.514 188.382L111.111 189.134L111.74 189.864L114.273 192.764C114.685 193.255 115.143 193.709 115.584 194.177L116.919 195.568L118.259 196.953C118.706 197.413 119.19 197.842 119.654 198.288L122.481 200.916L122.651 200.756L120.079 197.913C119.652 197.439 119.205 196.983 118.795 196.495L117.57 195.029L116.34 193.569C115.932 193.082 115.508 192.607 115.129 192.097L112.796 189.087L112.21 188.338L111.655 187.566L110.545 186.024C109.809 184.994 109.051 183.979 108.372 182.912L106.261 179.762C105.586 178.695 104.93 177.616 104.264 176.544C103.935 176.005 103.593 175.475 103.276 174.93L102.331 173.291L101.382 171.655C101.065 171.11 100.744 170.567 100.453 170.008L98.6651 166.678C98.3596 166.127 98.0865 165.559 97.8049 164.996L96.9574 163.308L96.1038 161.624L95.2972 159.917C94.7675 158.776 94.2122 157.645 93.7024 156.495L92.1888 153.037C91.6865 151.884 91.2194 150.715 90.732 149.555C88.8192 144.901 87.083 140.176 85.4866 135.403C83.8922 130.629 82.4587 125.802 81.1317 120.943C79.8275 116.079 78.6322 111.181 77.5917 106.246C77.319 105.015 77.0808 103.777 76.827 102.541L76.125 98.8219C76.0081 98.2016 75.8974 97.5804 75.7929 96.9581C75.6829 96.3364 75.5807 95.7134 75.479 95.0905C75.2681 93.8456 75.0798 92.5955 74.9065 91.3457L74.6719 91.3692Z" fill="white"/>
<path d="M182.608 78.7486C182.435 78.7485 182.269 78.6816 182.145 78.5619C182.021 78.4421 181.948 78.279 181.941 78.1065C181.928 77.7732 180.503 44.6378 166.248 32.9148C162.118 29.5182 157.25 28.2327 151.778 29.0944C145.366 30.1037 139.966 33.2742 135.727 38.5174C132.306 42.7477 129.623 48.3307 127.751 55.1117C124.544 66.7247 124.842 77.9487 124.845 78.0607C124.85 78.2374 124.784 78.4089 124.663 78.5375C124.542 78.6661 124.374 78.7414 124.198 78.7468C124.021 78.7522 123.849 78.6872 123.72 78.5662C123.591 78.4452 123.516 78.278 123.51 78.1013C123.507 77.9876 123.201 66.5888 126.455 54.7844C128.376 47.8192 131.142 42.0676 134.678 37.6895C139.133 32.1739 144.816 28.8381 151.57 27.7748C157.435 26.851 162.659 28.2345 167.097 31.884C173.294 36.9809 177.9 46.312 180.789 59.6189C182.928 69.4758 183.272 77.9706 183.275 78.0554C183.282 78.2323 183.218 78.4046 183.098 78.5344C182.977 78.6643 182.81 78.7411 182.634 78.7478C182.625 78.7484 182.616 78.7486 182.608 78.7486Z" fill="url(#paint1_linear)"/>
<path d="M69.8997 220.458L92.0412 67.7687L175.219 66.3701L202.028 228.945H77.1021C72.6585 228.944 69.2512 224.93 69.8997 220.458Z" fill="url(#paint2_linear)"/>
<path d="M191.373 67.7687L175.219 66.3701L202.028 228.945H218.066C221.317 228.945 223.747 225.905 223.084 222.667L191.373 67.7687Z" fill="url(#paint3_linear)"/>
<path d="M106.305 78.4001C106.132 78.4 105.965 78.3324 105.84 78.2116C105.716 78.0908 105.643 77.9262 105.638 77.7528C105.635 77.639 105.329 66.2402 108.583 54.4358C110.504 47.4706 113.27 41.7191 116.806 37.341C121.261 31.8253 126.944 28.4896 133.699 27.4262C139.563 26.5024 144.788 27.8855 149.225 31.5354C155.422 36.6324 160.029 45.9634 162.917 59.2703C165.057 69.1271 165.401 77.622 165.404 77.7068C165.407 77.7944 165.393 77.8818 165.363 77.964C165.332 78.0463 165.286 78.1217 165.226 78.186C165.167 78.2503 165.095 78.3023 165.015 78.3389C164.936 78.3755 164.85 78.3961 164.762 78.3994C164.674 78.4027 164.587 78.3888 164.505 78.3584C164.422 78.3279 164.347 78.2816 164.283 78.222C164.218 78.1624 164.166 78.0907 164.13 78.011C164.093 77.9314 164.073 77.8453 164.069 77.7577C164.057 77.4243 162.631 44.2886 148.376 32.5656C144.246 29.1695 139.378 27.8842 133.906 28.7454C127.489 29.7556 122.086 32.9298 117.845 38.1797C114.425 42.4144 111.742 48.0029 109.871 54.7904C106.669 66.4026 106.97 77.5998 106.973 77.7114C106.978 77.8884 106.913 78.0603 106.792 78.1893C106.67 78.3183 106.503 78.3938 106.326 78.3992C106.319 78.4001 106.312 78.4001 106.305 78.4001Z" fill="url(#paint4_linear)"/>
<path d="M103.075 176.718C103.075 176.718 130.926 213.076 138.398 220.136C147.072 228.331 161.839 217.025 158.524 208.984C155.21 200.942 125.475 172.513 125.475 172.513L103.075 176.718Z" fill="url(#paint5_linear)"/>
<path d="M115.134 140.535L201.757 78.0371L227.934 169.046L123.06 176.581L115.134 140.535Z" fill="url(#paint6_linear)"/>
<path d="M229.483 170.251C234.729 168.679 232.729 146.533 225.016 120.786C217.302 95.0391 206.797 75.4411 201.551 77.0127C196.305 78.5843 198.305 100.73 206.018 126.477C213.731 152.224 224.237 171.823 229.483 170.251Z" fill="url(#paint7_linear)"/>
<path d="M229.261 166.836C228.141 166.22 225.261 163.413 221.047 155.184C216.975 147.233 212.849 136.572 209.43 125.166C206.01 113.76 203.591 102.588 202.617 93.7068C201.61 84.5171 202.47 80.5885 203.067 79.458C204.187 80.0735 207.067 82.881 211.281 91.1096C215.353 99.0615 219.479 109.722 222.898 121.128C226.318 132.534 228.737 143.706 229.711 152.587C230.718 161.777 229.858 165.705 229.261 166.836Z" fill="url(#paint8_linear)"/>
<path d="M228.235 119.149C230.609 127.069 228.267 134.769 219.823 137.3C211.378 139.832 202.608 135.464 200.234 127.544C197.859 119.623 202.78 111.151 211.225 108.619C219.669 106.088 225.861 111.229 228.235 119.149Z" fill="url(#paint9_linear)"/>
<path d="M98.9574 143.259C103.347 141.368 109.811 139.223 117.346 138.724C118.661 151.555 122.803 164.097 129.416 176.389L109.529 182.35C107.994 182.811 106.345 182.71 104.879 182.063C103.413 181.417 102.225 180.269 101.53 178.825C98.6573 172.844 94.2825 162.656 93.034 153.795C92.7292 151.632 93.1439 149.429 94.2142 147.525C95.2846 145.621 96.9513 144.122 98.9574 143.259Z" fill="url(#paint10_linear)"/>
<path d="M97.7528 153.613C97.5356 153.611 97.3218 153.559 97.1281 153.461C96.9344 153.363 96.766 153.221 96.6363 153.047C96.5065 152.873 96.4188 152.671 96.38 152.457C96.3412 152.243 96.3525 152.024 96.4128 151.815C96.4255 151.771 96.4466 151.731 96.4749 151.695C96.5032 151.66 96.5383 151.631 96.5779 151.609C96.6176 151.587 96.6612 151.573 96.7062 151.568C96.7512 151.563 96.7968 151.567 96.8403 151.58C96.8838 151.593 96.9243 151.614 96.9596 151.642C96.995 151.67 97.0244 151.705 97.0462 151.745C97.068 151.785 97.0817 151.828 97.0867 151.873C97.0917 151.918 97.0877 151.964 97.075 152.008C97.0392 152.131 97.0373 152.262 97.0695 152.386C97.1017 152.51 97.1668 152.624 97.2581 152.714C97.3493 152.805 97.4632 152.869 97.5878 152.9C97.7125 152.931 97.8432 152.928 97.9663 152.891L113.461 148.246C113.55 148.219 113.634 148.175 113.707 148.116C113.78 148.057 113.84 147.984 113.884 147.901C113.929 147.818 113.957 147.728 113.966 147.634C113.976 147.541 113.967 147.447 113.94 147.357L113.609 146.254C113.555 146.073 113.43 145.921 113.264 145.831C113.097 145.741 112.901 145.721 112.72 145.775L97.1106 150.455C97.0672 150.468 97.0215 150.473 96.9763 150.468C96.931 150.464 96.8871 150.45 96.8471 150.429C96.807 150.408 96.7715 150.378 96.7428 150.343C96.714 150.308 96.6925 150.267 96.6794 150.224C96.6663 150.18 96.662 150.135 96.6667 150.09C96.6714 150.044 96.6849 150 96.7066 149.961C96.7283 149.921 96.7576 149.885 96.793 149.857C96.8283 149.828 96.869 149.807 96.9126 149.794L112.522 145.115C112.879 145.008 113.263 145.047 113.591 145.224C113.919 145.4 114.163 145.7 114.27 146.056L114.601 147.159C114.707 147.516 114.668 147.9 114.492 148.228C114.315 148.556 114.015 148.8 113.659 148.907L98.1644 153.552C98.0309 153.592 97.8923 153.613 97.7528 153.613Z" fill="#91B3FA"/>
<path d="M98.4276 160.89C98.2104 160.889 97.9966 160.837 97.8029 160.738C97.6092 160.64 97.4408 160.498 97.311 160.324C97.1813 160.15 97.0936 159.948 97.0548 159.734C97.0161 159.521 97.0273 159.301 97.0877 159.092C97.1145 159.006 97.1742 158.934 97.2538 158.891C97.3334 158.848 97.4266 158.838 97.5133 158.864C97.6001 158.889 97.6734 158.947 97.7177 159.026C97.7619 159.105 97.7735 159.198 97.7499 159.285C97.714 159.408 97.7121 159.539 97.7443 159.663C97.7765 159.788 97.8416 159.901 97.9328 159.992C98.024 160.082 98.1379 160.146 98.2626 160.178C98.3872 160.209 98.5179 160.206 98.641 160.169L114.135 155.524C114.317 155.469 114.469 155.345 114.559 155.178C114.649 155.011 114.669 154.816 114.614 154.634L114.284 153.532C114.257 153.442 114.213 153.358 114.153 153.285C114.094 153.213 114.021 153.152 113.939 153.108C113.856 153.063 113.765 153.036 113.672 153.026C113.579 153.017 113.484 153.026 113.395 153.053L97.7852 157.732C97.6976 157.758 97.6031 157.749 97.5227 157.705C97.4422 157.662 97.3822 157.588 97.3559 157.501C97.3297 157.413 97.3393 157.319 97.3827 157.238C97.426 157.158 97.4996 157.098 97.5872 157.071L113.196 152.392C113.373 152.339 113.558 152.322 113.742 152.34C113.925 152.359 114.103 152.413 114.266 152.501C114.428 152.588 114.571 152.707 114.688 152.85C114.804 152.993 114.892 153.157 114.945 153.334L115.275 154.436C115.382 154.793 115.342 155.177 115.166 155.505C114.989 155.833 114.69 156.077 114.333 156.184L98.839 160.829C98.7056 160.87 98.567 160.89 98.4276 160.89Z" fill="#91B3FA"/>
<path opacity="0.51" d="M128.326 133.817C128.253 133.817 128.181 133.793 128.122 133.75C128.062 133.706 128.019 133.644 127.997 133.574C127.975 133.504 127.976 133.428 128.001 133.358C128.025 133.289 128.071 133.229 128.132 133.187L194.365 87.9384C194.402 87.9122 194.445 87.8937 194.489 87.884C194.534 87.8742 194.58 87.8734 194.625 87.8815C194.67 87.8897 194.712 87.9067 194.751 87.9316C194.789 87.9564 194.822 87.9886 194.848 88.0262C194.873 88.0639 194.891 88.1063 194.901 88.151C194.91 88.1957 194.91 88.2417 194.901 88.2865C194.893 88.3313 194.875 88.3739 194.85 88.4119C194.825 88.4499 194.792 88.4825 194.754 88.5078L128.521 133.757C128.464 133.796 128.396 133.817 128.326 133.817Z" fill="white"/>
<path opacity="0.51" d="M119.637 140.833C119.566 140.834 119.496 140.811 119.438 140.77C119.38 140.729 119.336 140.671 119.312 140.604C119.288 140.536 119.286 140.463 119.305 140.395C119.324 140.326 119.365 140.265 119.42 140.22L122.727 137.55C122.762 137.522 122.802 137.5 122.846 137.487C122.89 137.474 122.935 137.47 122.98 137.474C123.026 137.479 123.069 137.493 123.109 137.514C123.149 137.536 123.185 137.565 123.213 137.601C123.242 137.636 123.263 137.677 123.276 137.72C123.289 137.764 123.293 137.81 123.288 137.855C123.283 137.9 123.269 137.944 123.247 137.984C123.225 138.023 123.195 138.059 123.16 138.087L119.853 140.757C119.792 140.806 119.716 140.833 119.637 140.833Z" fill="white"/>
<path d="M102.219 168.512C102.001 168.511 101.788 168.458 101.594 168.36C101.4 168.262 101.232 168.12 101.102 167.946C100.972 167.772 100.885 167.57 100.846 167.356C100.807 167.142 100.818 166.923 100.879 166.714C100.906 166.628 100.965 166.555 101.045 166.513C101.124 166.47 101.218 166.46 101.304 166.485C101.391 166.511 101.465 166.569 101.509 166.648C101.553 166.726 101.565 166.819 101.541 166.907C101.505 167.03 101.503 167.161 101.535 167.285C101.567 167.41 101.633 167.523 101.724 167.613C101.815 167.704 101.929 167.768 102.054 167.799C102.178 167.83 102.309 167.827 102.432 167.79L117.926 163.146C118.108 163.091 118.26 162.967 118.35 162.8C118.44 162.633 118.46 162.437 118.405 162.256L118.075 161.154C118.02 160.972 117.896 160.82 117.729 160.73C117.563 160.64 117.367 160.62 117.186 160.674L101.576 165.354C101.489 165.38 101.394 165.37 101.314 165.327C101.233 165.284 101.173 165.21 101.147 165.123C101.121 165.035 101.13 164.941 101.174 164.86C101.217 164.78 101.291 164.72 101.378 164.693L116.988 160.014C117.344 159.907 117.729 159.947 118.056 160.123C118.384 160.3 118.628 160.599 118.736 160.956L119.066 162.058C119.173 162.415 119.133 162.799 118.957 163.127C118.78 163.454 118.481 163.699 118.124 163.806L102.63 168.451C102.497 168.491 102.358 168.512 102.219 168.512Z" fill="#91B3FA"/>
<path d="M106.344 176.998C106.126 176.996 105.913 176.944 105.719 176.846C105.525 176.748 105.357 176.606 105.227 176.432C105.097 176.257 105.01 176.056 104.971 175.842C104.932 175.628 104.943 175.408 105.004 175.2C105.016 175.155 105.036 175.114 105.064 175.078C105.093 175.041 105.128 175.011 105.168 174.989C105.208 174.966 105.252 174.952 105.297 174.947C105.343 174.941 105.389 174.945 105.433 174.958C105.477 174.971 105.518 174.992 105.554 175.021C105.59 175.05 105.619 175.086 105.641 175.126C105.662 175.167 105.676 175.211 105.68 175.257C105.684 175.302 105.68 175.348 105.666 175.392C105.63 175.516 105.628 175.646 105.66 175.771C105.692 175.895 105.758 176.009 105.849 176.099C105.94 176.189 106.054 176.254 106.179 176.285C106.303 176.316 106.434 176.313 106.557 176.276L122.051 171.631C122.141 171.604 122.225 171.56 122.298 171.501C122.37 171.441 122.431 171.368 122.475 171.286C122.52 171.203 122.547 171.113 122.557 171.019C122.566 170.926 122.557 170.832 122.53 170.742L122.2 169.639C122.173 169.549 122.129 169.466 122.069 169.393C122.01 169.32 121.937 169.26 121.854 169.215C121.772 169.171 121.681 169.143 121.588 169.134C121.495 169.124 121.4 169.133 121.311 169.16L105.701 173.839C105.614 173.866 105.519 173.856 105.439 173.813C105.358 173.769 105.298 173.696 105.272 173.608C105.246 173.52 105.255 173.426 105.299 173.346C105.342 173.265 105.416 173.205 105.503 173.179L121.112 168.5C121.289 168.447 121.474 168.429 121.658 168.448C121.841 168.466 122.019 168.521 122.182 168.608C122.344 168.696 122.487 168.814 122.604 168.957C122.72 169.1 122.808 169.265 122.861 169.441L123.191 170.544C123.298 170.9 123.259 171.285 123.082 171.613C122.906 171.941 122.606 172.185 122.249 172.292L106.755 176.937C106.622 176.977 106.483 176.998 106.344 176.998Z" fill="#91B3FA"/>
<path d="M147.589 217.085C146.098 217.089 144.622 216.769 143.266 216.148C141.909 215.527 140.704 214.62 139.731 213.488L119.108 189.698C119.048 189.629 119.018 189.539 119.024 189.447C119.031 189.356 119.073 189.271 119.142 189.211C119.211 189.151 119.302 189.121 119.393 189.128C119.484 189.134 119.569 189.177 119.629 189.246L140.253 213.036C141.245 214.192 142.498 215.097 143.908 215.676C145.318 216.254 146.845 216.491 148.364 216.365C151.423 216.13 154.107 214.516 155.727 211.936C155.814 211.798 155.9 211.657 155.986 211.514C156.033 211.435 156.109 211.379 156.198 211.356C156.287 211.334 156.381 211.348 156.459 211.395C156.538 211.442 156.594 211.518 156.617 211.607C156.639 211.696 156.625 211.79 156.578 211.868C156.49 212.016 156.401 212.161 156.312 212.302C154.575 215.069 151.697 216.801 148.417 217.053C148.14 217.075 147.864 217.085 147.589 217.085Z" fill="#91B3FA"/>
<path d="M116.32 186.3C116.27 186.3 116.221 186.289 116.176 186.269C116.131 186.248 116.091 186.218 116.059 186.181L113.758 183.527C113.698 183.458 113.668 183.368 113.675 183.276C113.681 183.185 113.724 183.1 113.793 183.04C113.862 182.98 113.952 182.95 114.043 182.957C114.134 182.963 114.219 183.006 114.279 183.075L116.58 185.729C116.623 185.779 116.651 185.84 116.661 185.905C116.67 185.971 116.661 186.038 116.633 186.098C116.606 186.158 116.562 186.209 116.506 186.245C116.45 186.28 116.386 186.299 116.32 186.299V186.3Z" fill="#91B3FA"/>
<path d="M225.729 119.362C225.659 119.362 225.59 119.341 225.533 119.301C225.475 119.261 225.431 119.205 225.406 119.139C223.96 115.322 221.733 112.818 218.789 111.698C213.702 109.763 208.132 112.621 208.077 112.65C208.037 112.672 207.992 112.685 207.947 112.69C207.901 112.694 207.855 112.69 207.812 112.677C207.768 112.663 207.727 112.641 207.692 112.612C207.657 112.583 207.628 112.547 207.607 112.507C207.585 112.466 207.573 112.422 207.569 112.376C207.565 112.331 207.57 112.285 207.584 112.241C207.598 112.198 207.621 112.157 207.65 112.123C207.68 112.088 207.716 112.059 207.757 112.039C207.996 111.914 213.66 109.008 219.034 111.053C222.171 112.246 224.532 114.885 226.051 118.895C226.071 118.947 226.078 119.004 226.071 119.059C226.064 119.114 226.044 119.167 226.012 119.213C225.981 119.259 225.938 119.297 225.889 119.323C225.839 119.349 225.784 119.362 225.729 119.362H225.729Z" fill="#91B3FA"/>
<path d="M232.328 101.761L256.373 74.0347C256.885 73.4444 257.6 73.0677 258.376 72.9791C259.153 72.8905 259.934 73.0965 260.566 73.5562C260.939 73.828 261.247 74.1792 261.469 74.5847C261.69 74.9901 261.818 75.4395 261.844 75.9006C261.871 76.3616 261.794 76.8228 261.621 77.2507C261.447 77.6787 261.181 78.0628 260.841 78.3753L233.819 103.21C233.664 103.353 233.469 103.445 233.26 103.474C233.051 103.504 232.838 103.469 232.649 103.375C232.507 103.304 232.383 103.201 232.287 103.075C232.191 102.949 232.124 102.802 232.093 102.647C232.062 102.491 232.067 102.33 232.108 102.177C232.149 102.023 232.224 101.881 232.328 101.761Z" fill="url(#paint11_linear)"/>
<path d="M240.579 127.229L277.278 126.948C278.059 126.942 278.81 126.643 279.382 126.11C279.953 125.577 280.304 124.849 280.364 124.07C280.4 123.61 280.333 123.147 280.169 122.716C280.004 122.284 279.745 121.895 279.412 121.576C279.078 121.256 278.678 121.015 278.24 120.869C277.802 120.723 277.337 120.676 276.878 120.732L240.445 125.154C240.236 125.179 240.039 125.268 239.881 125.408C239.723 125.547 239.611 125.732 239.56 125.937C239.522 126.091 239.519 126.252 239.553 126.407C239.586 126.562 239.655 126.708 239.753 126.832C239.851 126.957 239.977 127.058 240.12 127.126C240.263 127.195 240.42 127.23 240.579 127.229Z" fill="url(#paint12_linear)"/>
<path d="M241.775 112.295L277.541 91.8622C279.12 90.9604 281.061 91.5034 282.01 93.112C283.164 95.0683 282.355 97.6956 280.335 98.5531L242.707 114.529C242.492 114.62 242.252 114.639 242.025 114.583C241.798 114.526 241.595 114.397 241.448 114.215C240.951 113.621 241.112 112.674 241.775 112.295Z" fill="url(#paint13_linear)"/>
<path d="M64.7544 240.157C64.7544 240.157 64.1072 241.177 63.9442 244.033C63.9404 244.097 63.9496 244.16 63.9711 244.219C63.9926 244.279 64.026 244.333 64.0692 244.379C64.1125 244.425 64.1647 244.462 64.2226 244.488C64.2806 244.513 64.3431 244.526 64.4063 244.526H69.4682C69.5155 244.526 69.5622 244.515 69.6043 244.494C69.6465 244.472 69.6829 244.441 69.7107 244.403C69.7384 244.364 69.7566 244.32 69.7638 244.273C69.771 244.226 69.7669 244.179 69.752 244.134C69.4553 243.256 68.5586 241.116 66.5575 239.893L64.7544 240.157Z" fill="url(#paint14_linear)"/>
<path d="M64.5352 238.22L64.8215 240.621C64.8331 240.721 64.8783 240.815 64.9498 240.887C65.0213 240.959 65.1149 241.005 65.2157 241.017C65.5712 241.062 65.9312 241.059 66.2859 241.007C66.4582 240.977 66.6141 240.886 66.726 240.751C66.8379 240.617 66.8986 240.447 66.8972 240.272V237.954L64.5352 238.22Z" fill="url(#paint15_linear)"/>
<path d="M77.2762 239.893C76.6489 240.978 76.3217 242.211 76.3282 243.465C76.3334 243.7 76.4306 243.923 76.5988 244.087C76.7671 244.251 76.9929 244.341 77.2276 244.34H85.089C85.1691 244.34 85.247 244.315 85.3116 244.267C85.3762 244.22 85.424 244.153 85.4481 244.077C85.4723 244.001 85.4714 243.919 85.4457 243.843C85.42 243.767 85.3708 243.701 85.3053 243.656C83.8178 242.611 80.894 240.66 78.7793 239.893L77.2762 239.893Z" fill="url(#paint16_linear)"/>
<path d="M76.4688 237.299L77.0794 240.263C77.0949 240.343 77.126 240.418 77.1709 240.485C77.2157 240.552 77.2734 240.61 77.3407 240.655C77.4079 240.699 77.4833 240.73 77.5626 240.746C77.6419 240.761 77.7234 240.76 77.8025 240.744C78.0476 240.688 78.2813 240.59 78.4936 240.455C78.611 240.38 78.7035 240.272 78.7593 240.145C78.8151 240.017 78.8317 239.876 78.807 239.739L78.1753 236.147L76.4688 237.299Z" fill="url(#paint17_linear)"/>
<path d="M65.6557 196.079C65.6557 196.079 63.5325 197.951 63.1329 200.203C62.7333 202.455 64.265 239.059 64.265 239.059C64.265 239.059 66.3881 239.412 67.4825 238.749C67.4825 238.749 68.7806 214.994 69.7673 209.504C69.7673 209.504 74.9418 234.112 76.3755 238.558C76.3755 238.558 78.4209 238.807 79.0805 238.418C79.0805 238.418 77.725 206.52 76.022 200.849L65.6557 196.079Z" fill="url(#paint18_linear)"/>
<path d="M69.7055 208.763C69.6473 208.763 69.5908 208.744 69.5448 208.708C69.4988 208.673 69.4659 208.623 69.4512 208.567L68.5752 205.206L66.7132 204.012C66.6838 203.994 66.6582 203.969 66.6382 203.941C66.6181 203.913 66.6038 203.881 66.5962 203.847C66.5886 203.813 66.5878 203.778 66.5939 203.743C66.5999 203.709 66.6127 203.677 66.6315 203.647C66.6502 203.618 66.6746 203.593 66.7032 203.573C66.7318 203.553 66.7641 203.539 66.7981 203.532C66.8321 203.525 66.8672 203.524 66.9014 203.531C66.9355 203.537 66.9681 203.55 66.9971 203.57L68.9454 204.82C69.0011 204.855 69.0413 204.91 69.0579 204.974L69.9602 208.433C69.9689 208.467 69.9709 208.502 69.9662 208.536C69.9614 208.57 69.95 208.603 69.9325 208.633C69.915 208.663 69.8919 208.689 69.8643 208.71C69.8368 208.73 69.8054 208.746 69.7719 208.754C69.7503 208.76 69.7279 208.763 69.7055 208.763Z" fill="url(#paint19_linear)"/>
<path d="M84.1419 173.342C75.4416 175.52 73.8262 178.023 73.8262 178.023L80.0774 183.059C80.0774 183.059 88.3353 180.064 92.7296 173.445C91.2061 172.624 89.9801 171.56 89.1318 170.696C87.7063 171.968 85.9943 172.876 84.1419 173.342Z" fill="url(#paint20_linear)"/>
<path d="M93.1642 156.413C93.142 156.356 93.1013 156.308 93.0485 156.277C92.9958 156.245 92.9341 156.233 92.8733 156.241C92.8125 156.249 92.7561 156.277 92.7132 156.32C92.6702 156.364 92.6432 156.421 92.6365 156.482L92.341 159.153C92.284 159.67 92.3868 160.191 92.6355 160.647L93.4708 161.859C93.637 162.162 93.7367 162.498 93.7635 162.843C93.7902 163.189 93.7433 163.536 93.6258 163.862C93.0559 165.439 91.7142 168.424 89.1318 170.697C89.9801 171.562 91.2061 172.625 92.7297 173.446C94.3424 171.017 95.435 168.101 95.408 164.665C95.6216 164.51 95.7782 164.29 95.8534 164.037C95.9286 163.784 95.9182 163.514 95.8238 163.267L93.1642 156.413Z" fill="url(#paint21_linear)"/>
<path d="M89.5489 178.86C86.4024 175.469 80.409 173.937 76.939 173.308C76.2035 173.173 75.4438 173.301 74.7933 173.67C74.1428 174.04 73.643 174.626 73.3817 175.327C71.8202 179.524 67.5731 190.445 66.7499 192.322C66.0747 193.862 65.3695 195.366 64.9214 196.306C64.7923 196.576 64.7753 196.885 64.874 197.167C64.9727 197.449 65.1792 197.68 65.4482 197.81C68.3676 199.217 73.6208 200.81 75.7505 201.431C75.8595 201.462 75.9744 201.468 76.0861 201.448C76.1978 201.427 76.3032 201.381 76.3939 201.313C76.4847 201.245 76.5583 201.156 76.6088 201.055C76.6594 200.953 76.6856 200.841 76.6854 200.727C76.6855 200.314 76.798 199.908 77.011 199.553L85.0767 186.112C90.104 191.686 94.5065 192.196 97.8886 190.976C97.3292 189.26 96.954 187.489 96.7694 185.693C91.7728 184.837 89.5489 178.86 89.5489 178.86Z" fill="url(#paint22_linear)"/>
<path d="M105.029 184.759L104.127 183.557C101.208 185.562 98.768 186.037 96.7705 185.694C96.9552 187.49 97.3304 189.261 97.8898 190.977C102.345 189.37 105.029 184.759 105.029 184.759Z" fill="url(#paint23_linear)"/>
<path d="M104.393 184.778L109.473 184.976L114.15 182.363C113.479 181.943 109.682 182.803 109.682 182.803C109.682 182.803 105.713 182.203 104.639 182.201C103.747 182.2 103.875 183.483 103.943 183.918C103.957 184.006 103.969 184.06 103.969 184.06L104.393 184.778Z" fill="url(#paint24_linear)"/>
<path d="M81.7131 167.081L79.0332 173.621C79.0332 173.621 82.1129 175.753 84.5906 175.55L85.9282 169.669L81.7131 167.081Z" fill="url(#paint25_linear)"/>
<path d="M86.2402 162.625C86.3016 162.712 88.1792 169.496 88.1792 169.496L84.2833 170.485L81.5488 164.32C81.5488 164.32 85.2125 161.169 86.2402 162.625Z" fill="url(#paint26_linear)"/>
<path d="M83.0168 165.257L84.2024 168.615C84.2174 168.657 84.2382 168.698 84.2642 168.735C84.4251 168.963 85.0363 169.709 85.7612 169.037C86.4189 168.428 87.0284 167.881 87.5912 167.782C87.713 167.76 87.8385 167.785 87.9431 167.851C88.0478 167.917 88.124 168.02 88.157 168.139C88.3274 168.755 88.6858 170.151 88.8122 171.412C88.8239 171.535 88.789 171.658 88.7144 171.757C88.6397 171.856 88.5306 171.924 88.4087 171.946C87.6477 172.091 86.0345 172.351 84.6876 172.256C84.5982 172.25 84.512 172.22 84.4382 172.169C84.3644 172.118 84.3057 172.048 84.2684 171.967C83.8971 171.156 82.7599 168.695 82.3369 168.058C81.9396 167.461 80.9667 167.478 80.5585 167.514C80.4926 167.52 80.4261 167.512 80.3631 167.491C80.3002 167.471 80.2421 167.438 80.1924 167.394C79.8352 167.081 79.1557 166.282 80.1117 165.325C80.159 165.278 80.1964 165.222 80.2216 165.16C80.2467 165.098 80.2591 165.031 80.2581 164.964C80.257 164.897 80.2424 164.831 80.2153 164.77C80.1882 164.709 80.149 164.654 80.1001 164.608C79.6896 164.222 79.2506 163.538 79.9346 162.688C80.6297 161.825 81.5472 161.963 82.1098 162.168C82.2197 162.207 82.3399 162.206 82.4494 162.166C82.5589 162.126 82.6506 162.048 82.7087 161.947C82.749 161.878 82.8095 161.822 82.882 161.788C82.9545 161.754 83.0357 161.744 83.1146 161.757C83.1827 161.762 83.251 161.752 83.3151 161.728C83.3793 161.705 83.4378 161.669 83.487 161.621C83.5363 161.574 83.575 161.517 83.6009 161.454C83.6268 161.391 83.6391 161.323 83.6372 161.255C83.6274 160.701 83.8253 160.003 84.7844 159.705C86.4862 159.175 87.5475 160.819 87.6526 162.046C87.7577 163.273 85.88 163.742 84.7757 163.659C83.9362 163.597 83.3129 164.429 83.0623 164.831C83.0233 164.894 82.9989 164.965 82.991 165.039C82.9831 165.112 82.9919 165.187 83.0168 165.257Z" fill="url(#paint27_linear)"/>
<path d="M82.7816 169.277C82.7816 169.277 82.5067 167.147 81.6208 167.043C80.735 166.939 79.8725 167.667 80.7533 168.862C81.8488 170.349 82.7816 169.277 82.7816 169.277Z" fill="url(#paint28_linear)"/>
<path d="M274.913 55.1291C280.276 49.7664 280.276 41.0715 274.913 35.7087C269.55 30.3459 260.855 30.3459 255.492 35.7087C250.13 41.0715 250.13 49.7664 255.492 55.1291C260.855 60.4919 269.55 60.4919 274.913 55.1291Z" fill="#91B3FA"/>
<path d="M265.467 53.9894C265.314 53.9894 265.162 53.986 265.008 53.9793C259.771 53.7484 255.683 49.5781 255.898 44.6829C256.002 42.3024 257.093 40.111 258.972 38.512C260.837 36.9242 263.258 36.1126 265.785 36.2228C271.023 36.4537 275.111 40.624 274.896 45.5192C274.792 47.8994 273.7 50.0908 271.822 51.6897C270.07 53.1815 267.828 53.9894 265.467 53.9894ZM265.328 37.4658C263.263 37.4658 261.308 38.1684 259.784 39.4663C258.174 40.8374 257.238 42.7091 257.15 44.7375C256.966 48.9429 260.516 52.5274 265.064 52.7277C267.274 52.8232 269.387 52.1181 271.01 50.7361C272.62 49.3654 273.556 47.4933 273.645 45.4646C273.828 41.2595 270.278 37.675 265.73 37.4747C265.596 37.4687 265.462 37.4657 265.328 37.4656V37.4658Z" fill="white"/>
<path d="M267.666 45.1407C267.674 46.5993 267.555 48.0559 267.309 49.4937C267.244 49.8525 267.169 50.2096 267.08 50.5632C266.992 50.9175 266.885 51.2669 266.759 51.6098C266.637 51.9553 266.477 52.2861 266.282 52.5963C266.183 52.7523 266.062 52.8936 265.923 53.0159C265.853 53.0771 265.774 53.1281 265.689 53.1677C265.603 53.2076 265.51 53.2297 265.415 53.2325C265.32 53.2347 265.226 53.2173 265.138 53.1814C265.052 53.1456 264.971 53.0973 264.898 53.0379C264.756 52.9192 264.633 52.78 264.532 52.625C264.333 52.3169 264.171 51.9871 264.047 51.642C263.921 51.2996 263.813 50.9506 263.724 50.5965C263.634 50.243 263.558 49.8861 263.492 49.5274C263.362 48.8099 263.273 48.0856 263.213 47.3593C263.153 46.633 263.124 45.904 263.12 45.175C263.119 44.8107 263.128 44.4463 263.141 44.0822C263.154 43.7181 263.175 43.3542 263.202 42.9908C263.255 42.2641 263.336 41.539 263.455 40.8199C263.515 40.4604 263.584 40.1025 263.668 39.7477C263.751 39.3924 263.852 39.0417 263.971 38.697C264.032 38.5251 264.099 38.3549 264.175 38.1888C264.25 38.022 264.337 37.8608 264.435 37.7067C264.533 37.5506 264.654 37.4104 264.794 37.291C264.865 37.2317 264.945 37.1837 265.031 37.1485C265.117 37.1135 265.21 37.0969 265.303 37.1C265.396 37.1035 265.487 37.125 265.572 37.1633C265.656 37.2016 265.735 37.2508 265.806 37.3098C265.946 37.4285 266.069 37.5659 266.172 37.7183C266.375 38.0225 266.543 38.3484 266.674 38.6899C266.807 39.0293 266.922 39.3758 267.018 39.7279C267.114 40.0794 267.197 40.4348 267.267 40.7923C267.538 42.2257 267.672 43.6818 267.666 45.1407ZM267.559 45.1407C267.56 44.4148 267.533 43.6886 267.473 42.9651C267.416 42.2414 267.321 41.5211 267.19 40.8071C267.123 40.4506 267.045 40.096 266.953 39.7452C266.862 39.3944 266.751 39.0488 266.622 38.71C266.497 38.3705 266.334 38.0461 266.136 37.7428C266.037 37.5924 265.918 37.4563 265.782 37.3385C265.714 37.2808 265.639 37.2324 265.558 37.1945C265.477 37.1569 265.39 37.1357 265.302 37.1321C265.213 37.1299 265.125 37.1466 265.043 37.1809C264.961 37.2157 264.885 37.2627 264.817 37.3204C264.682 37.4386 264.565 37.577 264.472 37.7306C264.376 37.8838 264.292 38.0439 264.22 38.2095C264.146 38.3747 264.082 38.5445 264.024 38.7159C263.909 39.0598 263.812 39.4095 263.734 39.7636C263.654 40.1175 263.589 40.4746 263.533 40.8332C263.422 41.5506 263.35 42.2739 263.304 42.9985C263.259 43.7231 263.242 44.4495 263.244 45.1756C263.242 45.9015 263.267 46.6268 263.32 47.3515C263.374 48.0753 263.457 48.7973 263.581 49.5122C263.643 49.8696 263.716 50.2252 263.803 50.577C263.888 50.9291 263.993 51.2762 264.116 51.617C264.235 51.9579 264.393 52.2842 264.586 52.5893C264.682 52.7399 264.8 52.8754 264.936 52.9913C265.004 53.0475 265.079 53.0935 265.16 53.1277C265.24 53.1616 265.327 53.1781 265.414 53.1761C265.501 53.1728 265.586 53.1519 265.665 53.1145C265.744 53.0766 265.818 53.0279 265.884 52.9698C266.017 52.8503 266.133 52.7127 266.227 52.561C266.417 52.2536 266.572 51.9262 266.69 51.5848C266.811 51.2435 266.915 50.896 266.999 50.5438C267.085 50.1917 267.157 49.8359 267.219 49.4784C267.342 48.7635 267.424 48.0414 267.479 47.3176C267.533 46.5938 267.559 45.8668 267.559 45.1407Z" fill="white"/>
<path d="M265.394 53.4439C265.28 53.4431 265.166 53.4204 265.059 53.3771C264.954 53.3338 264.855 53.2752 264.767 53.203C264.608 53.0713 264.47 52.9164 264.357 52.7434C264.149 52.4216 263.979 52.0769 263.85 51.716C263.72 51.3662 263.61 51.0097 263.519 50.6479C263.432 50.307 263.356 49.9524 263.285 49.5641C263.16 48.8762 263.068 48.1604 263.003 47.375C262.944 46.6616 262.913 45.9212 262.909 45.1744C262.908 44.7842 262.919 44.3988 262.93 44.0731C262.944 43.7028 262.965 43.333 262.991 42.9736C263.05 42.1842 263.133 41.4679 263.247 40.7835C263.312 40.3935 263.382 40.0382 263.463 39.6969C263.547 39.3342 263.65 38.9763 263.772 38.6247C263.841 38.43 263.91 38.2577 263.983 38.0987C264.062 37.9223 264.154 37.752 264.258 37.5891C264.367 37.4143 264.503 37.2576 264.66 37.1247C264.748 37.0518 264.847 36.9927 264.953 36.9495C265.067 36.9038 265.188 36.8823 265.311 36.8862C265.43 36.8905 265.548 36.9181 265.657 36.9673C265.758 37.0131 265.853 37.0721 265.939 37.1429C266.094 37.2738 266.231 37.4259 266.345 37.5947C266.557 37.912 266.733 38.2522 266.87 38.6088C267.006 38.9557 267.124 39.3099 267.221 39.6697C267.316 40.0116 267.398 40.3647 267.475 40.7496C267.75 42.1963 267.885 43.6661 267.878 45.1387V45.1396C267.887 46.6107 267.766 48.0798 267.517 49.5297C267.447 49.9177 267.371 50.2724 267.285 50.6143C267.195 50.976 267.086 51.3326 266.958 51.6827C266.83 52.0431 266.663 52.3883 266.459 52.7116C266.349 52.885 266.215 53.0416 266.06 53.1769C265.975 53.2507 265.879 53.3123 265.776 53.3601C265.664 53.412 265.543 53.4404 265.419 53.4435C265.411 53.4436 265.403 53.4439 265.394 53.4439ZM265.284 37.3426C265.229 37.3429 265.175 37.3541 265.124 37.3755C265.062 37.4023 265.004 37.4384 264.952 37.4825C264.833 37.5864 264.731 37.7082 264.65 37.8434C264.56 37.9876 264.481 38.1383 264.413 38.2942C264.348 38.441 264.286 38.6009 264.224 38.7829C264.111 39.1194 264.016 39.4617 263.94 39.8083C263.865 40.1399 263.801 40.4851 263.742 40.8639C263.638 41.5352 263.564 42.2372 263.515 43.0096C263.473 43.6699 263.454 44.3775 263.455 45.1729C263.453 45.907 263.478 46.6336 263.531 47.3336C263.588 48.1017 263.673 48.8018 263.789 49.4737C263.855 49.8493 263.926 50.1929 264.008 50.5238C264.092 50.8683 264.194 51.208 264.314 51.5414C264.427 51.867 264.578 52.1786 264.762 52.47C264.846 52.6029 264.95 52.7223 265.069 52.8244C265.121 52.8673 265.178 52.9026 265.239 52.9289C265.292 52.9505 265.349 52.9618 265.406 52.962C265.465 52.9596 265.523 52.9451 265.576 52.9196C265.638 52.8897 265.695 52.8516 265.747 52.8063C265.865 52.7001 265.967 52.5777 266.05 52.4426C266.232 52.149 266.38 51.8362 266.492 51.5098C266.61 51.1758 266.711 50.8356 266.794 50.4908C266.875 50.1617 266.945 49.818 267.011 49.44C267.125 48.7743 267.21 48.0741 267.268 47.2995C267.321 46.6013 267.348 45.8746 267.347 45.1394V45.1389C267.349 44.4066 267.32 43.6808 267.262 42.9814C267.206 42.2649 267.112 41.5518 266.982 40.845C266.912 40.4729 266.836 40.1305 266.748 39.7982C266.659 39.4549 266.551 39.1168 266.425 38.7854C266.305 38.4608 266.15 38.1507 265.961 37.8607C265.874 37.7267 265.768 37.6055 265.647 37.5006C265.593 37.455 265.534 37.4166 265.47 37.3864C265.416 37.3604 265.357 37.3456 265.296 37.3428C265.292 37.3426 265.288 37.3426 265.284 37.3426Z" fill="white"/>
<path d="M271.326 45.1368C271.324 46.0765 271.198 47.0118 270.951 47.9184C270.7 48.8241 270.309 49.6848 269.792 50.4691C269.532 50.8594 269.235 51.2239 268.906 51.5577C268.577 51.8914 268.212 52.1869 267.816 52.4385C267.42 52.689 266.993 52.8853 266.545 53.0221C265.643 53.2976 264.68 53.298 263.779 53.0234C263.331 52.8868 262.903 52.6908 262.506 52.4406C262.11 52.1892 261.744 51.8939 261.415 51.5603C261.085 51.2266 260.788 50.8622 260.528 50.4719C260.009 49.6874 259.617 48.8264 259.365 47.9203C259.24 47.4677 259.146 47.007 259.084 46.5414C258.957 45.6093 258.958 44.6644 259.085 43.7324C259.147 43.2667 259.241 42.806 259.367 42.3535C259.619 41.4478 260.012 40.5874 260.531 39.8036C260.791 39.4137 261.088 39.0497 261.418 38.7165C261.748 38.3834 262.113 38.0886 262.509 37.8379C262.905 37.5887 263.333 37.3935 263.781 37.2572C264.681 36.9816 265.642 36.982 266.542 37.2584C266.989 37.3949 267.417 37.5905 267.812 37.84C268.208 38.091 268.573 38.386 268.902 38.7193C269.231 39.0527 269.528 39.4168 269.788 39.8067C270.306 40.5903 270.697 41.4504 270.948 42.3556C271.196 43.2619 271.323 44.1971 271.326 45.1368ZM271.203 45.1368C271.205 44.2078 271.084 43.2826 270.843 42.3853C270.603 41.4877 270.224 40.633 269.72 39.8521C269.467 39.4635 269.177 39.1001 268.855 38.7668C268.533 38.433 268.174 38.1374 267.784 37.8857C267.394 37.636 266.972 37.44 266.529 37.303C265.639 37.0257 264.685 37.0261 263.795 37.3042C263.353 37.4415 262.931 37.6378 262.541 37.8878C262.152 38.1398 261.794 38.4357 261.472 38.7696C261.15 39.1031 260.861 39.4666 260.609 39.8551C260.106 40.6358 259.728 41.4902 259.489 42.3874C259.369 42.8351 259.279 43.2904 259.22 43.7503C259.099 44.6707 259.1 45.6029 259.221 46.5232C259.28 46.9829 259.37 47.4382 259.491 47.8856C259.731 48.7824 260.109 49.6362 260.612 50.4163C260.865 50.8044 261.154 51.1675 261.476 51.5006C261.797 51.8341 262.155 52.1295 262.544 52.3809C262.934 52.6298 263.356 52.8253 263.797 52.9622C264.686 53.2415 265.638 53.242 266.527 52.9635C266.969 52.8268 267.391 52.6316 267.781 52.3829C268.17 52.1318 268.529 51.8367 268.851 51.5034C269.173 51.1705 269.463 50.8075 269.716 50.4193C270.221 49.6391 270.6 48.785 270.84 47.8878C271.082 46.9908 271.204 46.0658 271.203 45.1368Z" fill="white"/>
<path d="M265.163 53.4435C264.673 53.4431 264.187 53.3707 263.719 53.2288C263.252 53.0869 262.807 52.8831 262.395 52.6226C261.985 52.3628 261.607 52.0575 261.266 51.7124C260.927 51.3691 260.621 50.9942 260.353 50.5928C259.822 49.7899 259.42 48.9084 259.163 47.9807C259.034 47.5182 258.938 47.0474 258.875 46.5716C258.746 45.6208 258.746 44.657 258.876 43.7063C258.939 43.2309 259.036 42.7605 259.164 42.2984C259.422 41.3709 259.824 40.4897 260.356 39.6873C260.624 39.2861 260.93 38.9116 261.269 38.5687C261.61 38.2242 261.988 37.9194 262.398 37.6601C262.81 37.4009 263.255 37.1977 263.721 37.0561C264.66 36.7686 265.664 36.7691 266.604 37.0575C267.069 37.1994 267.514 37.4027 267.925 37.6623C268.334 37.9219 268.712 38.2269 269.053 38.5716C269.391 38.9146 269.697 39.2892 269.964 39.6903C270.495 40.4924 270.896 41.3732 271.153 42.3002C271.406 43.225 271.535 44.1792 271.538 45.138V45.1405C271.536 46.099 271.407 47.053 271.155 47.9776C270.899 48.9053 270.498 49.7869 269.968 50.5898C269.7 50.9914 269.395 51.3665 269.056 51.7098C268.716 52.0549 268.338 52.3604 267.929 52.6207C267.517 52.8813 267.072 53.0855 266.606 53.2279C266.138 53.3699 265.652 53.4425 265.163 53.4435ZM265.162 37.3098C264.72 37.3121 264.28 37.3793 263.858 37.5092C263.433 37.6411 263.029 37.8295 262.655 38.0692C262.28 38.3124 261.934 38.5979 261.624 38.9199C261.311 39.2437 261.031 39.5966 260.785 39.9738C260.295 40.7358 259.926 41.5698 259.693 42.4456C259.575 42.8839 259.487 43.3296 259.43 43.7798C259.312 44.682 259.312 45.5957 259.431 46.4978C259.489 46.9479 259.577 47.3936 259.695 47.8317C259.929 48.7071 260.298 49.5405 260.789 50.3018C261.034 50.6786 261.315 51.0311 261.627 51.3544C261.937 51.6759 262.283 51.9608 262.658 52.2035C263.032 52.4422 263.436 52.6296 263.86 52.761C264.708 53.028 265.617 53.0284 266.465 52.7622C266.89 52.631 267.294 52.4437 267.669 52.2052C268.044 51.9628 268.39 51.678 268.701 51.3565C269.014 51.0333 269.295 50.681 269.541 50.3043C270.033 49.5427 270.403 48.7089 270.638 47.833C271.11 46.0674 271.11 44.2089 270.639 42.443C270.405 41.5668 270.036 40.7326 269.544 39.9704C269.298 39.5933 269.017 39.2405 268.704 38.9169C268.393 38.5949 268.047 38.3097 267.671 38.0667C267.297 37.8272 266.892 37.6394 266.468 37.5081C266.045 37.3783 265.605 37.3115 265.162 37.3098Z" fill="white"/>
<path d="M257.97 41.9347L259.821 41.9196L261.672 41.9111L265.374 41.9043L269.077 41.9121L270.928 41.9214L272.779 41.9376C272.78 41.9376 272.781 41.9378 272.781 41.9381C272.782 41.9383 272.782 41.9387 272.783 41.9392C272.783 41.9397 272.784 41.9403 272.784 41.941C272.784 41.9417 272.785 41.9424 272.785 41.9431C272.785 41.9431 272.782 41.9485 272.779 41.9485L270.928 41.9648L269.077 41.974L265.374 41.9818L261.672 41.9749L259.821 41.9665L257.97 41.9514C257.967 41.9511 257.964 41.9498 257.962 41.9477C257.962 41.9383 257.965 41.9348 257.97 41.9347Z" fill="white"/>
<path d="M265.375 42.1959L259.82 42.1803L257.881 42.1643L257.751 42.0347V41.9397L257.756 41.7324L257.969 41.7246L261.672 41.7012L265.375 41.6943L270.929 41.7113L272.991 41.7294L272.996 42.1575L272.779 42.1629L269.078 42.1884L265.375 42.1959Z" fill="white"/>
<path d="M260.117 38.8214C260.556 38.8144 260.994 38.8114 261.432 38.8064L262.746 38.7979C263.184 38.7942 263.622 38.7946 264.06 38.7935L265.375 38.791L268.003 38.7988L269.317 38.8082C269.756 38.8137 270.194 38.8169 270.632 38.8244L270.637 38.8269C270.637 38.8299 270.636 38.8328 270.635 38.8352C270.194 38.843 269.756 38.8459 269.317 38.8515L268.003 38.8608L265.375 38.8686L264.06 38.8661C263.622 38.8651 263.184 38.8654 262.746 38.8618L261.432 38.8533C260.994 38.8482 260.556 38.8455 260.117 38.8382C260.115 38.8382 260.113 38.8374 260.112 38.8358C260.11 38.8343 260.109 38.8323 260.109 38.8301C260.109 38.828 260.11 38.8259 260.112 38.8244C260.113 38.8229 260.115 38.822 260.117 38.822V38.8214Z" fill="white"/>
<path d="M265.376 39.0827L263.72 39.0794C263.395 39.079 263.07 39.0784 262.745 39.0757L260.993 39.0627C260.7 39.0597 260.408 39.0571 260.115 39.0523L259.907 39.049L259.899 38.6194L260.116 38.6116C260.399 38.607 260.682 38.6043 260.965 38.6014L262.746 38.588C263.054 38.5854 263.363 38.5848 263.672 38.5844L265.376 38.5811L269.799 38.6033C270.078 38.6064 270.357 38.6093 270.637 38.6141L270.852 38.6177L270.842 39.0442L270.633 39.0497C270.344 39.0546 270.051 39.0574 269.759 39.0609L268.006 39.0752L265.376 39.0827Z" fill="white"/>
<path d="M257.326 45.0499L259.338 45.035L261.35 45.0264L265.373 45.0195L269.398 45.0273L271.41 45.0367L273.422 45.0529C273.422 45.0529 273.423 45.053 273.424 45.0533C273.424 45.0536 273.425 45.054 273.425 45.0545C273.426 45.055 273.426 45.0556 273.427 45.0562C273.427 45.0569 273.427 45.0576 273.427 45.0583C273.427 45.0583 273.425 45.0637 273.422 45.0638L271.41 45.08L269.398 45.0893L265.373 45.097L261.35 45.0902L259.338 45.0816L257.326 45.0659C257.323 45.0659 257.321 45.065 257.32 45.0635C257.318 45.062 257.317 45.0599 257.317 45.0577C257.317 45.0556 257.318 45.0535 257.32 45.052C257.321 45.0505 257.323 45.0496 257.326 45.0496V45.0499Z" fill="white"/>
<path d="M265.375 45.3091L259.338 45.2935L257.115 45.2769L257.107 44.8456L257.326 44.8378L261.35 44.8145L265.375 44.8076L271.412 44.8244L273.513 44.8412L273.641 44.9716L273.633 45.2708L273.423 45.2761L269.4 45.3017L265.375 45.3091Z" fill="white"/>
<path d="M257.969 48.1612L259.82 48.1462L261.671 48.1377L265.374 48.1309L269.076 48.1386L270.927 48.1479L272.778 48.1641C272.78 48.1643 272.782 48.1652 272.784 48.1666C272.784 48.1726 272.781 48.175 272.778 48.175L270.927 48.1912L269.076 48.2005L265.374 48.2083L261.671 48.2014L259.82 48.1929L257.969 48.1778C257.967 48.1778 257.965 48.177 257.963 48.1755C257.962 48.1739 257.961 48.1719 257.961 48.1697C257.961 48.1676 257.962 48.1655 257.963 48.164C257.965 48.1625 257.967 48.1616 257.969 48.1616V48.1612Z" fill="white"/>
<path d="M265.375 48.4214L259.82 48.4058L257.88 48.3902L257.751 48.2606V48.1655L257.756 47.9579L257.969 47.9501L261.672 47.9268L265.375 47.9199L270.929 47.9367L272.991 47.9547L272.996 48.3831L272.78 48.3886L269.078 48.414L265.375 48.4214Z" fill="white"/>
<path d="M270.898 51.3129H260.384C260.376 51.3129 260.369 51.3099 260.364 51.3045C260.358 51.2992 260.355 51.2919 260.355 51.2844C260.355 51.2768 260.358 51.2696 260.364 51.2642C260.369 51.2589 260.376 51.2559 260.384 51.2559H270.898C270.906 51.2559 270.913 51.2589 270.918 51.2642C270.924 51.2696 270.927 51.2768 270.927 51.2844C270.927 51.2919 270.924 51.2992 270.918 51.3045C270.913 51.3099 270.906 51.3129 270.898 51.3129Z" fill="white"/>
<path d="M270.897 51.5234H260.383C260.319 51.5234 260.258 51.4981 260.213 51.4529C260.168 51.4078 260.143 51.3466 260.143 51.2827C260.143 51.2189 260.168 51.1576 260.213 51.1125C260.258 51.0674 260.319 51.042 260.383 51.042H270.897C270.961 51.042 271.022 51.0674 271.068 51.1125C271.113 51.1576 271.138 51.2189 271.138 51.2827C271.138 51.3466 271.113 51.4078 271.068 51.4529C271.022 51.4981 270.961 51.5234 270.897 51.5234Z" fill="white"/>
<path d="M263.536 166.844C270.752 166.844 276.601 160.995 276.601 153.779C276.601 146.564 270.752 140.715 263.536 140.715C256.321 140.715 250.472 146.564 250.472 153.779C250.472 160.995 256.321 166.844 263.536 166.844Z" fill="#91B3FA"/>
<path d="M263.537 161.972C261.916 161.972 260.332 161.491 258.985 160.591C257.638 159.691 256.588 158.411 255.967 156.914C255.347 155.417 255.185 153.77 255.501 152.181C255.817 150.591 256.598 149.131 257.743 147.986C258.889 146.84 260.349 146.059 261.938 145.743C263.528 145.427 265.175 145.589 266.672 146.21C268.169 146.83 269.449 147.88 270.349 149.227C271.249 150.574 271.73 152.159 271.73 153.779C271.727 155.951 270.863 158.034 269.327 159.57C267.791 161.106 265.709 161.97 263.537 161.972ZM263.537 146.959C262.188 146.959 260.869 147.359 259.748 148.108C258.626 148.858 257.752 149.923 257.236 151.169C256.72 152.415 256.584 153.787 256.848 155.11C257.111 156.433 257.76 157.648 258.714 158.602C259.668 159.555 260.883 160.205 262.206 160.468C263.529 160.731 264.9 160.596 266.147 160.08C267.393 159.564 268.458 158.69 269.207 157.568C269.957 156.446 270.357 155.128 270.357 153.779C270.355 151.971 269.636 150.237 268.357 148.959C267.079 147.68 265.345 146.961 263.537 146.959V146.959Z" fill="white"/>
<path fill-rule="evenodd" clip-rule="evenodd" d="M260.97 156.935V151.044C260.97 150.901 261.008 150.76 261.08 150.636C261.152 150.512 261.255 150.41 261.38 150.339C261.505 150.268 261.646 150.231 261.789 150.232C261.932 150.234 262.073 150.273 262.196 150.346L267.159 153.291C267.281 153.363 267.381 153.465 267.451 153.587C267.52 153.71 267.557 153.848 267.557 153.989C267.557 154.13 267.52 154.269 267.451 154.391C267.381 154.513 267.281 154.616 267.159 154.688L262.196 157.632C262.073 157.705 261.932 157.745 261.789 157.746C261.646 157.747 261.505 157.711 261.38 157.64C261.256 157.569 261.152 157.466 261.08 157.342C261.008 157.219 260.97 157.078 260.97 156.935Z" fill="white"/>
<path d="M235.625 76.9489C242.929 76.9489 248.849 71.0283 248.849 63.7249C248.849 56.4215 242.929 50.501 235.625 50.501C228.322 50.501 222.401 56.4215 222.401 63.7249C222.401 71.0283 228.322 76.9489 235.625 76.9489Z" fill="#91B3FA"/>
<path d="M229.329 69.2151H227.049C226.548 69.2151 226.404 68.7989 226.404 68.2913V63.9165C226.404 63.409 226.548 63.0723 227.049 63.0723H229.329C229.823 63.0723 230.143 63.4003 230.143 63.9165V68.2913C230.143 68.8075 229.823 69.2151 229.329 69.2151ZM227.05 64.1406C227.05 64.1406 227.472 63.9055 227.472 63.9165V68.2913C227.404 68.3033 227.335 68.309 227.265 68.3083L229.296 68.3076C229.296 68.3031 229.075 68.2977 229.075 68.2913V63.9165C229.075 63.9101 229.304 64.1406 229.304 64.1406H227.05Z" fill="white"/>
<path d="M233.567 69.2144H231.428C230.943 69.2144 230.944 68.7982 230.944 68.2907V61.4296C230.944 60.9221 230.943 60.668 231.428 60.668H233.567C234.044 60.668 234.416 60.8962 234.416 61.4296V68.2907C234.416 68.824 234.044 69.2144 233.567 69.2144ZM231.454 68.1461H233.486C233.486 68.1461 233.882 68.2965 233.882 68.2907V61.4296C233.882 61.4238 233.486 60.935 233.486 60.935H231.454C231.454 60.935 231.211 61.4228 231.211 61.4296V68.2907C231.211 68.2974 231.453 68.1461 231.454 68.1461Z" fill="white"/>
<path d="M239.757 68.2934C239.757 68.4143 239.733 68.5339 239.687 68.6456C239.641 68.7573 239.573 68.8588 239.488 68.9442C239.402 69.0297 239.301 69.0975 239.189 69.1438C239.077 69.19 238.958 69.2138 238.837 69.2138H236.137C236.016 69.2138 235.897 69.19 235.785 69.1438C235.673 69.0975 235.572 69.0297 235.486 68.9442C235.401 68.8588 235.333 68.7573 235.287 68.6456C235.241 68.534 235.217 68.4143 235.217 68.2934V59.184C235.217 59.0632 235.241 58.9435 235.287 58.8318C235.333 58.7201 235.401 58.6187 235.486 58.5332C235.572 58.4477 235.673 58.38 235.785 58.3337C235.897 58.2875 236.016 58.2637 236.137 58.2637H238.837C239.081 58.2637 239.315 58.3606 239.487 58.5332C239.66 58.7058 239.757 58.9399 239.757 59.184L239.757 68.2934ZM238.155 58.5475C238.155 58.5431 238.153 58.539 238.15 58.5359C238.147 58.5328 238.143 58.5311 238.138 58.5311H235.5C235.496 58.5311 235.492 58.5328 235.489 58.5359C235.486 58.539 235.484 58.5431 235.484 58.5475V67.328C235.484 67.3323 235.486 67.3365 235.489 67.3395C235.492 67.3426 235.496 67.3443 235.5 67.3443H238.138C238.143 67.3443 238.147 67.3426 238.15 67.3395C238.153 67.3365 238.155 67.3323 238.155 67.328V58.5475Z" fill="white"/>
<path d="M243.763 68.2948C243.763 68.4157 243.739 68.5354 243.693 68.647C243.647 68.7587 243.579 68.8602 243.493 68.9457C243.408 69.0311 243.306 69.0989 243.195 69.1452C243.083 69.1914 242.963 69.2152 242.842 69.2152H240.143C240.022 69.2152 239.903 69.1914 239.791 69.1452C239.679 69.0989 239.578 69.0311 239.492 68.9456C239.407 68.8602 239.339 68.7587 239.293 68.647C239.246 68.5354 239.223 68.4157 239.223 68.2948V57.316C239.223 57.0718 239.32 56.8377 239.492 56.6651C239.665 56.4925 239.899 56.3955 240.143 56.3955H242.842C243.087 56.3955 243.321 56.4925 243.493 56.6651C243.666 56.8377 243.763 57.0718 243.763 57.316V68.2948ZM242.428 57.213C242.428 57.2087 242.426 57.2046 242.423 57.2015C242.42 57.1985 242.416 57.1968 242.411 57.1968H239.773C239.769 57.1968 239.765 57.1985 239.762 57.2015C239.759 57.2046 239.757 57.2087 239.757 57.213V68.1303C239.757 68.1347 239.759 68.1388 239.762 68.1419C239.765 68.145 239.769 68.1467 239.773 68.1467H242.411C242.416 68.1467 242.42 68.145 242.423 68.1419C242.426 68.1388 242.428 68.1347 242.428 68.1303V57.213Z" fill="white"/>
<defs>
<linearGradient id="paint0_linear" x1="296.262" y1="270.221" x2="136.664" y2="97.8014" gradientUnits="userSpaceOnUse">
<stop stop-color="#DAE3FE"/>
<stop offset="1" stop-color="#E9EFFD"/>
</linearGradient>
<linearGradient id="paint1_linear" x1="123.501" y1="53.1228" x2="183.276" y2="53.1228" gradientUnits="userSpaceOnUse">
<stop stop-color="#2B3582"/>
<stop offset="1" stop-color="#150E42"/>
</linearGradient>
<linearGradient id="paint2_linear" x1="188.411" y1="108.639" x2="266.513" y2="59.0616" gradientUnits="userSpaceOnUse">
<stop stop-color="#4F52FF"/>
<stop offset="1" stop-color="#4042E2"/>
</linearGradient>
<linearGradient id="paint3_linear" x1="128.299" y1="211.061" x2="197.9" y2="205.523" gradientUnits="userSpaceOnUse">
<stop stop-color="#4F52FF"/>
<stop offset="1" stop-color="#4042E2"/>
</linearGradient>
<linearGradient id="paint4_linear" x1="105.629" y1="52.7743" x2="165.404" y2="52.7743" gradientUnits="userSpaceOnUse">
<stop stop-color="#2B3582"/>
<stop offset="1" stop-color="#150E42"/>
</linearGradient>
<linearGradient id="paint5_linear" x1="112.191" y1="168.677" x2="145.927" y2="221.658" gradientUnits="userSpaceOnUse">
<stop stop-color="#09005D"/>
<stop offset="1" stop-color="#1A0F91"/>
</linearGradient>
<linearGradient id="paint6_linear" x1="234.025" y1="110.655" x2="105.453" y2="223.668" gradientUnits="userSpaceOnUse">
<stop stop-color="#FF928E"/>
<stop offset="0.091" stop-color="#FE8C86"/>
<stop offset="0.396" stop-color="#FE7C72"/>
<stop offset="0.7" stop-color="#FE7366"/>
<stop offset="1" stop-color="#FE7062"/>
</linearGradient>
<linearGradient id="paint7_linear" x1="329.623" y1="108.956" x2="266.5" y2="129.064" gradientUnits="userSpaceOnUse">
<stop stop-color="#E1473D"/>
<stop offset="1" stop-color="#E9605A"/>
</linearGradient>
<linearGradient id="paint8_linear" x1="280.192" y1="40.0506" x2="228.923" y2="46.8987" gradientUnits="userSpaceOnUse">
<stop stop-color="#FF928E"/>
<stop offset="1" stop-color="#FE7062"/>
</linearGradient>
<linearGradient id="paint9_linear" x1="295.691" y1="163.502" x2="225.3" y2="167.405" gradientUnits="userSpaceOnUse">
<stop stop-color="#09005D"/>
<stop offset="1" stop-color="#1A0F91"/>
</linearGradient>
<linearGradient id="paint10_linear" x1="155.972" y1="95.9101" x2="113.07" y2="140.172" gradientUnits="userSpaceOnUse">
<stop stop-color="#09005D"/>
<stop offset="1" stop-color="#1A0F91"/>
</linearGradient>
<linearGradient id="paint11_linear" x1="303.983" y1="119.022" x2="311.46" y2="135.183" gradientUnits="userSpaceOnUse">
<stop stop-color="#FF928E"/>
<stop offset="1" stop-color="#FE7062"/>
</linearGradient>
<linearGradient id="paint12_linear" x1="338.904" y1="406.381" x2="339.087" y2="422.753" gradientUnits="userSpaceOnUse">
<stop stop-color="#FF928E"/>
<stop offset="1" stop-color="#FE7062"/>
</linearGradient>
<linearGradient id="paint13_linear" x1="228.329" y1="118.696" x2="230.668" y2="135.66" gradientUnits="userSpaceOnUse">
<stop stop-color="#FF928E"/>
<stop offset="1" stop-color="#FE7062"/>
</linearGradient>
<linearGradient id="paint14_linear" x1="-14.0558" y1="242.209" x2="-8.23194" y2="242.209" gradientUnits="userSpaceOnUse">
<stop stop-color="#09005D"/>
<stop offset="1" stop-color="#1A0F91"/>
</linearGradient>
<linearGradient id="paint15_linear" x1="-13.4708" y1="239.501" x2="-11.1087" y2="239.501" gradientUnits="userSpaceOnUse">
<stop stop-color="#FEBBBA"/>
<stop offset="1" stop-color="#FF928E"/>
</linearGradient>
<linearGradient id="paint16_linear" x1="-1.66958" y1="242.116" x2="7.46792" y2="242.116" gradientUnits="userSpaceOnUse">
<stop stop-color="#09005D"/>
<stop offset="1" stop-color="#1A0F91"/>
</linearGradient>
<linearGradient id="paint17_linear" x1="-1.54715" y1="238.452" x2="0.802235" y2="238.452" gradientUnits="userSpaceOnUse">
<stop stop-color="#FEBBBA"/>
<stop offset="1" stop-color="#FF928E"/>
</linearGradient>
<linearGradient id="paint18_linear" x1="-14.9383" y1="217.616" x2="1.07581" y2="217.616" gradientUnits="userSpaceOnUse">
<stop stop-color="#09005D"/>
<stop offset="1" stop-color="#1A0F91"/>
</linearGradient>
<linearGradient id="paint19_linear" x1="91.4445" y1="165.999" x2="54.7902" y2="192.443" gradientUnits="userSpaceOnUse">
<stop stop-color="#4F52FF"/>
<stop offset="1" stop-color="#4042E2"/>
</linearGradient>
<linearGradient id="paint20_linear" x1="92.8242" y1="156.109" x2="88.4895" y2="176.959" gradientUnits="userSpaceOnUse">
<stop stop-color="#FF928E"/>
<stop offset="1" stop-color="#FE7062"/>
</linearGradient>
<linearGradient id="paint21_linear" x1="67.8091" y1="180.157" x2="76.5441" y2="180.157" gradientUnits="userSpaceOnUse">
<stop stop-color="#FEBBBA"/>
<stop offset="1" stop-color="#FF928E"/>
</linearGradient>
<linearGradient id="paint22_linear" x1="6.13005" y1="167.333" x2="2.65958" y2="212.671" gradientUnits="userSpaceOnUse">
<stop stop-color="#FF928E"/>
<stop offset="1" stop-color="#FE7062"/>
</linearGradient>
<linearGradient id="paint23_linear" x1="33.9489" y1="171.573" x2="17.6446" y2="196.703" gradientUnits="userSpaceOnUse">
<stop stop-color="#FEBBBA"/>
<stop offset="1" stop-color="#FF928E"/>
</linearGradient>
<linearGradient id="paint24_linear" x1="103.895" y1="183.588" x2="114.15" y2="183.588" gradientUnits="userSpaceOnUse">
<stop stop-color="#FEBBBA"/>
<stop offset="1" stop-color="#FF928E"/>
</linearGradient>
<linearGradient id="paint25_linear" x1="12.7242" y1="157.394" x2="-11.1301" y2="186.357" gradientUnits="userSpaceOnUse">
<stop stop-color="#FEBBBA"/>
<stop offset="1" stop-color="#FF928E"/>
</linearGradient>
<linearGradient id="paint26_linear" x1="-23.701" y1="301.856" x2="-33.6388" y2="310.354" gradientUnits="userSpaceOnUse">
<stop stop-color="#FEBBBA"/>
<stop offset="1" stop-color="#FF928E"/>
</linearGradient>
<linearGradient id="paint27_linear" x1="67.8942" y1="153.887" x2="69.5964" y2="187.203" gradientUnits="userSpaceOnUse">
<stop stop-color="#09005D"/>
<stop offset="1" stop-color="#1A0F91"/>
</linearGradient>
<linearGradient id="paint28_linear" x1="-35.5216" y1="310.313" x2="-28.5144" y2="304.287" gradientUnits="userSpaceOnUse">
<stop stop-color="#FEBBBA"/>
<stop offset="1" stop-color="#FF928E"/>
</linearGradient>
</defs>
</svg>
