<svg width="207" height="363" viewBox="0 0 207 363" fill="none" xmlns="http://www.w3.org/2000/svg">
<g opacity="0.6">
<path d="M14.5905 332.851C0.539278 329.501 -13.4633 325.825 -27.4172 321.823C-27.6683 322.013 -29.6014 290.657 -13.4674 275.729C18.3708 246.859 1.28528 216.918 -2.81152 199.709C-9.58013 175.373 -2.66943 150.274 21.3397 152.015C48.0112 153.425 56.7235 109.836 55.441 69.3751C53.4146 49.5323 73.9528 27.4514 92.8151 23.673C112.115 19.33 129.757 33.2656 132.062 72.6923C136.772 118.526 101.481 142.796 87.3073 164.314C73.3442 185.431 99.6567 205.844 75.4849 223.511C55.0678 239.304 30.1763 249.756 36.9527 272.465C43.9554 294.923 40.2483 312.465 14.5905 332.851Z" fill="url(#paint0_linear)"/>
<path d="M-5.4035 332.929C-5.31148 331.666 14.8069 266.928 43.044 207.404C47.1859 197.436 51.6187 187.401 55.9071 177.694C79.7791 123.655 102.327 72.6126 88.2122 12.4035L89.1849 12.1687C103.39 72.7106 80.7709 123.901 56.8249 178.101C52.5596 187.808 48.1099 197.834 43.9618 207.81C15.0318 268.847 -4.32311 332.642 -4.40449 333.047L-5.4035 332.929Z" fill="#BEB8F2"/>
<path d="M77.8469 127.662L77.1538 126.921C94.5756 110.697 115.931 87.3365 127.404 74.7843C136.723 64.5894 136.744 64.6028 137.232 64.7287L137.132 65.2268L137.342 65.6764C136.842 66.0015 133.016 70.1882 128.176 75.4808C116.67 88.0312 95.2973 111.411 77.8469 127.662Z" fill="#BEB8F2"/>
<path d="M84.4155 103.764C81.4668 63.1894 57.2576 47.966 57.0219 47.8955L57.1327 47.5059L56.8315 46.9549C57.1173 46.7995 57.4045 46.9359 57.7256 47.1115C62.9062 49.93 82.795 67.7924 85.4166 103.687L84.4155 103.764Z" fill="#BEB8F2"/>
<path d="M26.4127 247.804L25.4164 247.604C33.7502 207.831 9.76251 167.913 -0.93881 152.597C-1.23737 152.198 -1.51554 151.783 -1.77217 151.356L-0.851735 150.921C-0.802009 151.019 -0.500819 151.477 -0.105415 151.996C10.6696 167.429 34.8288 207.645 26.4127 247.804Z" fill="#BEB8F2"/>
<path d="M34.5573 228.665L33.7572 228.041C53.2406 202 89.378 203.166 89.9562 203.282L89.7814 203.761L89.2751 203.793L89.7858 203.762L89.7088 204.26C89.3343 204.236 53.6906 203.053 34.5573 228.665Z" fill="#BEB8F2"/>
<path d="M-2.08429 322.499C-1.06631 314.375 -2.75951 300.216 -16.6044 278.9C-17.411 277.664 -17.411 277.664 -17.3512 277.413L-16.853 277.513L-16.3831 277.339C-16.3369 277.431 -16.0677 277.865 -15.7497 278.331C-1.73864 299.903 -0.035962 314.313 -1.07368 322.605L-2.08429 322.499Z" fill="#BEB8F2"/>
<path d="M3.88695 307.578L2.94246 307.212C8.46141 292.995 29.74 284.127 41.9358 280.109L42.6558 279.865L43.041 280.804C42.9404 280.844 42.6725 280.933 42.256 281.072C30.2239 285.034 9.24982 293.746 3.88695 307.578Z" fill="#BEB8F2"/>
<path d="M56.6472 310.508C70.5971 313.313 82.2713 313.768 82.7221 311.525C83.173 309.283 72.2299 305.191 58.28 302.387C44.3301 299.582 32.656 299.127 32.2051 301.369C31.7542 303.612 42.6973 307.704 56.6472 310.508Z" fill="url(#paint1_linear)"/>
<path d="M33.6148 300.668C34.7855 301.75 37.1426 305.079 40.9575 306.151C66.3144 313.364 78.2087 310.225 79.3028 309.64C79.4897 309.539 80.7375 298.36 80.9227 298.244C80.9212 293.824 82.2571 289.506 84.7548 285.859C92.8424 274.241 129.321 275.23 124.431 248.981C120.847 229.751 96.5176 218.557 133.757 198.339C170.996 178.121 193.407 122.164 158.884 108.847C139.07 101.203 124.471 133.677 101.691 135.141C80.0466 136.532 69.0545 152.976 70.8527 176.808C72.651 200.64 59.598 202.338 41.9777 210.549C20.8103 220.407 35.0034 244.964 41.2958 255.373C46.3926 263.764 47.2551 294.414 33.6148 300.668Z" fill="url(#paint2_linear)"/>
<path d="M58.7138 307.694C64.419 229.3 108.139 154.059 172.818 111.334L173.332 112.113C108.892 154.687 65.3298 229.649 59.6489 307.762L58.7138 307.694Z" fill="#FCFDFE"/>
<path d="M65.4963 265.406C61.6026 234.712 32.3052 214.139 32.0126 213.936L32.5418 213.168C32.8432 213.372 62.4768 234.184 66.4226 265.287L65.4963 265.406Z" fill="#FCFDFE"/>
<path d="M61.0969 293.344L60.2387 293.009C71.514 263.809 127.447 252.801 128.011 252.692L128.187 253.611C127.624 253.72 72.184 264.642 61.0969 293.344Z" fill="#FCFDFE"/>
<path d="M95.8922 194.058L94.9965 193.795C101.945 169.912 82.7549 136.952 82.5621 136.622L83.3661 136.145C83.5623 136.48 102.957 169.782 95.8922 194.058Z" fill="#FCFDFE"/>
<path d="M125.384 153.713L124.795 152.983C146.841 135.255 184.905 138.692 185.289 138.713L185.204 139.645C184.809 139.607 147.127 136.224 125.384 153.713Z" fill="#FCFDFE"/>
<g style="mix-blend-mode:multiply" opacity="0.2">
<path style="mix-blend-mode:multiply" opacity="0.2" d="M114.611 287.858C113.322 277.053 104.111 269.861 102.353 268.596C101.282 267.822 100.154 267.131 98.978 266.529C100.141 267.823 101.095 269.29 101.806 270.878C102.496 272.438 104.182 276.229 102.852 280.038C101.616 283.584 98.8528 284.047 95.5716 287.524C90.0717 293.36 92.2514 297.963 88.7889 301.167C82.6771 306.824 66.7464 300.901 57.2731 294.253C51.7986 290.364 47.1892 285.384 43.7355 279.625C44.9449 286.058 47.6164 292.127 51.5438 297.363C53.4781 299.941 69.3914 320.544 90.1679 316.313C103.997 313.494 116.115 300.474 114.611 287.858Z" fill="url(#paint3_linear)"/>
</g>
</g>
<defs>
<linearGradient id="paint0_linear" x1="89.5065" y1="28.8505" x2="6.72164" y2="327.733" gradientUnits="userSpaceOnUse">
<stop stop-color="#AA80F9"/>
<stop offset="1" stop-color="#6165D7"/>
</linearGradient>
<linearGradient id="paint1_linear" x1="32.2051" y1="301.369" x2="82.7221" y2="311.525" gradientUnits="userSpaceOnUse">
<stop stop-color="#FFC444"/>
<stop offset="1" stop-color="#F36F56"/>
</linearGradient>
<linearGradient id="paint2_linear" x1="36.8624" y1="194.93" x2="159.868" y2="219.66" gradientUnits="userSpaceOnUse">
<stop stop-color="#E38DDD"/>
<stop offset="1" stop-color="#9571F6"/>
</linearGradient>
<linearGradient id="paint3_linear" x1="222338" y1="103393" x2="231405" y2="115181" gradientUnits="userSpaceOnUse">
<stop stop-color="#AB316D"/>
<stop offset="1" stop-color="#792D3D"/>
</linearGradient>
</defs>
</svg>
