<svg width="41" height="41" viewBox="0 0 41 41" fill="none" xmlns="http://www.w3.org/2000/svg">
<path d="M20.4997 41C15.0629 40.9998 9.8488 38.84 6.00439 34.9956C2.15999 31.1512 0.000151593 25.9371 0 20.5003C-2.11351e-09 15.0634 2.15977 9.84913 6.00419 6.0046C9.84862 2.16006 15.0628 0.000151598 20.4997 0C25.9367 0 31.1511 2.15985 34.9956 6.0044C38.8401 9.84895 41 15.0633 41 20.5003C40.9998 25.9372 38.8399 31.1514 34.9954 34.9958C31.1509 38.8402 25.9366 41 20.4997 41Z" fill="#29A9E1"/>
<path d="M9.57715 27.3627C11.6263 28.6797 14.0114 29.3788 16.4473 29.3764C24.7683 29.3764 29.4687 22.3485 29.1857 16.0447C30.0635 15.4109 30.8208 14.6251 31.4219 13.7246C30.6046 14.0871 29.7375 14.3249 28.8496 14.4299C29.7855 13.8702 30.4857 12.989 30.8194 11.9509C29.9396 12.4721 28.9773 12.8394 27.9739 13.0369C27.2985 12.3176 26.4047 11.8412 25.431 11.6813C24.4573 11.5215 23.4581 11.6872 22.5882 12.1528C21.7182 12.6184 21.0261 13.3579 20.6191 14.2567C20.212 15.1556 20.1127 16.1635 20.3366 17.1245C18.5546 17.0354 16.8112 16.5724 15.2198 15.7656C13.6283 14.9587 12.2245 13.8261 11.0994 12.4413C10.5264 13.4282 10.3509 14.5963 10.6087 15.708C10.8664 16.8196 11.5379 17.7914 12.4867 18.4255C11.7747 18.4028 11.0785 18.2106 10.4557 17.8648C10.4433 18.9091 10.7955 19.9251 11.4517 20.7376C12.1079 21.5501 13.027 22.1083 14.0506 22.3159C13.3909 22.4952 12.699 22.5214 12.0276 22.3925C12.3135 23.2831 12.8707 24.062 13.6213 24.6202C14.372 25.1783 15.2783 25.4876 16.2136 25.5049C14.3352 26.9795 11.9481 27.6477 9.57715 27.3627Z" fill="white"/>
</svg>
