<svg width="41" height="41" viewBox="0 0 41 41" fill="none" xmlns="http://www.w3.org/2000/svg">
<path d="M20.4997 40.9994C15.0629 40.9994 9.84868 38.8396 6.00423 34.9952C2.15979 31.1507 0 25.9366 0 20.4997C0 15.0629 2.15979 9.84867 6.00423 6.00423C9.84868 2.15978 15.0629 7.97015e-09 20.4997 7.97015e-09C23.1918 -7.50585e-05 25.8576 0.530106 28.3448 1.56028C30.832 2.59045 33.0919 4.10044 34.9956 6.00402C36.8992 7.9076 38.4093 10.1675 39.4395 12.6547C40.4697 15.1418 41 17.8076 41 20.4997C41 23.1918 40.4697 25.8576 39.4395 28.3447C38.4093 30.8319 36.8992 33.0918 34.9956 34.9954C33.0919 36.899 30.832 38.409 28.3448 39.4391C25.8576 40.4693 23.1918 40.9995 20.4997 40.9994Z" fill="white"/>
<path d="M36.2212 12.5502C36.0358 11.852 35.6702 11.2148 35.1611 10.7024C34.652 10.19 34.0172 9.82028 33.3203 9.63037C30.7611 8.94043 20.5001 8.94043 20.5001 8.94043C20.5001 8.94043 10.2391 8.94043 7.68061 9.63037C6.98368 9.82028 6.34887 10.19 5.83975 10.7024C5.33063 11.2148 4.96508 11.852 4.77968 12.5502C4.09375 15.1258 4.09375 20.4996 4.09375 20.4996C4.09375 20.4996 4.09375 25.8727 4.77968 28.449C4.96508 29.1471 5.33063 29.7843 5.83975 30.2967C6.34887 30.8092 6.98368 31.1788 7.68061 31.3688C10.2391 32.0587 20.5001 32.0587 20.5001 32.0587C20.5001 32.0587 30.7611 32.0587 33.3203 31.3688C34.0172 31.1788 34.652 30.8092 35.1611 30.2967C35.6702 29.7843 36.0358 29.1471 36.2212 28.449C36.9071 25.8733 36.9071 20.4996 36.9071 20.4996C36.9071 20.4996 36.9071 15.1258 36.2212 12.5502Z" fill="#FF1F2D"/>
<path d="M17.1445 25.3785V15.6211L25.7187 20.5004L17.1445 25.3785Z" fill="white"/>
</svg>
